<?xml version="1.0" encoding="utf-8"?>
<!-- Generator: Adobe Illustrator 24.1.1, SVG Export Plug-In . SVG Version: 6.00 Build 0)  -->
<svg version="1.1" id="Layer_1" xmlns="http://www.w3.org/2000/svg" xmlns:xlink="http://www.w3.org/1999/xlink" x="0px" y="0px"
	 viewBox="0 0 200 200" style="enable-background:new 0 0 200 200;" xml:space="preserve">
<style type="text/css">
	.st0{fill:#FFFFFF;}
	.st1{fill:#089AFF;}
	.st2{fill:#266EFF;}
</style>
<rect x="958" y="1198" class="st0" width="720" height="720"/>
<g>
	<g>
		<path class="st1" d="M1428.71,1442.7c-0.97-2.46-1.94-4.91-2.9-7.37c-2.75-7.03-5.5-14.07-8.25-21.1
			c-0.27-0.68-0.56-1.36-0.84-2.04c-0.1,0.01-0.19,0.02-0.29,0.03c-0.16,0.37-0.33,0.74-0.48,1.12c-1.26,3.24-2.51,6.48-3.77,9.72
			c-2.51,6.43-5.02,12.86-7.53,19.3c-0.63,1.61-0.59,1.58,1.08,1.58c7.28,0,14.56,0,21.84,0c0.32,0,0.65,0,0.97-0.02
			c0.36-0.02,0.51-0.22,0.41-0.55C1428.89,1443.13,1428.8,1442.91,1428.71,1442.7z"/>
		<path class="st1" d="M1418.72,1255.47l-264.48,32.62l-50.71,261.62l233.15,129.07l194.8-181.85L1418.72,1255.47z M1459.7,1457.98
			c3.02,7.64,6.04,15.27,9.06,22.9c1.46,3.71,2.91,7.43,4.36,11.14c0.1,0.26,0.21,0.52,0.27,0.79c0.06,0.26-0.09,0.45-0.33,0.52
			c-0.17,0.05-0.36,0.08-0.55,0.1c-4.68,0.68-9.36,1.36-14.05,2.05c-2.29,0.34-4.59,0.69-6.88,1.04c-0.37,0.05-0.74,0.09-1.1,0.14
			c-0.57,0.04-0.66,0-0.91-0.61c-0.76-1.89-1.5-3.8-2.24-5.7c-2.79-7.08-5.58-14.15-8.37-21.23c-0.49-1.25-1.02-2.49-1.45-3.76
			c-0.24-0.7-0.65-0.95-1.35-0.89c-0.28,0.03-0.56,0-0.83,0c-12.49,0-24.97,0-37.45,0c-2.17,0-1.7-0.19-2.45,1.7
			c-3.09,7.8-6.14,15.63-9.2,23.44c-0.83,2.12-1.66,4.23-2.5,6.34c-0.3,0.75-0.32,0.78-1.13,0.67c-2.43-0.34-4.87-0.69-7.3-1.05
			c-2.89-0.42-5.78-0.85-8.67-1.27c-2.06-0.3-4.13-0.6-6.2-0.91c-0.14-0.02-0.27-0.06-0.4-0.11c-0.2-0.08-0.27-0.26-0.21-0.45
			c0.1-0.31,0.22-0.61,0.34-0.91c2.23-5.65,4.46-11.3,6.68-16.96c2.21-5.61,4.4-11.23,6.61-16.84c1.87-4.75,3.76-9.49,5.63-14.24
			c3.02-7.68,6.04-15.37,9.06-23.05c2.16-5.48,4.32-10.96,6.47-16.44c2.22-5.65,4.45-11.31,6.67-16.96c0.95-2.42,1.9-4.84,2.85-7.25
			c0.14-0.35,0.31-0.68,0.44-1.03c0.17-0.46,0.49-0.64,0.97-0.61c0.28,0.02,0.56,0,0.84,0c6.82,0,13.65-0.01,20.47,0
			c1.67,0,1.48-0.25,2.17,1.51c3.14,7.94,6.26,15.88,9.39,23.82c2.16,5.48,4.31,10.96,6.47,16.44c2.48,6.3,4.98,12.6,7.46,18.89
			C1454.77,1445.47,1457.23,1451.73,1459.7,1457.98z M1283.71,1436.62c0.04,4.05,0.47,8.05,1.64,11.95c1.5,5.01,3.95,9.48,7.4,13.42
			c4.25,4.85,9.49,8.25,15.48,10.55c3.09,1.18,6.27,2.01,9.52,2.58c2.67,0.47,5.36,0.41,8.05,0.15c5.72-0.56,11.19-2.12,16.55-4.14
			c3.91-1.47,7.73-3.16,11.48-4.99c0.25-0.12,0.5-0.24,0.76-0.35c0.2-0.08,0.37-0.01,0.44,0.2c0.07,0.22,0.13,0.45,0.16,0.67
			c0.21,1.33,0.41,2.66,0.61,3.99c0.7,4.68,1.39,9.36,2.09,14.04c0.06,0.41,0.12,0.83,0.17,1.24c0.06,0.63-0.02,0.81-0.64,1.05
			c-1.55,0.61-3.11,1.22-4.68,1.79c-5.23,1.91-10.5,3.71-15.89,5.1c-4.18,1.07-8.41,1.93-12.71,2.34
			c-3.76,0.36-7.51,0.23-11.24-0.31c-3.68-0.53-7.31-1.29-10.85-2.41c-7.38-2.34-14.1-5.92-20.05-10.9
			c-4.47-3.74-8.39-8-11.73-12.78c-4.61-6.6-7.68-13.86-9.12-21.78c-1.02-5.6-1.22-11.24-0.75-16.92c0.4-4.83,1.33-9.55,2.93-14.13
			c2.22-6.38,5.52-12.14,9.84-17.34c4.52-5.44,9.75-10.04,15.84-13.65c3.2-1.9,6.57-3.46,10.05-4.76c4.58-1.71,9.32-2.82,14.15-3.55
			c2.53-0.38,5.08-0.45,7.64-0.38c6.1,0.17,12.08,1.19,18.02,2.57c4.97,1.16,9.88,2.56,14.74,4.12c2.02,0.65,1.92,0.27,1.54,2.44
			c-1.09,6.17-2.19,12.33-3.29,18.49c-0.05,0.27-0.11,0.55-0.19,0.81c-0.07,0.27-0.27,0.37-0.53,0.28c-0.26-0.09-0.52-0.2-0.77-0.32
			c-4-1.85-8.06-3.56-12.24-4.97c-5.25-1.78-10.6-3.07-16.17-3.28c-2.37-0.09-4.71,0.18-7.03,0.75c-3.62,0.9-7.11,2.12-10.43,3.82
			c-8.3,4.25-14.31,10.64-17.93,19.24c-1.54,3.66-2.38,7.51-2.67,11.47C1283.78,1434.03,1283.66,1435.32,1283.71,1436.62z
			 M1167.9,1486.49c0.06-0.22,0.14-0.44,0.22-0.66c2.21-6.06,4.42-12.12,6.63-18.18c0.03-0.09,0.06-0.17,0.09-0.26
			c0.33-0.87,0.35-0.88,1.18-0.47c3.71,1.81,7.45,3.57,11.27,5.15c4.42,1.83,8.94,3.38,13.61,4.42c2.18,0.49,4.4,0.74,6.63,0.78
			c1.76,0.03,3.51-0.28,5.23-0.68c3.38-0.77,6.57-2,9.36-4.11c2.5-1.89,4.67-4.09,6.13-6.92c1.9-3.7,2.12-7.55,1.03-11.5
			c-0.96-3.48-3.05-6.22-5.83-8.46c-1.85-1.49-3.88-2.69-6.01-3.76c-1.09-0.54-2.2-0.7-3.37-0.65c-2.37,0.09-4.72,0.34-7.06,0.67
			c-6.21,0.89-12.33,2.21-18.45,3.56c-0.86,0.19-1.73,0.35-2.58,0.58c-0.5,0.13-0.88,0.07-1.29-0.25c-1.12-0.9-2.27-1.76-3.41-2.64
			c-3.16-2.44-6.31-4.89-9.47-7.33c-0.11-0.09-0.21-0.19-0.33-0.25c-0.69-0.4-0.84-0.98-0.76-1.76c0.3-3,0.53-6.01,0.78-9.01
			c0.33-3.88,0.66-7.77,1-11.65c0.22-2.54,0.45-5.08,0.67-7.63c0.35-3.98,0.69-7.95,1.04-11.93c0.34-3.84,0.68-7.67,1.02-11.51
			c0.03-0.37,0.09-0.74,0.17-1.1c0.05-0.25,0.24-0.39,0.5-0.41c0.32-0.02,0.65-0.02,0.97-0.02c22.24,0,44.47,0,66.71,0
			c1.61,0,1.5-0.06,1.67,1.48c0.44,4.01,0.87,8.03,1.31,12.04c0.24,2.17,0.48,4.33,0.72,6.5c0.03,0.28,0.07,0.55,0.07,0.83
			c0.01,0.27-0.14,0.45-0.41,0.47c-0.46,0.03-0.93,0.04-1.39,0.04c-7.66,0-15.32,0-22.98,0c-7.66,0-15.32,0-22.98,0
			c-1.8,0-1.68-0.09-1.85,1.73c-0.53,5.73-1.1,11.45-1.66,17.18c-0.04,0.46-0.09,0.92-0.11,1.39c-0.01,0.35,0.17,0.54,0.5,0.51
			c0.32-0.02,0.65-0.07,0.97-0.13c6.05-1.04,12.13-1.68,18.29-1.54c7.92,0.18,15.33,2.18,22.02,6.46
			c6.36,4.07,10.97,9.64,13.82,16.66c1.57,3.86,2.44,7.88,2.8,12.02c0.11,1.25,0.29,2.49,0.25,3.75c-0.13,3.59-0.67,7.11-1.96,10.48
			c-1.58,4.13-3.94,7.77-6.96,10.98c-4.24,4.51-9.15,8.13-14.68,10.89c-4.33,2.17-8.89,3.73-13.6,4.85
			c-1.53,0.36-3.07,0.71-4.63,0.96c-3.05,0.5-6.1,0.4-9.16,0.1c-7.58-0.75-14.85-2.76-21.98-5.36c-4.27-1.56-8.47-3.31-12.61-5.18
			c-0.25-0.11-0.51-0.22-0.76-0.35C1167.87,1487.07,1167.79,1486.89,1167.9,1486.49z"/>
	</g>
	<g>
		<path class="st1" d="M1053.15,1829.4l-9.54-22.17h-43.02l-9.54,22.17h-24.37l44.34-102.63h22.17l44.34,102.63H1053.15z
			 M1022.18,1757.31l-12.92,29.8h25.69L1022.18,1757.31z"/>
		<path class="st1" d="M1125.1,1811.05c7.34,0,13.95-3.67,19.82-11.01l13.07,14.68c-10.18,10.57-21.19,15.86-33.03,15.86
			c-11.84,0-21.85-3.74-30.03-11.23c-8.17-7.49-12.26-17.27-12.26-29.36c0-12.09,4.13-21.92,12.41-29.51
			c8.27-7.58,18.08-11.38,29.44-11.38c5.68,0,11.43,1.17,17.25,3.52c5.82,2.35,10.94,5.82,15.34,10.42l-11.45,14.98
			c-2.55-3.03-5.65-5.38-9.32-7.05c-3.67-1.66-7.32-2.5-10.94-2.5c-5.78,0-10.74,1.89-14.9,5.65c-4.16,3.77-6.24,9.01-6.24,15.71
			c0,6.71,2.08,11.92,6.24,15.64C1114.65,1809.19,1119.52,1811.05,1125.1,1811.05z"/>
		<path class="st1" d="M1239.76,1829.4h-20.7v-9.54c-5.68,7.15-12.7,10.72-21.07,10.72s-15.39-2.42-21.07-7.27
			c-5.68-4.84-8.52-11.31-8.52-19.38c0-8.07,2.94-14.12,8.81-18.13c5.87-4.01,13.9-6.02,24.08-6.02h16.44v-0.44
			c0-8.42-4.46-12.63-13.36-12.63c-3.82,0-7.85,0.76-12.11,2.28c-4.26,1.52-7.85,3.4-10.79,5.65l-9.84-14.24
			c10.37-7.54,22.22-11.3,35.53-11.3c9.59,0,17.42,2.4,23.49,7.19c6.07,4.8,9.1,12.38,9.1,22.76V1829.4z M1217.59,1799.3v-3.82
			h-13.8c-8.81,0-13.21,2.74-13.21,8.22c0,2.84,1.05,5.02,3.16,6.53c2.1,1.52,5.11,2.28,9.03,2.28c3.91,0,7.36-1.2,10.35-3.6
			C1216.1,1806.52,1217.59,1803.32,1217.59,1799.3z"/>
		<path class="st1" d="M1291.51,1830.58c-9.35,0-17.69-3.96-25.03-11.89c-7.34-7.93-11.01-17.77-11.01-29.51
			c0-11.74,3.57-21.36,10.72-28.85c7.14-7.49,15.51-11.23,25.11-11.23c9.59,0,17.42,3.38,23.49,10.13v-38.76h22.02v108.94h-22.02
			v-10.42C1308.62,1826.71,1300.86,1830.58,1291.51,1830.58z M1277.64,1790.05c0,6.36,1.91,11.58,5.73,15.64
			c3.82,4.06,8.27,6.09,13.36,6.09c5.09,0,9.42-2.03,12.99-6.09c3.57-4.06,5.36-9.3,5.36-15.71c0-6.41-1.79-11.74-5.36-16
			c-3.57-4.26-7.95-6.39-13.14-6.39c-5.19,0-9.64,2.15-13.36,6.46C1279.5,1778.36,1277.64,1783.69,1277.64,1790.05z"/>
		<path class="st1" d="M1426.07,1817.95c-8.91,8.42-19.36,12.63-31.35,12.63c-11.99,0-21.9-3.69-29.73-11.08
			c-7.83-7.39-11.75-17.3-11.75-29.73c0-12.43,3.99-22.32,11.97-29.66c7.98-7.34,17.4-11.01,28.26-11.01s20.09,3.28,27.68,9.84
			c7.59,6.56,11.38,15.56,11.38,27.01v11.75h-57.55c0.68,4.31,2.94,7.83,6.75,10.57c3.82,2.74,8.12,4.11,12.92,4.11
			c7.73,0,14.09-2.59,19.09-7.78L1426.07,1817.95z M1404.93,1771.11c-3.04-2.54-6.73-3.82-11.09-3.82c-4.36,0-8.34,1.32-11.97,3.96
			c-3.62,2.64-5.73,6.22-6.31,10.72h34.65C1409.72,1777.28,1407.96,1773.66,1404.93,1771.11z"/>
		<path class="st1" d="M1520.92,1786.82v42.58h-22.17v-43.16c0-6.26-0.95-10.87-2.86-13.8c-1.91-2.94-4.99-4.4-9.25-4.4
			s-8.03,1.59-11.3,4.77c-3.28,3.18-4.92,7.85-4.92,14.02v42.58h-22.02v-78.99h22.02v8.96c6.07-6.85,13.02-10.28,20.85-10.28
			c4.99,0,9.52,1.47,13.58,4.4c4.06,2.94,7.12,6.51,9.18,10.72c3.03-4.79,7.12-8.52,12.26-11.16s10.3-3.96,15.49-3.96
			c9.3,0,16.79,2.77,22.46,8.29c5.67,5.53,8.52,13.53,8.52,24v48.01h-22.17v-43.16c0-12.14-4.46-18.21-13.36-18.21
			c-4.4,0-8.22,1.59-11.45,4.77C1522.53,1775.98,1520.92,1780.66,1520.92,1786.82z"/>
		<path class="st1" d="M1606.36,1860.53c-7.73,0-15.03-3.13-21.88-9.4l9.98-16.3c3.72,3.62,7.54,5.43,11.45,5.43
			c2.06,0,3.82-1.01,5.29-3.01c1.47-2.01,2.2-4.14,2.2-6.39c0-2.25-10.18-29.07-30.54-80.46h23.49l19.23,49.19l19.23-49.19h23.49
			l-36.71,93.08c-2.15,5.38-5.51,9.57-10.06,12.55C1617.01,1859.03,1611.94,1860.53,1606.36,1860.53z"/>
	</g>
</g>
<g>
	<path class="st0" d="M98.73,71.59c2.92,0,5.78,0.91,10.2,2.86c0.65,0.26,1.1,0.06,1.23-0.65l1.17-5.85
		c0.13-0.58-0.06-0.97-0.65-1.17c-4.87-2.08-8.57-3.05-12.73-3.05c-12.47,0-23.19,9.87-23.19,22.74c0,12.93,10.85,23.13,22.35,23.13
		c4.35,0,10.07-1.36,14.68-3.57c0.52-0.26,0.71-0.71,0.65-1.23l-0.84-5.98c-0.13-0.65-0.59-0.97-1.23-0.65
		c-3.83,1.88-8.12,3.38-11.95,3.38c-7.99,0-14.62-6.82-14.62-14.94C83.79,78.22,90.94,71.59,98.73,71.59z"/>
	<path class="st0" d="M139.98,65.03c-0.19-0.52-0.65-0.78-1.17-0.78h-7.41c-0.52,0-0.97,0.26-1.17,0.78l-16.69,42.35
		c-0.26,0.65,0.06,1.1,0.71,1.17l7.21,0.97c0.59,0.06,0.97-0.07,1.17-0.65l4.55-11.56h15.85l4.55,11.56
		c0.19,0.58,0.59,0.71,1.17,0.65l7.21-0.97c0.65-0.07,0.97-0.52,0.71-1.17L139.98,65.03z M130.17,89.39l4.94-12.28l4.94,12.28
		H130.17z"/>
	<path class="st0" d="M54.23,102.25c-2.79,0-6.69-1.3-11.5-3.77c-0.65-0.26-1.1-0.13-1.3,0.52l-2.21,6.11
		c-0.19,0.58,0,1.04,0.52,1.3c4.74,2.08,9.87,3.96,15.07,3.96c9.35,0,17.41-6.24,17.73-14.88c0.32-8.38-6.56-14.68-15.07-14.94
		c-2.6-0.06-5.13,0.26-7.67,0.78l0.78-8.12h18.12c0.65,0,0.97-0.39,0.91-1.04l-0.65-6.3c-0.06-0.65-0.45-0.91-1.04-0.91H42.87
		c-0.59,0-0.91,0.26-0.97,0.91L40.14,85.1c-0.06,0.58,0.13,0.91,0.52,1.23l4.48,3.51c0.39,0.32,0.78,0.39,1.3,0.19
		c2.27-0.91,5.46-1.69,8.25-1.69c5.46,0,8.25,3.05,8.25,6.56C62.94,99.46,58.26,102.25,54.23,102.25z"/>
	<polygon class="st2" points="130.17,89.39 140.04,89.39 135.11,77.11 	"/>
	<path class="st2" d="M146.83,2.07L24.46,17.17L1,138.21l107.87,59.72L199,113.79L146.83,2.07z M54.69,88.35
		c-2.79,0-5.98,0.78-8.25,1.69c-0.52,0.19-0.91,0.13-1.3-0.19l-4.48-3.51c-0.39-0.32-0.58-0.65-0.52-1.23l1.75-19.23
		c0.06-0.65,0.39-0.91,0.97-0.91h25.07c0.59,0,0.97,0.26,1.04,0.91l0.65,6.3c0.07,0.65-0.26,1.04-0.91,1.04H50.6l-0.78,8.12
		c2.53-0.52,5.07-0.84,7.67-0.78c8.51,0.26,15.39,6.56,15.07,14.94c-0.32,8.64-8.38,14.88-17.73,14.88c-5.2,0-10.33-1.88-15.07-3.96
		c-0.52-0.26-0.72-0.72-0.52-1.3L41.44,99c0.19-0.65,0.65-0.78,1.3-0.52c4.81,2.47,8.7,3.77,11.5,3.77c4.03,0,8.7-2.79,8.7-7.34
		C62.94,91.4,60.15,88.35,54.69,88.35z M98.41,101.54c3.83,0,8.12-1.49,11.95-3.38c0.65-0.32,1.1,0,1.23,0.65l0.84,5.98
		c0.06,0.52-0.13,0.97-0.65,1.23c-4.61,2.21-10.33,3.57-14.68,3.57c-11.5,0-22.35-10.2-22.35-23.13c0-12.86,10.72-22.74,23.19-22.74
		c4.16,0,7.86,0.97,12.73,3.05c0.59,0.2,0.78,0.59,0.65,1.17l-1.17,5.85c-0.13,0.71-0.58,0.91-1.23,0.65
		c-4.42-1.95-7.28-2.86-10.2-2.86c-7.8,0-14.94,6.63-14.94,15C83.79,94.72,90.42,101.54,98.41,101.54z M155.96,108.55l-7.21,0.97
		c-0.58,0.06-0.97-0.07-1.17-0.65l-4.55-11.56h-15.85l-4.55,11.56c-0.19,0.58-0.58,0.71-1.17,0.65l-7.21-0.97
		c-0.65-0.07-0.97-0.52-0.71-1.17l16.69-42.35c0.2-0.52,0.65-0.78,1.17-0.78h7.41c0.52,0,0.97,0.26,1.17,0.78l16.69,42.35
		C156.93,108.03,156.61,108.49,155.96,108.55z"/>
</g>
</svg>
