<?xml version="1.0" encoding="utf-8"?>
<!-- Generator: Adobe Illustrator 24.1.1, SVG Export Plug-In . SVG Version: 6.00 Build 0)  -->
<svg version="1.0" id="Laag_1" xmlns="http://www.w3.org/2000/svg" xmlns:xlink="http://www.w3.org/1999/xlink" x="0px" y="0px"
	 viewBox="0 0 389.17 385.73" style="enable-background:new 0 0 389.17 385.73;" xml:space="preserve">
<style type="text/css">
	.st0{fill:#FFFFFF;}
	.st1{fill:#2A7DE1;}
</style>
<path class="st0" d="M192.6,148.37c4.58,0,9.06,1.42,15.97,4.48c1.02,0.41,1.73,0.1,1.93-1.02l1.83-9.16
	c0.2-0.91-0.1-1.52-1.02-1.83c-7.63-3.25-13.43-4.78-19.94-4.78c-19.54,0-36.32,15.47-36.32,35.61c0,20.25,16.99,36.22,35,36.22
	c6.82,0,15.77-2.14,22.99-5.6c0.81-0.41,1.12-1.12,1.02-1.93l-1.32-9.36c-0.2-1.02-0.92-1.53-1.93-1.02
	c-6,2.95-12.72,5.29-18.72,5.29c-12.52,0-22.89-10.68-22.89-23.4C169.19,158.75,180.39,148.37,192.6,148.37z"/>
<path class="st0" d="M257.21,138.1c-0.3-0.82-1.02-1.22-1.83-1.22h-11.6c-0.82,0-1.53,0.41-1.83,1.22l-26.15,66.34
	c-0.41,1.02,0.1,1.73,1.12,1.83l11.29,1.53c0.92,0.1,1.53-0.1,1.83-1.02l7.12-18.11h24.83l7.12,18.11c0.3,0.91,0.92,1.12,1.83,1.02
	l11.29-1.53c1.02-0.1,1.53-0.82,1.12-1.83L257.21,138.1z M241.84,176.25l7.73-19.23l7.73,19.23H241.84z"/>
<path class="st0" d="M122.9,196.4c-4.38,0-10.48-2.04-18.01-5.9c-1.02-0.41-1.73-0.2-2.04,0.81l-3.46,9.57
	c-0.3,0.91,0,1.63,0.82,2.04c7.43,3.25,15.47,6.21,23.6,6.21c14.65,0,27.27-9.77,27.78-23.3c0.51-13.13-10.28-22.99-23.6-23.4
	c-4.07-0.1-8.04,0.41-12.01,1.22l1.22-12.72h28.39c1.02,0,1.53-0.61,1.42-1.63l-1.02-9.87c-0.1-1.02-0.71-1.43-1.63-1.43h-39.27
	c-0.92,0-1.43,0.41-1.53,1.43l-2.75,30.12c-0.1,0.91,0.2,1.42,0.81,1.93l7.02,5.5c0.61,0.51,1.22,0.61,2.04,0.3
	c3.56-1.43,8.55-2.65,12.92-2.65c8.55,0,12.92,4.78,12.92,10.28C136.53,192.02,129.21,196.4,122.9,196.4z"/>
<polygon class="st1" points="241.84,176.25 257.31,176.25 249.58,157.02 "/>
<path class="st1" d="M267.94,39.48L76.26,63.12l-36.75,189.6l168.97,93.54l141.17-131.79L267.94,39.48z M123.61,174.62
	c-4.38,0-9.36,1.22-12.92,2.65c-0.81,0.3-1.42,0.2-2.04-0.3l-7.02-5.5c-0.61-0.51-0.91-1.02-0.81-1.93l2.75-30.12
	c0.1-1.02,0.61-1.43,1.53-1.43h39.27c0.92,0,1.53,0.41,1.63,1.43l1.02,9.87c0.1,1.02-0.41,1.63-1.42,1.63H117.2l-1.22,12.72
	c3.97-0.81,7.94-1.32,12.01-1.22c13.33,0.41,24.11,10.28,23.6,23.4c-0.51,13.53-13.13,23.3-27.78,23.3c-8.14,0-16.18-2.95-23.6-6.21
	c-0.82-0.41-1.12-1.12-0.82-2.04l3.46-9.57c0.3-1.02,1.02-1.22,2.04-0.81c7.53,3.87,13.63,5.9,18.01,5.9
	c6.31,0,13.63-4.38,13.63-11.5C136.53,179.4,132.16,174.62,123.61,174.62z M192.09,195.28c6,0,12.72-2.34,18.72-5.29
	c1.02-0.51,1.73,0,1.93,1.02l1.32,9.36c0.1,0.81-0.2,1.52-1.02,1.93c-7.22,3.46-16.18,5.6-22.99,5.6c-18.01,0-35-15.97-35-36.22
	c0-20.15,16.79-35.61,36.32-35.61c6.51,0,12.31,1.53,19.94,4.78c0.92,0.31,1.22,0.92,1.02,1.83l-1.83,9.16
	c-0.2,1.12-0.91,1.43-1.93,1.02c-6.92-3.05-11.4-4.48-15.97-4.48c-12.21,0-23.4,10.38-23.4,23.5
	C169.19,184.59,179.57,195.28,192.09,195.28z M282.24,206.27l-11.29,1.53c-0.91,0.1-1.53-0.1-1.83-1.02l-7.12-18.11h-24.83
	l-7.12,18.11c-0.3,0.91-0.91,1.12-1.83,1.02l-11.29-1.53c-1.02-0.1-1.53-0.82-1.12-1.83l26.15-66.34c0.31-0.82,1.02-1.22,1.83-1.22
	h11.6c0.81,0,1.53,0.41,1.83,1.22l26.15,66.34C283.76,205.45,283.25,206.16,282.24,206.27z"/>
</svg>
