<?xml version="1.0" encoding="utf-8"?>
<!-- Generator: Adobe Illustrator 24.0.1, SVG Export Plug-In . SVG Version: 6.00 Build 0)  -->
<svg version="1.1" id="Laag_1" xmlns="http://www.w3.org/2000/svg" xmlns:xlink="http://www.w3.org/1999/xlink" x="0px" y="0px"
	 viewBox="0 0 405.2 400.3" style="enable-background:new 0 0 405.2 400.3;" xml:space="preserve">
<style type="text/css">
	.st0{clip-path:url(#SVGID_2_);}
	.st1{clip-path:url(#SVGID_4_);fill:#266EFF;}
	.st2{clip-path:url(#SVGID_4_);}
	.st3{clip-path:url(#SVGID_6_);fill:#266EFF;}
</style>
<g>
	<defs>
		<rect id="SVGID_1_" width="405.2" height="400.3"/>
	</defs>
	<clipPath id="SVGID_2_">
		<use xlink:href="#SVGID_1_"  style="overflow:visible;"/>
	</clipPath>
	<g class="st0">
		<defs>
			<rect id="SVGID_3_" y="0" width="405.2" height="400.3"/>
		</defs>
		<clipPath id="SVGID_4_">
			<use xlink:href="#SVGID_3_"  style="overflow:visible;"/>
		</clipPath>
		<polygon class="st1" points="264.3,178.5 284.4,178.5 274.4,153.4 		"/>
		<g class="st2">
			<defs>
				<rect id="SVGID_5_" y="0" width="405.2" height="400.4"/>
			</defs>
			<clipPath id="SVGID_6_">
				<use xlink:href="#SVGID_5_"  style="overflow:visible;"/>
			</clipPath>
			<path class="st3" d="M317,217.7l-14.7,2c-1.2,0.1-2-0.1-2.4-1.3l-9.3-23.6h-32.4l-9.3,23.6c-0.4,1.2-1.2,1.4-2.4,1.3l-14.7-2
				c-1.3-0.1-2-1.1-1.5-2.4l34.1-86.6c0.4-1.1,1.3-1.6,2.4-1.6h15.1c1.1,0,2,0.5,2.4,1.6l34.1,86.6C319,216.6,318.3,217.6,317,217.7
				z M226.7,212.5c-9.4,4.5-21.1,7.3-30,7.3c-23.5,0-45.7-20.8-45.7-47.3c0-26.3,21.9-46.5,47.4-46.5c8.5,0,16.1,2,26,6.2
				c1.2,0.4,1.6,1.2,1.3,2.4l-2.4,12c-0.3,1.5-1.2,1.9-2.5,1.3c-9-4-14.9-5.8-20.8-5.8c-15.9,0-30.5,13.6-30.5,30.7
				c0,16.6,13.5,30.5,29.9,30.5c7.8,0,16.6-3.1,24.4-6.9c1.3-0.7,2.3,0,2.5,1.3L228,210C228.1,211,227.7,212,226.7,212.5z
				 M146.5,191c-0.7,17.7-17.1,30.4-36.3,30.4c-10.6,0-21.1-3.9-30.8-8.1c-1.1-0.5-1.5-1.5-1.1-2.7l4.5-12.5
				c0.4-1.3,1.3-1.6,2.7-1.1c9.8,5.1,17.8,7.7,23.5,7.7c8.2,0,17.8-5.7,17.8-15c0-7.2-5.7-13.4-16.9-13.4c-5.7,0-12.2,1.6-16.9,3.5
				c-1.1,0.4-1.9,0.3-2.7-0.4l-9.2-7.2c-0.8-0.7-1.2-1.3-1.1-2.5l3.6-39.3c0.1-1.3,0.8-1.9,2-1.9h51.2c1.2,0,2,0.5,2.1,1.9l1.3,12.9
				c0.1,1.3-0.5,2.1-1.9,2.1h-37l-1.6,16.6c5.2-1.1,10.4-1.7,15.7-1.6C133.1,161,147.2,173.9,146.5,191z M298.3,0L48.2,30.8
				l-48,247.5l220.5,122.1l184.2-172L298.3,0z"/>
		</g>
	</g>
</g>
</svg>
