<?xml version="1.0" encoding="utf-8"?>
<svg xmlns="http://www.w3.org/2000/svg" xmlns:xlink="http://www.w3.org/1999/xlink" width="526.625" height="539.138" viewBox="0 0 526.625 539.138"><defs><style>.a,.l,.t{fill:#226bff;}.b,.d,.e,.f,.k,.o{fill:#fff;}.c{fill:#1f0a4f;}.d,.e,.f,.h,.i,.j,.k,.l,.p,.q,.r,.t,.u,.v,.w,.x{stroke:#1f0a4f;}.d,.e,.f{stroke-linejoin:bevel;}.d{stroke-width:0.571px;}.e{stroke-width:0.316px;}.f,.q{stroke-width:0.279px;}.g,.o{opacity:0.15;}.h,.j,.p,.q,.r,.s,.u,.x{fill:#ff8864;}.h,.i,.j,.k,.l,.p,.q,.r,.t,.u,.v,.w,.x,.y,.z{stroke-miterlimit:10;}.h{stroke-width:0.31px;}.i,.n,.v,.w,.y,.z{fill:none;}.i{stroke-width:0.149px;}.j{stroke-width:0.36px;}.k{stroke-width:0.484px;}.l{stroke-width:0.391px;}.m{opacity:0.5;}.p{stroke-width:0.397px;}.r{stroke-width:0.378px;}.t{stroke-width:0.732px;}.u{stroke-width:0.174px;}.v{stroke-linecap:round;stroke-width:0.062px;}.w{stroke-width:0.447px;}.x{stroke-width:0.304px;}.y,.z{stroke:#226bff;}.y{stroke-width:0.403px;}.z{stroke-width:0.44px;}.aa{fill:url(#a);}.ab{fill:url(#b);}</style><linearGradient id="a" x1="0.349" y1="0.606" x2="0.766" y2="-3.394" gradientUnits="objectBoundingBox"><stop offset="0.04" stop-color="#fff"/><stop offset="0.22" stop-color="#fdfdfe"/><stop offset="0.32" stop-color="#f5f5fd"/><stop offset="0.4" stop-color="#e7e7f9"/><stop offset="0.46" stop-color="#d4d4f5"/><stop offset="0.53" stop-color="#bbbbef"/><stop offset="0.58" stop-color="#9c9ce8"/><stop offset="0.63" stop-color="#7777df"/><stop offset="0.68" stop-color="#4c4cd5"/><stop offset="0.73" stop-color="#1d1dca"/><stop offset="0.74" stop-color="#0c0cc6"/></linearGradient><linearGradient id="b" x1="-1.049" y1="1.054" x2="2.147" y2="-0.359" gradientUnits="objectBoundingBox"><stop offset="0.04" stop-color="#fff"/><stop offset="0.4" stop-color="#fdfdff"/><stop offset="0.53" stop-color="#f6f6fd"/><stop offset="0.62" stop-color="#ebebfa"/><stop offset="0.7" stop-color="#dadaf6"/><stop offset="0.76" stop-color="#c4c4f1"/><stop offset="0.82" stop-color="#a8a8eb"/><stop offset="0.87" stop-color="#8888e3"/><stop offset="0.92" stop-color="#6262da"/><stop offset="0.96" stop-color="#3939d1"/><stop offset="1" stop-color="#0c0cc6"/></linearGradient></defs><g transform="translate(-27.8 -25)"><g transform="translate(27.8 25)"><g transform="translate(0 1.576)"><path class="a" d="M554.425,313.312,476,402.775,340.622,557.067l-1.478,1.675-4.828,5.419-113.7-48.869-1.084-.493-95.374-40.987-.3-.1L51.84,442.776,27.8,432.431,58.343,100.2,383.875,26.6l10.05,17.045,23.252,38.918L476,181.484Z" transform="translate(-27.8 -26.6)"/></g><g transform="translate(24.632 10.148)"><path class="b" d="M296.9,104.194l2.463-1.379.493-2.168,5.32,9.557,1.971-1.182-6.8-11.922-2.463,1.379Z" transform="translate(-56.397 -36.211)"/><path class="c" d="M279.023,118.6l-5.123,9.064,6.306,3.547,5.123-9.064Zm.69,10.444-3.744-2.069,3.547-6.207,3.744,2.069Z" transform="translate(-56.058 -36.527)"/><path class="b" d="M333.4,79.1l-6.8,6.8,4.729,4.729,6.9-6.8Zm-1.971,9.557L328.669,85.9l4.631-4.631,2.759,2.759Z" transform="translate(-56.834 -35.945)"/><path class="c" d="M279.2,49.14,285.112,52l1.971-4.04L281.171,45.1Zm6.5-.887-1.182,2.365-4.04-1.872,1.182-2.365Z" transform="translate(-56.136 -35.444)"/><path class="c" d="M334.1,140.376l-3.054,3.153c-.1,1.281-.2,2.66-.2,3.941.493,1.084.985,2.266,1.379,3.35l3.251,1.971,3.744-.1,3.744-2.069a1.753,1.753,0,0,1,.788.69c.591,1.379-1.971,4.434-5.025,5.517a7.577,7.577,0,0,1-4.434.2,8.767,8.767,0,0,1-5.32-3.645,10.162,10.162,0,0,1-1.675-5.419c-.2-1.971-.493-4.926,1.379-7.291.394-.394,1.872-2.266,3.645-1.872A2.584,2.584,0,0,1,334.1,140.376Z" transform="translate(-56.842 -36.824)"/><path class="d" d="M347.478,137.422l4.237-7.094-7.981-4.828-4.335,7.094-9.853.887-5.123-6.01-7,6.109,5.123,6.01-2.266,9.656L312.6,152.4l3.547,8.572,7.685-3.153,8.572,5.123.69,8.178,9.262-.788-.591-8.276,7.291-6.4,8.079,1.872,2.168-9.064-8.079-1.872C349.942,143.53,348.759,140.476,347.478,137.422Zm-4.335,9.36-1.084,4.434-3.448,2.956-4.532.394-3.941-2.365-1.773-4.237,1.084-4.434,3.448-2.956,4.532-.394,3.941,2.365Z" transform="translate(-56.628 -36.629)"/><path class="c" d="M312.5,152.706c.2-.985.493-1.872.69-2.857l7.685-3.448-.69,3.054Z" transform="translate(-56.626 -36.937)"/><path class="c" d="M351.589,127.923c.1.788.2,1.675.3,2.463L344,125.46c-.591.985-1.281,1.971-1.872,2.956-.887,1.379-1.675,2.759-2.463,4.04l-10.05.788-5.123-6.01-7.094,6.109.788-3.941,6.8-5.813,5.912,7.094,7.882-.69,4.631-7.192Z" transform="translate(-56.699 -36.589)"/><path class="c" d="M359.922,148.611l-.788-2.168-6.4-1.478c-1.281-2.956-2.463-6.01-3.744-8.966L348,137.576l3.842,9.163Z" transform="translate(-57.149 -36.784)"/><path class="c" d="M342.89,170.767c.2-.591.493-1.182.69-1.773l-.591-7.094-.788.788C342.5,165.348,342.693,168.009,342.89,170.767Z" transform="translate(-57.064 -37.165)"/><path class="b" d="M54.1,448.171V406.1c12.316,3.054,24.927,6.6,37.046,10.148,10.739,3.054,21.873,6.306,32.809,9.064v52.909Z" transform="translate(-52.819 -40.763)"/><path class="c" d="M55.265,407.653c11.823,2.956,23.843,6.4,35.47,9.754,10.444,2.956,21.282,6.109,31.923,8.867v50.15L55.265,447.359V407.653M52.9,404.5v44.435l72.023,30.937.3.1V424.205C101.277,418.1,77.236,410.313,53.2,404.5Z" transform="translate(-52.801 -40.74)"/><path class="c" d="M124.823,366,52.8,404.13c24.04,6.01,47.982,13.892,72.023,19.9Z" transform="translate(-52.8 -40.172)"/><path class="a" d="M109.094,412.875S88.3,418.491,82,407.751c-.591-1.478,2.266-2.168,4.729-3.251l17.045,4.335Z" transform="translate(-53.229 -40.74)"/><path class="c" d="M378.7,38.354l1.379-.493.394-.985,1.675,5.025.985-.3L381.065,35.3l-1.379.394Z" transform="translate(-57.602 -35.3)"/><path class="b" d="M341,47.557l2.365.591,1.478-.985-2.463,8.867,1.773.493,3.153-11.134-2.266-.69Z" transform="translate(-57.046 -35.438)"/><path class="c" d="M221.672,63.5l-.1,2.463,1.379,1.773,1.773.887,2.069-.394,1.478-1.478.788-2.266a.628.628,0,0,1,.591,0c.788.394.788,2.562,0,4.237a4.565,4.565,0,0,1-5.123,2.266,5.843,5.843,0,0,1-2.66-1.675,5.311,5.311,0,0,1-2.069-3.547c0-.3-.1-1.675.788-2.168A1.307,1.307,0,0,1,221.672,63.5Z" transform="translate(-55.26 -35.715)"/><path class="e" d="M226.1,57.131,225.31,52.5l-4.926,1.084.887,4.532-3.744,4.138-4.237-.493-.69,5.222,4.237.493L219.4,72.4l-1.971,4.237,4.532,2.168,1.971-4.237,5.32-1.084,3.251,3.153,3.448-3.843L232.7,69.545l.69-5.517,3.941-2.266-2.463-4.532L230.926,59.5Zm1.675,5.419,1.182,2.266-.3,2.562-1.675,1.872-2.463.493-2.266-1.084-1.182-2.266.3-2.562,1.675-1.872,2.463-.493Z" transform="translate(-55.154 -35.553)"/><path class="c" d="M217.488,76.913l-.788-1.478c.591-1.478,1.281-2.857,1.872-4.335l.788,1.576Z" transform="translate(-55.215 -35.827)"/><path class="c" d="M224.3,51.6l.985.887-5.025.985c.1.69.2,1.281.3,1.971.2.887.3,1.773.493,2.66l-3.843,4.138-4.237-.493-.69,5.222L211.2,65l.788-5.123,4.926.69,2.956-3.251-.69-4.729Z" transform="translate(-55.134 -35.54)"/><path class="c" d="M235.166,57.184l-1.084-.591-3.153,1.773L226.2,56.1l.2,1.084,4.926,2.365Z" transform="translate(-55.355 -35.606)"/><path class="c" d="M236.351,72.844l-.394-.985L233.2,69.1l-.1.591Z" transform="translate(-55.456 -35.798)"/><path class="c" d="M151.5,111.473l1.773.788,1.281-.69-2.857,6.6,1.379.591,3.547-8.375-1.675-.69Z" transform="translate(-54.254 -36.396)"/><path class="b" d="M191.776,128.9l-1.576,8.079,5.518,1.084,1.576-8.079Zm3.153,7.685-3.35-.591,1.084-5.518,3.35.69Z" transform="translate(-54.824 -36.679)"/><path class="c" d="M295.582,170.825l.985-1.576-.493-1.281,5.912,3.547.69-1.182-7.39-4.532-.887,1.478Z" transform="translate(-56.36 -37.223)"/><path class="b" d="M253.584,71.5,245.8,73.963l1.773,5.419,7.882-2.562Zm-5.222,6.4-.985-3.251,5.32-1.675.985,3.251Z" transform="translate(-55.644 -35.833)"/><path class="c" d="M131.6,208.939s-5.32-.394-6.6-3.054a.72.72,0,0,1,.394-.985.766.766,0,0,1,.788.2C127.856,206.771,130.319,209.235,131.6,208.939Z" transform="translate(-53.863 -37.798)"/><path class="c" d="M129.085,209.291s-1.872-4.434-.493-6.9a.793.793,0,0,1,1.084-.3.96.96,0,0,1,.394.887C129.184,205.251,128.3,208.4,129.085,209.291Z" transform="translate(-53.909 -37.756)"/><path class="b" d="M244.176,154.391l1.281,1.084,1.281-.2L242.6,160.2l.985.788,5.222-6.109-1.182-1.084Z" transform="translate(-55.596 -37.046)"/><path class="b" d="M224.1,201.156l4.335,9.557,6.6-2.956L230.8,198.2Zm8.867,5.715-3.941,1.773-2.956-6.5,3.941-1.773Z" transform="translate(-55.324 -37.7)"/><path class="c" d="M151.628,184.5l-4.828,3.251,2.266,3.35,4.828-3.251Zm-2.266,5.419-1.379-1.971,3.251-2.266,1.379,1.971Z" transform="translate(-54.185 -37.498)"/><path class="c" d="M197.5,191.151l2.168.1,1.182-1.182-.493,8.375,1.675.1.69-10.542-2.168-.1Z" transform="translate(-54.932 -37.548)"/><path class="c" d="M79.6,134.785c.69.2.493.493,1.182.69.493-.3,1.675-.591,2.168-.887l.591-1.576-.394-2.069-1.182-1.773-1.872-1.182c0-.2,1.478-.394,1.576-.591.3-.69,2.069-.2,3.35.985A6.428,6.428,0,0,1,86.6,130.45a5.936,5.936,0,0,1,.493,3.448,3.648,3.648,0,0,1-1.182,2.168,2.955,2.955,0,0,1-2.759,1.182,2.527,2.527,0,0,1-1.773-1.182C80.979,135.573,79.5,135.08,79.6,134.785Z" transform="translate(-53.195 -36.652)"/><path class="f" d="M78.626,123.923l-3.153-3.547L73.7,124.12l3.153,3.547c.2,1.872.493,3.843.69,5.715l-2.365,1.971,2.857,4.926,2.365-1.971,2.365,1.576,1.379,4.138,4.138-.69-.788-3.547a20.828,20.828,0,0,1,2.562-3.448l2.463.493-.2-4.729-2.956-1.182L86.41,125.7l.493-4.237-3.941-2.66-.591,4.237Zm4.138,3.941,1.971,1.281,1.379,2.463.3,2.66-.887,1.872-1.773.3-1.971-1.281L80.4,132.692l-.3-2.66.887-1.872Z" transform="translate(-53.108 -36.53)"/><path class="c" d="M71.271,120.3c.394.1,3.941-.1,4.237,0l-1.872,3.744c.394.493.887.985,1.379,1.576.591.69,1.182,1.379,1.872,2.069.2,1.971.394,3.842.69,5.813l-2.365,1.971,2.857,4.926c-.591-.394-4.335-.493-4.926-.887l-2.759-4.828,2.759-2.168-.591-4.631L69.3,124.142Z" transform="translate(-53.043 -36.552)"/><path class="c" d="M83.022,118.9c-.3,0-2.463.1-2.759.1-.1,1.084-.394,3.35-.394,3.35l-2.069.493a8.975,8.975,0,0,1,.985.985l3.744-.69C82.726,121.757,82.825,120.378,83.022,118.9Z" transform="translate(-53.168 -36.532)"/><path class="c" d="M84.219,144.513l-3.153-.2-1.182-3.645-1.084-.69,1.675-1.281,2.365,1.576Z" transform="translate(-53.183 -36.823)"/><path class="c" d="M92.744,137.291l-1.576,1.379L89,138.178l1.281-1.478Z" transform="translate(-53.333 -36.794)"/><path class="b" d="M108.7,158.316l1.773-1.281.1-1.576,4.729,6.6,1.379-.985-5.912-8.375L109,153.981Z" transform="translate(-53.624 -37.03)"/><path class="b" d="M89.2,96.137l6.207,5.32,3.645-4.237L92.845,91.9Zm8.079,1.084-2.168,2.562-4.237-3.645,2.168-2.562Z" transform="translate(-53.336 -36.134)"/><path class="c" d="M71.269,180.1,69.2,186.9l4.631,1.379,2.069-6.8Zm2.069,6.8-2.759-.887,1.379-4.631,2.759.788Z" transform="translate(-53.042 -37.433)"/></g><g transform="translate(123.454 1.576)"><g class="g" transform="translate(0)"><path class="b" d="M153.1,206.805,207.585,66.7,385.032,26.6l17.932,30.149-239.42,173.7Z" transform="translate(-153.1 -26.6)"/></g></g><g transform="translate(41.208 175.396)"><path class="h" d="M83.69,293.472a23.414,23.414,0,0,1-1.084-3.744,5.018,5.018,0,0,0-.69-1.675c-2.562-5.222-9.656-3.35-10.739,1.281-1.281,5.518-1.872,12.513-1.379,13.6s1.773.3,1.773.3a12.106,12.106,0,0,0-.2,2.66c.1.887,1.675,1.281,2.66.1a5.831,5.831,0,0,0-.1,1.872c.493,1.379,2.562,1.084,2.956-.1a12.672,12.672,0,0,0,.394-1.872,2.91,2.91,0,0,0,.2,1.281,1.316,1.316,0,0,0,1.971.1,2.149,2.149,0,0,0,.394-.493c.985-1.576.985-10.641.985-10.641a12.092,12.092,0,0,1,1.182,2.562,2.418,2.418,0,0,0,3.35,1.576C86.547,299.581,85.069,296.231,83.69,293.472Z" transform="translate(-69.625 -204.225)"/><path class="c" d="M71.5,303.516l.985-5.616-.69,5.616Z" transform="translate(-69.652 -204.416)"/><path class="c" d="M74.1,306.284l1.379-7.784L74.4,306.284Z" transform="translate(-69.69 -204.425)"/><path class="c" d="M77.3,306.389,78.187,299l-.69,7.389Z" transform="translate(-69.738 -204.433)"/><path class="i" d="M80.778,296.2s-1.576,2.562-8.178,1.281" transform="translate(-69.668 -204.391)"/><path class="j" d="M161.7,239.4s6.207.69,9.754,10.542c0,0,.493,9.262-3.941,10.148l-6.01-4.138.394-1.872s-1.182-2.759.394-4.138" transform="translate(-70.978 -203.554)"/><path class="c" d="M151.134,206.968l8.572-2.168,8.079,7,2.463,11.429-4.631,9.754-8.572,1.478-7.882-6.7L146.7,216.426Z" transform="translate(-70.76 -203.045)"/><path class="c" d="M157.1,230.494l5.32,29.657,3.547-.69L159.76,230.1Z" transform="translate(-70.913 -203.417)"/><path class="b" d="M160.075,236l3.547,16.651-2.168.394L158.4,236.3Z" transform="translate(-70.933 -203.504)"/><path class="j" d="M170.632,251.3s5.715,12.71,6.5,19.213-11.035,2.956-11.035,2.956l1.182-16.454" transform="translate(-71.046 -203.73)"/><path class="k" d="M148.634,207.571,157.4,205.6l7.981,6.7,2.463,11.429-4.434,9.36-8.769,1.872-7.981-6.7L144.2,216.931Z" transform="translate(-70.723 -203.056)"/><path class="l" d="M150.147,210.078l7.094-1.478,6.306,5.32,1.971,9.163-3.547,7.587-7,1.478-6.4-5.32-1.971-9.163Z" transform="translate(-70.759 -203.101)"/><g class="m" transform="translate(80.866 5.499)"><path class="n" d="M163.4,228.244l.394.591,5.123-2.266-3.843-8.769-.394.2,1.084,5.222Z" transform="translate(-151.872 -208.736)"/><path class="b" d="M160.362,221.338l4.335-1.971L164.2,217.2l-6.4,2.857v.2l4.434,9.951,1.084-2.365Z" transform="translate(-151.79 -208.727)"/><path class="c" d="M154.262,211.063l1.379-1.379-.591,9.656,1.971.1v-.394l-.1-.2h.1l.591-9.951-.3-.3-4.237.887-1.379,1.379Z" transform="translate(-151.7 -208.6)"/><path class="c" d="M157.1,219.2V219H157Z" transform="translate(-151.778 -208.753)"/></g><path class="c" d="M152.019,209.5l-4.138,8.375,2.069,8.276,6.8,5.616-2.168.394-6.01-5.32-1.971-9.163,3.843-8.178Z" transform="translate(-70.759 -203.114)"/><path class="o" d="M148.571,226.827l12.71-14.878-4.04-3.35-7.291.887-3.35,8.178Z" transform="translate(-70.759 -203.101)"/><path class="c" d="M145.2,403.994s6.4-1.675,9.557,2.069-9.459,1.379-9.459,1.379Z" transform="translate(-70.738 -205.974)"/><path class="p" d="M94.607,387.8l10.05,4.138a.72.72,0,0,1,.394.985l-5.123,12.316a.72.72,0,0,1-.985.394l-10.05-4.138a.72.72,0,0,1-.394-.985l5.123-12.316A.693.693,0,0,1,94.607,387.8Z" transform="translate(-69.901 -205.74)"/><path class="c" d="M89.2,398.685l14.286-2.857L92.451,391Z" transform="translate(-69.913 -205.788)"/><path class="q" d="M146.159,220.9l-.2,6.6s-1.182.985-2.562-.788" transform="translate(-70.712 -203.282)"/><path class="r" d="M133.389,397h10.936a.673.673,0,0,1,.69.69v12.02a.674.674,0,0,1-.69.69H133.389a.673.673,0,0,1-.69-.69V397.69C132.6,397.3,133,397,133.389,397Z" transform="translate(-70.554 -205.877)"/><path class="c" d="M132.6,408.815l12.119-5.518-12.119-.2Z" transform="translate(-70.552 -205.966)"/><path class="c" d="M102.578,399.4s6.4.985,7.784,5.518-9.261-2.168-9.261-2.168Z" transform="translate(-70.088 -205.912)"/><path class="q" d="M129.747,226.6l-1.182,8.178s-13.794.887-15.764,10.05l9.951,32.415s31.43-37.243,17.538-40.692l.985-6.4Z" transform="translate(-70.261 -203.366)"/><path class="q" d="M128.69,217.77s-3.153,11.429,4.335,13.794c11.232,3.547,10.345,4.04,13.1-12.02,1.576-9.262-7.587-12.02-12.907-9.656C129.183,211.563,128.69,217.77,128.69,217.77Z" transform="translate(-70.485 -203.108)"/><path class="c" d="M140.095,223s-1.084,7.882.493,6.109" transform="translate(-70.657 -203.313)"/><path class="s" d="M129.8,230.381l.2-1.281s8.079,2.069,9.261,1.576c1.281-.394-.1,3.843-.1,3.843l-6.5-1.182Z" transform="translate(-70.511 -203.403)"/><path class="c" d="M141.654,222.509l-3.843,3.251-1.675,3.941c-2.857,1.281-4.926-.2-6.9-1.872a10.042,10.042,0,0,1-1.773-7.981c-1.576-.1-5.419-9.656,3.054-14.089.591-.3,2.266-1.872,3.941-1.182,1.675.788,4.828-3.054,7-.887,0,0,4.532-1.182,7.587,2.266s7.587,6.5,3.35,10.444c-3.547,3.35-7,4.828-6.9.788,0,0,.493,5.025-2.562,1.971,0,0,1.576,5.123-.493,6.8C142.147,226.548,141.753,223,141.654,222.509Z" transform="translate(-70.444 -203.018)"/><path class="t" d="M144.621,307.14c-.2-5.517-3.547-11.626-8.867-10.542l-2.66.493A8.837,8.837,0,0,0,126,306.549l4.335,50.741c0,.3.1.69.1.985l-.985,37.736c0,3.744,3.448,7,8.079,7.488h0c5.025.591,9.36-2.365,9.656-6.4l.887-41.283C148.168,354.926,144.621,307.14,144.621,307.14Z" transform="translate(-70.455 -204.395)"/><path class="u" d="M141.971,223.163s-.1-3.448-.788-2.168a12.343,12.343,0,0,0-1.182,5.32l.2,2.069s.493,2.168,1.182-1.182" transform="translate(-70.661 -203.279)"/><path class="v" d="M141.1,224.474s.2-2.956.3-1.182a9.925,9.925,0,0,1-.1,2.956s0-2.266-.3-.69" transform="translate(-70.676 -203.309)"/><path class="t" d="M113.765,294.9l-2.759.2a8.927,8.927,0,0,0-8.375,8.375l-.591,50.84v.2c0,.3-.1.591-.1.887L91.4,387.022a8.129,8.129,0,0,0,7.587,8.572l1.872.1a8.129,8.129,0,0,0,8.572-7.587l10.542-30.543a13.2,13.2,0,0,0-.1-1.971l3.153-50.84A8.925,8.925,0,0,0,115.145,295,6.058,6.058,0,0,0,113.765,294.9Z" transform="translate(-69.945 -204.372)"/><path class="w" d="M112.3,263.19s11.232,12.907,18.72-.69" transform="translate(-70.253 -203.895)"/><path class="c" d="M148.68,247.354s-.3-8.079-10.247-11.725a9.166,9.166,0,0,0-2.365-.493l-2.463-.1s-9.261-4.434-14.385-4.138c-2.956.2-.394,4.04-4.434,5.616-3.153,1.182-7.488,7.192-7.784,12.119-.3,4.434-5.222,19.213-6.207,34.09a187.432,187.432,0,0,0,1.872,36.159c9.557,7.291,23.449,6.306,44.731,0l-3.251-20.1c-.887-7.094-5.912-8.67-1.379-21.676Z" transform="translate(-70.08 -203.429)"/><path class="c" d="M132.5,417.807c2.168,1.182,5.222,1.478,9.557.591l14.582-4.434s.985-13.794-9.754-7.389a20.139,20.139,0,0,1-14.385.985Z" transform="translate(-70.551 -205.993)"/><path class="c" d="M85.5,407.26c1.478,1.97,4.237,3.35,8.473,4.138l15.075,1.576s6.109-12.316-6.109-10.542a20.108,20.108,0,0,1-13.6-4.532Z" transform="translate(-69.858 -205.89)"/><path class="x" d="M157.189,238.4a1.655,1.655,0,0,1,2.365,1.773c0,1.675-.985,1.675-.985,1.675s3.645,1.379,1.182,3.843c0,0,2.266,1.773.394,3.645,0,0,1.971.985.493,3.251,0,0-2.956.394-2.069-3.054,0,0-2.562-1.872-.493-3.646,0,0-2.168-3.054-.69-3.842C157.484,242.142,155.317,239.679,157.189,238.4Z" transform="translate(-70.903 -203.538)"/><path class="c" d="M127.888,329.367,146.9,320.5l-19.8,1.971Z" transform="translate(-70.471 -204.749)"/><path class="c" d="M171.257,248.8s15.764,43.45-2.069,42.268c-13.991-.887-4.138-34.583-4.138-34.583S171.946,251.46,171.257,248.8Z" transform="translate(-70.981 -203.693)"/><path class="j" d="M166.589,253.544c-3.843-1.872-1.675-5.123-1.675-5.123-7.389-2.759-6.4-5.32-3.843-5.32,1.773,0,4.532,2.168,4.532,2.168" transform="translate(-70.944 -203.609)"/><path class="c" d="M135.553,235.7l3.448-.2a15.693,15.693,0,0,1,9.459,4.828c5.025,5.419,14.188,16.454,26.307,36.159,0,0,5.123,38.425-33.5-8.769l-8.867-20,3.645-8.079" transform="translate(-70.549 -203.497)"/><path class="y" d="M127.6,324.938a113.862,113.862,0,0,0,19.114-4.138" transform="translate(-70.479 -204.754)"/><line class="z" x1="3.054" y1="3.448" transform="translate(76.137 70.625)"/><path class="z" d="M166.1,264.2l5.419,7.685-.493-3.843" transform="translate(-71.046 -203.92)"/><path class="c" d="M93.074,264.764,82.729,288.411S71.2,293.337,71.3,283.879c0,0,4.335-20.3,6.5-24.336C83.419,248.508,93.074,264.764,93.074,264.764Z" transform="translate(-69.649 -203.795)"/><path class="c" d="M128.954,237.208s-7.784-23.154-49.854,20.2l13.991,7.488Z" transform="translate(-69.764 -203.431)"/></g><g transform="translate(95.472)"><path class="aa" d="M125.9,477.4v-147c17.538,3.251,35.371,6.7,52.515,10.05,13.7,2.66,27.784,5.419,41.677,8.079V517.995Z" transform="translate(-124.718 -29.5)"/><path class="c" d="M127.163,331.856c17.045,3.153,34.386,6.5,51.135,9.754,13.3,2.562,27.095,5.32,40.691,7.882V516.1l-91.827-39.509V331.856M124.7,328.9V478.168l.3.1,95.374,40.987,1.084.493V347.423c-32.12-6.01-64.239-12.611-96.359-18.523Z" transform="translate(-124.7 -29.478)"/><path class="c" d="M220.566,281.2,124.7,328.394c31.824,5.813,63.747,12.907,95.571,18.72C220.369,325.635,220.468,302.777,220.566,281.2Z" transform="translate(-124.7 -28.775)"/><path class="ab" d="M344.4,76.9q38.278,3.843,76.654,7.685l4.04.394,53.7,5.32V403.023L344.4,556.232Z" transform="translate(-127.937 -25.765)"/><path class="c" d="M345.663,78.16c25.124,2.562,50.15,5.025,75.274,7.488l4.828.493,51.825,5.222V402.51L345.663,552.96V78.16M343.2,75.5V559.463l1.478-1.675L479.955,403.5V89.2l-58.82-5.912L343.2,75.5Z" transform="translate(-127.919 -25.744)"/><path class="c" d="M558.481,33.473,430.593,25,343.2,74.756c11.823,1.182,22.366,3.547,33.893,4.926,33.2,3.941,66.8,7.389,100.6,10.739C503.9,72.1,532.371,51.8,558.481,33.473Z" transform="translate(-127.919 -25)"/><path class="c" d="M560.387,33.6q0,139.957-.1,279.914l-78.427,89.364c0-1.182-1.576-.887-1.576-2.069V90.056L472.6,88.578,535.46,33.6Z" transform="translate(-129.826 -25.127)"/><path class="a" d="M223,517.017V230.6l118.232,17.538.394.1V559.679l-5.419,6.109Z" transform="translate(-126.148 -28.029)"/><path class="c" d="M224.163,231.957l58.525,8.67,57.638,8.572V559.066l-.887.985-3.645,4.138L224.065,516.207V231.957M221.7,229.1V517.783l1.084.493,113.8,48.869,4.828-5.517,1.478-1.675V247.032l-1.478-.2L221.7,229.1Z" transform="translate(-126.129 -28.007)"/><path class="c" d="M341.41,180.143,315.2,176.3l-93.5,52.121,119.71,17.735Z" transform="translate(-126.129 -27.229)"/></g></g></g></svg>
