<?xml version="1.0" encoding="utf-8"?>
<svg xmlns="http://www.w3.org/2000/svg" width="568" height="555.785" viewBox="0 0 568 555.785"><defs><style>.a,.c,.k,.l,.q,.s{fill:#fff;}.a,.b,.c,.d,.e,.g,.i,.j,.k,.l,.m,.n,.q,.r,.s,.t,.y{stroke:#1f0a4f;}.a,.b,.c,.d,.e,.g,.h,.i,.j,.k,.l,.m,.n,.o,.p,.q,.r,.s,.t,.u,.v,.x,.y{stroke-miterlimit:10;}.a{stroke-width:0.995px;}.b,.e,.f,.r{fill:#1f0a4f;}.b{stroke-width:0.984px;}.c,.v{stroke-width:2px;}.d,.i,.j,.m{fill:#ff8864;}.d,.e,.g,.l,.o,.u,.y{stroke-width:1.557px;}.g,.h,.n,.o,.p,.t,.u,.v,.x,.y{fill:none;}.g,.m,.n,.o,.p{stroke-linecap:round;stroke-linejoin:round;}.h,.v,.x{stroke:#226bff;}.h{stroke-width:3px;}.i,.k{stroke-width:1.601px;}.j{stroke-width:1.752px;}.l{stroke-linejoin:bevel;}.m,.n{stroke-width:2.919px;}.o,.p,.u{stroke:#fff;}.p{stroke-width:1.344px;}.q{stroke-width:1.598px;}.r,.s,.t{stroke-width:1.058px;}.w{fill:#226bff;}.x{stroke-width:1.162px;}</style></defs><g transform="translate(0 -8.222)"><g transform="translate(261.794 77.294)"><g transform="translate(4.224)"><path class="a" d="M299.89,116.7l8.563,1.37,4.681,9.7-1.941,12.445-7.535,7.764-8.563-1.37-4.8-9.7,2.055-12.445Z" transform="translate(-290.3 -116.7)"/></g><g transform="translate(0)"><path class="b" d="M296.076,116.7l8.563,1.37,3.083,9.476-1.941,12.216-5.823,7.535-8.563-1.37-4.8-9.476,1.941-12.216Z" transform="translate(-286.6 -116.7)"/></g></g><path class="c" d="M217.85,410.435q-3.425,75.7-6.85,151.5c18.267.571,36.535,1.256,54.8,1.827a1025.5,1025.5,0,0,1,25-156.757c5.024,15.641,6.279,32.31,7.535,48.637,2.74,36.306,5.594,72.613,8.335,108.919,20.551.571,41.216,1.256,61.766,1.827a1261.749,1261.749,0,0,0-9.7-155.386c-1.027-7.764-2.055-15.641-3.083-23.405-.685-4.681-1.256-9.362-1.941-13.929a4.345,4.345,0,0,0-.571-1.713,2.807,2.807,0,0,0-1.941-.571q-64.221-1.713-128.328.685Z" transform="translate(-35.519 -3.416)"/><path class="d" d="M301.953,197.741H255.6l3.539-44.641h39.275Z" transform="translate(-29.199 -34.248)"/><path class="d" d="M311.135,143.022c-1.484,18.724-13.815,34.023-30.826,34.023s-28.429-3.083-30.826-34.023C247.885,122.928,235.9,79.2,264.1,79.429,281.108,79.429,316.844,71.893,311.135,143.022Z" transform="translate(-30.617 -44.721)"/><g transform="translate(198.178 9.006)"><path class="e" d="M326.463,81.033c7.878,7.878,3.768,18.724-4.453,26.83-8.22,8.22-19.523,10.047-27.4,2.169s-7.535-20.779.571-29C303.4,73.041,318.585,73.27,326.463,81.033Z" transform="translate(-222.659 -54.304)"/><path class="e" d="M248.143,151.549s-35.85-84.03-4.224-79.235c0,0,29.114-34.48,43.728-.343,8.22-8.22,22.72-5.594,30.6,2.169,7.878,7.878-1.37,15.413-9.476,23.633,0,0-17.7,20.665-44.755,2.74,0,0,3.425,14.956-9.933,27.058" transform="translate(-230.88 -56.888)"/></g><path class="f" d="M295.5,164.108c5.937-.457-9.134,5.366-15.527,5.709-24.318,1.37-29.57-9.362-31.968-40.416C248,129.514,250.968,167.647,295.5,164.108Z" transform="translate(-30.276 -37.607)"/><path class="g" d="M268.3,138.2s11.3,7.878,21.464,7.307" transform="translate(-27.399 -36.36)"/><path class="f" d="M291.749,154.389c-.571,2.169-3.083,3.425-5.709,3.083-2.626-.457-2.169-2.4-1.028-4.338s.457-3.882,3.083-3.425S292.32,152.22,291.749,154.389Z" transform="translate(-25.16 -34.738)"/><path class="g" d="M283.7,137.835s5.709,9.019,10.161,0a52.64,52.64,0,0,0-3.2-22.035" transform="translate(-25.217 -39.534)"/><path class="g" d="M277.605,123.136s-5.594-2.74-8.905.457" transform="translate(-27.343 -38.649)"/><path class="h" d="M541.748,422.17,559.9,373.5l-51.3,8.682Z" transform="matrix(0.719, 0.695, -0.695, 0.719, 279.955, -268.481)"/><path class="g" d="M293.8,122.689s4.567-1.827,7.193.343" transform="translate(-23.786 -38.66)"/><path class="f" d="M263,117.664l16.441-6.508S269.279,103.507,263,117.664Z" transform="translate(-28.151 -40.484)"/><path class="f" d="M308.241,117.664,291.8,111.156C291.914,111.156,301.961,103.507,308.241,117.664Z" transform="translate(-24.069 -40.484)"/><g transform="translate(417.294 256.884)"><path class="i" d="M422.8,315.638l3.768,39.617s49.322-7.307,64.735-11.76c0,0,6.508-12.445,6.279-32.539l-.913-8.449s-24.433-.8-40.417,3.2a39.945,39.945,0,0,0-19.067,3.425Z" transform="translate(-422.8 -269.969)"/><path class="j" d="M491.146,333.444c.457,2.74-4,5.823-9.819,6.964s-8.563-.685-9.019-3.425,1.484-2.968,7.079-5.023C486.351,329.333,490.233,328.534,491.146,333.444Z" transform="translate(-415.793 -266.083)"/><path class="k" d="M446,339.648,465.409,274l34.708,10.047-19.751,66.219Z" transform="translate(-419.512 -274)"/><path class="f" d="M451.2,332.231,466.727,278l29.114,8.334-15.87,54.8Z" transform="translate(-418.776 -273.433)"/><path class="i" d="M427,315.836a86.278,86.278,0,0,0,14.842-7.535c2.4-1.6,4.8-3.539,7.079-5.252,4.224-3.083,8.449-6.622,12.9-9.362a43.865,43.865,0,0,1,17.011-6.279,1.379,1.379,0,0,1,1.941,1.37c.457,3.539-1.827,8.677-4.338,10.96-2.968,2.626-7.193,2.854-10.96,3.882a2.1,2.1,0,0,0-1.6,1.027,2.9,2.9,0,0,0-.228,1.37c-.114,4.11-.114,6.85-2.055,10.39-1.941,3.311-4.681,6.165-8.22,7.307a9.043,9.043,0,0,1-9.933-2.74" transform="translate(-422.205 -272.109)"/><path class="l" d="M446,338.4l.913,3.539,36.535,10.96,19.409-66.676-2.74-3.425-19.752,66.219Z" transform="translate(-419.512 -272.753)"/><circle class="f" cx="1.941" cy="1.941" r="1.941" transform="translate(43.499 64.849)"/><path class="d" d="M497.642,306.038c0,2.854-3.768,5.138-8.449,5.138s-6.394-2.283-6.394-5.138,1.713-5.138,6.394-5.138S497.642,300.786,497.642,306.038Z" transform="translate(-414.298 -270.188)"/><path class="d" d="M499.14,315.837c0,3.311-4.453,5.937-9.819,5.937s-7.421-2.626-7.421-5.937,2.055-5.937,7.421-5.937S499.14,309.9,499.14,315.837Z" transform="translate(-414.425 -268.913)"/><path class="d" d="M500.681,325.648c0,3.311-4.909,5.937-10.96,5.937s-8.22-2.626-8.22-5.937,1.941-3.2,7.878-4.338C496.8,319.825,500.681,319.6,500.681,325.648Z" transform="translate(-414.482 -267.421)"/></g><path class="e" d="M347.239,268.639a134.662,134.662,0,0,0,14.385,36.306c5.023,8.791,11.531,17.354,20.893,21.35,7.992,3.311,16.9,2.854,25.574,2.283,11.3-.8,17.354-2.968,30.6-12.1a247.7,247.7,0,0,0,4,49.436c.342,1.827.685,3.768-.114,5.366a6.55,6.55,0,0,1-2.283,2.4c-26.145,20.779-64.05,25.346-94.419,11.417a9.773,9.773,0,0,1-3.768-2.626c-1.142-1.484-1.142-3.539-1.256-5.366a1033.944,1033.944,0,0,1,3.2-112.8" transform="translate(-17.171 -18.49)"/><path class="e" d="M265.877,168.937l26.145,12.216,16.441-11.988c3.2-1.028,6.736-.342,10.047.343,6.85,1.37,13.929,2.854,20.208,6.051,11.76,6.051,19.866,17.811,24.09,30.369s5.138,25.917,5.709,39.161c3.311,73.64-.913,147.509-5.138,221.149q-85.628-.685-171.256-1.256c-1.142-27.287,3.311-54.574,7.764-81.518q14.728-88.54,29.342-177.079c1.6-9.59,3.539-19.98,10.618-26.716,6.508-6.165,15.071-8.563,23.976-9.933Z" transform="translate(-38.22 -32.046)"/><g transform="translate(108.068 404.507)"><path class="m" d="M170.274,403.3c-6.622,14.614-10.39,30.369-14.271,45.9-1.027,4.339-2.055,8.563-3.2,12.9a18.41,18.41,0,0,0-.8,6.051,6.275,6.275,0,0,0,3.083,5.023c1.827.913,4.8.343,6.051-4.909-.571,2.283-2.169,7.649-2.74,9.933s-1.256,4.8-.685,7.079c.457,2.4,2.512,4.567,4.909,4.453,2.283-.114,4.224-2.169,5.024-4.224,1.256-3.539,2.055-5.709,3.539-9.248a71.8,71.8,0,0,0-4.681,15.3c-.571,3.083-.685,6.965,1.941,8.677a5.566,5.566,0,0,0,6.051-.457,10.862,10.862,0,0,0,3.882-5.138c1.6-4.909,2.283-8.677,3.653-14.385a70.547,70.547,0,0,0-2.283,10.618c-.343,2.4-.343,5.252,1.6,6.508,1.941,1.37,4.681.228,6.508-1.256,5.024-4.338,6.508-11.3,7.764-17.7,1.6-7.878,3.2-15.756,5.024-23.633.114-.571.457-1.37,1.028-1.484.913-.114,1.256,1.142,1.142,2.055-.228,2.74-1.028,5.48-1.484,8.22a11.709,11.709,0,0,0,1.142,8.106c1.484,2.4,4.681,3.882,7.193,2.74,1.827-.913,2.854-2.854,3.653-4.681,4.224-10.275,4.339-21.578,3.882-32.653a68.129,68.129,0,0,0-.913-9.59c-.8-4.11-2.512-7.878-4.11-11.646-1.713-4-3.539-7.878-5.366-11.874Z" transform="translate(-151.954 -403.3)"/><line class="n" y1="21.692" x2="6.051" transform="translate(9.3 43.271)"/><line class="n" y1="28.543" x2="6.394" transform="translate(29.508 50.578)"/><path class="n" d="M175.535,446.3,171.2,461.028a60.932,60.932,0,0,1-3.2,11.189" transform="translate(-149.681 -397.207)"/></g><path class="e" d="M254.09,174c-15.984,2.4-29.913,12.673-39.96,25.346s-16.669,27.629-23.177,42.471a268.957,268.957,0,0,0-11.417,29.342c-4.567,14.956-6.736,30.484-8.791,46.011-1.941,13.929-3.768,27.858-5.709,41.787-2.283,16.669-4.567,33.452-5.48,50.235-.342,6.964-.457,13.929-.457,20.893,0,3.882.685,8.563,4.224,10.275a9.872,9.872,0,0,0,4.453.685c16.555.228,33,.571,49.55.8-4.567-49.779,5.252-99.671,15.071-148.65,3.083-15.185,6.165-30.484,13.015-44.3" transform="translate(-42.874 -31.286)"/><path class="o" d="M241.035,239.6c-6.85,13.815-9.933,29.228-13.015,44.3-9.819,48.979-19.637,98.872-15.071,148.65H190.8" transform="translate(-38.382 -21.99)"/><path class="f" d="M286.7,427.23l2.74,33.11,62.908-27.059L351.092,414.1l-27.173,2.512-37.106,3.653Z" transform="translate(-24.792 2.738)"/><line class="o" x2="63.251" transform="translate(262.479 433.963)"/><g transform="translate(228.912 139.403)"><path class="o" d="M257.8,172.1l22.948,11.075-10.732,15.641Z" transform="translate(-257.8 -170.958)"/><path class="p" d="M298.4,171.1l-17.7,11.76,10.732,15.527Z" transform="translate(-254.555 -171.1)"/></g><path class="q" d="M236.338,122.915l10.732-1.256-3.882-23.177,2.968-12.559,25.118-13.244,11.874.343L290,69.14l-9.134-2.74H264.424L238.05,80.557,231.2,98.025Z" transform="translate(-32.657 -46.534)"/><g transform="translate(198.315 72.156)"><g transform="translate(0)"><path class="r" d="M248.272,112.2l-12.787,3.882.571,9.476-1.256,13.7,7.307,10.732,11.988-1.941,6.279-12.9-2.169-13.13Z" transform="translate(-230.462 -112.2)"/><path class="s" d="M245.157,114.3l-9.134,1.484L231,126.06l2.055,13.244,7.992,8.334,9.248-1.484,4.909-10.39-2.055-13.244Z" transform="translate(-231 -111.902)"/></g><ellipse class="t" cx="5.366" cy="6.394" rx="5.366" ry="6.394" transform="matrix(0.988, -0.158, 0.158, 0.988, 3.507, 13.238)"/></g><path class="u" d="M503.113,360.74l-9.819,30.37L363.6,374.1l-5.48-29-46.468-39.161,4.224-26.373-30.94-4.453,5.823-22.948L246,227.046,267.692,188" transform="translate(-30.56 -29.303)"/><g transform="translate(359.867 42.357)"><path class="v" d="M404.909,205,400,243.476l35.85-14.956Z" transform="translate(-368.603 -69.251)"/><path class="f" d="M558.46,293.138l1.484-47.038L518.5,268.363Z" transform="translate(-351.811 -63.427)"/><path class="w" d="M493.4,192.4l26.145,11.645L516.577,175.5Z" transform="translate(-360.368 -102.431)"/></g><g transform="translate(0)"><path class="x" d="M85.486,127.622,93.363,106.5,71.1,110.268Z" transform="translate(-55.344 -40.852)"/><path class="f" d="M66.32,288.1l17.011-20.322L57.3,263.1Z" transform="translate(-57.3 -18.66)"/><path class="w" d="M174.148,230.449,190.316,165.6,126,183.9Z" transform="translate(-109.951 105.677) rotate(-31)"/></g><path class="y" d="M477.534,339.3l-9.819,30.369L426.5,364.3" transform="translate(-4.981 -7.862)"/></g></svg>
