<?xml version="1.0" encoding="utf-8"?><svg xmlns="http://www.w3.org/2000/svg" width="340.854" height="190.499" viewBox="0 0 340.854 190.499"><defs><style>.a{opacity:0.101;}.b{fill:#fff;}.c{fill:#1f0a4f;}.d{fill:#fafafb;}.e{fill:#fefefe;}.f{fill:#266eff;}.g{fill:#fa8462;}.h{fill:none;stroke:#200b4f;stroke-miterlimit:10;stroke-width:3px;}</style></defs><g class="a" transform="translate(39.041 -46.135)"><path class="b" d="M223.951,202.636a1.447,1.447,0,0,0-.94-.4c-2.226-.148-4.453-.346-6.629-.594l-.3-.049a1.193,1.193,0,0,0-1.187.792c-.445.841-.989,1.929-1.484,2.968,0,.049,0,.049-.049.049s-.049,0-.1-.049a34.907,34.907,0,0,1-3.612-1.781c-.742-.4-1.484-.841-2.276-1.187a3.464,3.464,0,0,0-2.82-.148c-1.435.4-2.82.891-4.205,1.336-.792.247-1.583.495-2.325.742a4.039,4.039,0,0,1-2.276-.2,7.912,7.912,0,0,0-1.039-.247c-1.781-.346-3.612-.742-5.343-1.138-.989-.247-1.979-.445-2.968-.693a2.7,2.7,0,0,0-2.523.742c-.891.792-1.781,1.583-2.622,2.375-1.237,1.088-2.523,2.226-3.76,3.414a1.889,1.889,0,0,1-1.88.445c-2.968-.495-5.986-1.039-9.3-1.633a.986.986,0,0,0-1.286.643c-.247.594-.544,1.187-.841,1.831-.445.94-.891,1.929-1.286,2.919l-.148.4c-.3.742-.643,1.534-.989,2.226a1.749,1.749,0,0,0,.2,2.276c1.187,1.534,2.375,3.117,3.513,4.7.693.891,1.336,1.831,2.028,2.721l.1.148a1.6,1.6,0,0,0,2.028.792c2.573-.693,5.195-1.286,7.767-1.831,1.138-.247,2.276-.495,3.414-.792.445-.1.544-.1.742.1,1.633,1.534,3.216,3.067,4.848,4.6.841.792,1.682,1.583,2.573,2.424.1.1.2.247.346.4a.869.869,0,0,0,.2.247l.148.2H190.7l.1-.049a21.857,21.857,0,0,1,4.255-1.534l2.078-.594c2.869-.94,5.788-1.831,8.608-2.672,1.039-.3,2.028-.594,3.067-.94a1.738,1.738,0,0,0,1.237-1.237c.148-.544.346-1.039.544-1.583.247-.693.495-1.435.742-2.177a.374.374,0,0,0,.049-.2.374.374,0,0,1,.2.049l3.414.742c.989.2,2.028.4,3.018.643a1.264,1.264,0,0,0,1.682-.891c1.138-3.216,2.375-6.382,3.414-9.1a8.046,8.046,0,0,0,.445-2.375c.049-.3.049-.643.1-.94.148-1.088.3-2.226.4-3.315l.148-1.484C224.148,203.279,224.2,202.883,223.951,202.636ZM189.963,229.2c-1.336-1.286-2.672-2.523-4.007-3.76-1.088-1.039-2.177-2.028-3.216-3.067a1.931,1.931,0,0,0-1.336-.594,2.485,2.485,0,0,0-.594.1c-1.979.495-4.007.94-5.937,1.385-1.732.4-3.463.792-5.244,1.237-.445.1-.544.049-.792-.247-1.583-2.177-3.315-4.453-5.541-7.421a.532.532,0,0,1-.1-.693c.891-1.979,1.83-4.106,2.968-6.778.1-.3.148-.3.445-.247,1.732.3,3.513.594,5.244.891,1.385.247,2.82.495,4.205.742a2.63,2.63,0,0,0,2.325-.643c1.088-1.039,2.276-2.078,3.364-3.067,1.088-.94,2.177-1.929,3.265-2.919a1.381,1.381,0,0,1,1.336-.4c2.127.445,4.205.94,6.333,1.385,1.484.3,2.968.643,4.453.94a3.273,3.273,0,0,0,1.534-.1l2.672-.891c1.286-.4,2.622-.841,3.908-1.286a1.488,1.488,0,0,1,1.435.148l3.117,1.633c1.039.544,2.078,1.039,3.117,1.633a1.249,1.249,0,0,0,1.039.148,1.2,1.2,0,0,0,.693-.792,10.391,10.391,0,0,1,.643-1.286c.247-.495.495-1.039.742-1.583.148-.4.247-.445.594-.3l1.633.148c1.286.1,2.622.2,3.958.3a1.749,1.749,0,0,1,.3.049.374.374,0,0,1-.049.2,2.9,2.9,0,0,0-.1.643.627.627,0,0,1-.049.3,19.573,19.573,0,0,0-.247,2.325,16.552,16.552,0,0,1-.643,3.908c-.594,1.781-1.286,3.562-1.929,5.294-.445,1.088-.841,2.226-1.286,3.364-.148.4-.148.4-.544.3-.94-.2-1.88-.4-2.77-.594-1.138-.247-2.325-.445-3.463-.742-.94-.2-1.435.049-1.682.94-.2.594-.4,1.237-.594,1.831s-.4,1.187-.594,1.831a1.065,1.065,0,0,1-.792.841c-5.739,1.781-11.478,3.562-16.821,5.244A.977.977,0,0,1,189.963,229.2Z" transform="translate(-200.475 -132.986)"/><path class="b" d="M253.145,203.122a2.123,2.123,0,0,0-1.379-.581c-3.266-.218-6.532-.508-9.725-.871l-.435-.073a1.75,1.75,0,0,0-1.742,1.161c-.653,1.234-1.452,2.83-2.177,4.355,0,.073,0,.073-.073.073s-.073,0-.145-.073a51.209,51.209,0,0,1-5.3-2.613c-1.089-.581-2.177-1.234-3.339-1.742a5.081,5.081,0,0,0-4.137-.218c-2.1.581-4.137,1.306-6.169,1.96-1.161.363-2.322.726-3.411,1.089a5.925,5.925,0,0,1-3.338-.29,11.608,11.608,0,0,0-1.524-.363c-2.613-.508-5.3-1.089-7.838-1.669-1.452-.363-2.9-.653-4.354-1.016a3.965,3.965,0,0,0-3.7,1.089c-1.306,1.161-2.613,2.322-3.846,3.484-1.814,1.6-3.7,3.266-5.516,5.008a2.772,2.772,0,0,1-2.758.653c-4.355-.726-8.782-1.524-13.644-2.395a1.447,1.447,0,0,0-1.887.943c-.363.871-.8,1.742-1.234,2.685-.653,1.379-1.306,2.83-1.887,4.282l-.218.581c-.435,1.089-.944,2.25-1.451,3.266a2.566,2.566,0,0,0,.29,3.339c1.742,2.25,3.484,4.572,5.153,6.895,1.016,1.306,1.96,2.685,2.976,3.992l.145.218a2.348,2.348,0,0,0,2.976,1.161c3.774-1.016,7.62-1.887,11.394-2.685,1.669-.363,3.339-.726,5.008-1.161.653-.145.8-.145,1.089.145,2.4,2.25,4.717,4.5,7.112,6.749,1.234,1.161,2.468,2.322,3.774,3.556.145.145.29.363.508.581a1.275,1.275,0,0,0,.29.363l.218.29h1.524l.145-.073a32.065,32.065,0,0,1,6.241-2.25l3.048-.871c4.209-1.379,8.491-2.685,12.628-3.919,1.524-.435,2.976-.871,4.5-1.379a2.549,2.549,0,0,0,1.814-1.814c.218-.8.508-1.524.8-2.322.363-1.016.726-2.1,1.089-3.193a.548.548,0,0,0,.073-.29.549.549,0,0,1,.29.073l5.008,1.089c1.451.29,2.976.581,4.427.944a1.854,1.854,0,0,0,2.468-1.306c1.669-4.717,3.484-9.362,5.008-13.354a11.8,11.8,0,0,0,.653-3.484c.073-.435.073-.943.145-1.379.218-1.6.435-3.266.581-4.863l.218-2.177C253.435,204.066,253.507,203.485,253.145,203.122ZM203.285,242.1c-1.96-1.887-3.919-3.7-5.879-5.516-1.6-1.524-3.193-2.976-4.717-4.5a2.833,2.833,0,0,0-1.96-.871,3.646,3.646,0,0,0-.871.145c-2.9.726-5.879,1.379-8.709,2.032-2.54.581-5.08,1.161-7.693,1.814-.653.145-.8.073-1.161-.363-2.322-3.193-4.863-6.532-8.128-10.886a.78.78,0,0,1-.145-1.016c1.306-2.9,2.685-6.024,4.354-9.943.145-.435.218-.435.653-.363,2.54.435,5.153.871,7.693,1.306,2.032.363,4.137.726,6.169,1.089a3.858,3.858,0,0,0,3.411-.943c1.6-1.524,3.338-3.048,4.935-4.5,1.6-1.379,3.193-2.83,4.79-4.282a2.026,2.026,0,0,1,1.96-.581c3.121.653,6.169,1.379,9.29,2.032,2.177.435,4.354.943,6.532,1.379a4.8,4.8,0,0,0,2.25-.145l3.919-1.306c1.887-.581,3.846-1.234,5.733-1.887a2.183,2.183,0,0,1,2.1.218l4.572,2.395c1.524.8,3.048,1.524,4.572,2.395a1.832,1.832,0,0,0,1.524.218,1.768,1.768,0,0,0,1.016-1.161,15.241,15.241,0,0,1,.943-1.887c.363-.726.726-1.524,1.089-2.322.218-.581.363-.653.871-.435l2.4.218c1.887.145,3.846.29,5.806.435a2.565,2.565,0,0,1,.435.073.549.549,0,0,1-.073.29,4.248,4.248,0,0,0-.145.944.921.921,0,0,1-.073.435,28.711,28.711,0,0,0-.363,3.411,24.282,24.282,0,0,1-.944,5.733c-.871,2.613-1.887,5.225-2.83,7.766-.653,1.6-1.234,3.266-1.887,4.935-.218.581-.218.581-.8.435-1.379-.29-2.758-.581-4.064-.871-1.669-.363-3.411-.653-5.08-1.089-1.379-.29-2.1.073-2.468,1.379-.29.871-.581,1.814-.871,2.685s-.581,1.742-.871,2.685a1.562,1.562,0,0,1-1.161,1.234c-8.419,2.613-16.837,5.225-24.676,7.693A1.434,1.434,0,0,1,203.285,242.1Z" transform="translate(-158.475 -93.986)"/><path class="c" d="M494.021,80.61c3.76.94,7.47,1.88,11.23,2.82a1.944,1.944,0,0,0,1.187.148v8.905a35.278,35.278,0,0,1-4.5-1.138c-.445-.1-.891-.3-.891.495.05,1.88,0,3.76,0,5.64,0,.4.1.594.495.693a43.251,43.251,0,0,0,4.848,1.187v3.216a35.277,35.277,0,0,1-4.5-1.138c-.445-.1-.891-.3-.891.495.049,1.88,0,3.76,0,5.64,0,.4.1.594.495.693a43.246,43.246,0,0,0,4.848,1.187v9.4c-1.633.049-3.067-.742-4.6-1.039-.594-.1-.792-.148-.792.544.049,1.831.049,3.71,0,5.541,0,.594.3.742.792.891,1.534.4,3.067.841,4.6,1.237v2.968c-1.633.049-3.067-.742-4.6-1.039-.594-.1-.792-.148-.792.544.049,1.83.049,3.71,0,5.541,0,.594.3.742.792.891,1.534.4,3.067.841,4.6,1.237V146.8c-.4.4-.742,0-1.088-.049-1.138-.247-2.276-.594-3.414-.94-.643-.2-.891-.049-.841.643.049,1.781.049,3.513,0,5.294,0,.594.148.841.742.989,1.534.346,3.067.792,4.6,1.237v2.968c-.4.4-.742,0-1.088-.049-1.138-.247-2.276-.594-3.414-.94-.643-.2-.891-.049-.841.643.049,1.781.049,3.513,0,5.294,0,.594.148.841.742.989,1.534.346,3.067.792,4.6,1.237v9.4c-1.633.049-3.067-.742-4.6-1.039-.594-.1-.792-.148-.792.544.049,1.831.049,3.71,0,5.541,0,.594.3.742.792.891,1.534.4,3.067.841,4.6,1.237v2.968c-1.633.049-3.067-.742-4.6-1.039-.594-.1-.792-.148-.792.544.049,1.83.049,3.71,0,5.541,0,.594.3.742.792.89,1.534.4,3.067.841,4.6,1.237v8.41a35.268,35.268,0,0,1-4.5-1.138c-.445-.1-.891-.3-.891.495.049,1.88,0,3.76,0,5.64,0,.4.1.594.495.693a43.242,43.242,0,0,0,4.848,1.187v3.216a35.264,35.264,0,0,1-4.5-1.138c-.445-.1-.89-.3-.89.495.049,1.88,0,3.76,0,5.64,0,.4.1.594.495.693a43.25,43.25,0,0,0,4.848,1.187v11.873c-1.633.049-3.067-.742-4.6-1.039-.594-.1-.791-.148-.791.544.049,1.831.049,3.71,0,5.541,0,.594.3.742.791.891,1.534.4,3.067.841,4.6,1.237v2.968c-1.633.049-3.067-.742-4.6-1.039-.594-.1-.791-.148-.791.544.049,1.83.049,3.71,0,5.541,0,.594.3.742.791.891,1.534.4,3.067.841,4.6,1.237V269c0,.742-.148.891-.891.891-4.8-.049-9.647,0-14.446,0V81.254h-.2V269.942H444.449V96.59a6.631,6.631,0,0,0-.049-.989c3.166.544,6.184,1.583,9.3,2.276a38.225,38.225,0,0,0,3.958.94c.1.1.2.2.2-.049.049-3.513.049-6.976.1-10.488,0-2.523.049-5,0-7.52,0-.891.247-1.088,1.088-1.088,6.728.049,13.506,0,20.234,0,4.749.247,9.548-.495,14.248.544l.049.1C493.873,80.512,493.922,80.561,494.021,80.61Zm-3.71,94.542q0-46.6.049-93.207c0-1.286-.346-1.534-1.583-1.534-9.5.049-18.948,0-28.447.049-1.781,0-1.583-.247-1.583,1.534V268.211a2.384,2.384,0,0,1,0,.594c-.148.841.3,1.039,1.039.99q3.711-.074,7.421,0c.94.049,1.138-.247,1.138-1.138-.049-4.65,0-9.3-.049-13.951,0-.792.2-1.039.989-1.039,3.067.049,6.184.049,9.251,0,.94,0,1.138.247,1.138,1.138-.049,4.65,0,9.3-.049,13.951,0,.792.2,1.039.989,1.039,2.721-.049,5.442-.1,8.163,0,1.187.049,1.484-.247,1.484-1.435Q490.335,221.756,490.311,175.153Zm3.018-1.435c0,.94.05,1.88,0,2.82,0,.495.148.742.643.841,1.385.346,2.77.742,4.156,1.138.495.148.742.049.742-.544-.049-1.831,0-3.71,0-5.541,0-.495-.148-.742-.643-.841-1.385-.346-2.77-.742-4.156-1.138-.495-.148-.742-.049-.742.544C493.378,171.937,493.328,172.828,493.328,173.718Zm0,32.355v6.283c0,.495.2.693.693.841,1.336.3,2.721.693,4.057,1.088.594.148.841.148.792-.544-.049-1.831,0-3.71,0-5.541,0-.445-.148-.693-.544-.792C496.643,206.964,495.06,206.518,493.328,206.073Zm0-116.953V95.4c0,.495.2.693.693.841,1.336.346,2.721.693,4.057,1.088.594.2.841.1.792-.544-.049-1.83,0-3.71,0-5.541a.684.684,0,0,0-.594-.792C496.643,90.01,495.06,89.565,493.328,89.12Zm5.491,96.422v-2.77c0-.544-.1-.891-.742-1.039-1.336-.3-2.672-.693-4.007-1.088-.643-.2-.792,0-.742.643.05,1.336,0,2.622,0,3.958,0,2.226,0,2.226,2.127,2.77,1.039.247,2.424,1.138,3.117.643C499.364,188.016,498.721,186.482,498.82,185.542Zm-5.491,53.084c0,.841.05,1.732,0,2.573a.841.841,0,0,0,.742,1.039c1.336.3,2.622.693,3.908,1.039.742.2.89-.05.89-.742q-.074-2.523,0-5.046c0-.693-.148-1.039-.89-1.187-1.286-.3-2.523-.643-3.809-1.039-.643-.2-.891-.1-.841.594C493.378,236.845,493.328,237.736,493.328,238.626Zm0-42.695v6.283c0,.495.148.693.643.841,1.385.346,2.77.742,4.156,1.138.594.148.693-.049.693-.594v-5.541c0-.445-.1-.693-.544-.792C496.693,196.822,495.06,196.426,493.328,195.931Zm.1-66.64c0,1.138-.445,2.622.1,3.364s2.078.693,3.166,1.039l1.039.3c.742.247,1.138.2,1.089-.792-.1-1.237,0-2.474,0-3.71,0-2.226,0-2.226-2.127-2.82-1.088-.3-2.523-1.039-3.117-.643C492.834,126.62,493.477,128.154,493.427,129.292Zm0-10.142c0,1.138-.4,2.573.1,3.364.495.693,2.028.693,3.067.989a9.771,9.771,0,0,1,1.286.4c.643.2.989.1.94-.693-.049-1.286,0-2.523,0-3.809,0-2.226,0-2.226-2.127-2.77-1.088-.3-2.523-1.039-3.117-.643C492.834,116.478,493.477,118.012,493.427,119.15Zm5.393-14.842v-2.919c0-.495-.1-.742-.594-.891-1.435-.346-2.869-.742-4.3-1.138-.544-.148-.643,0-.643.495v4.057c0,2.226,0,2.226,2.127,2.77,1.088.3,2.573,1.039,3.117.643C499.364,106.782,498.721,105.248,498.82,104.308ZM498.77,229.87c0-1.088.4-2.474-.1-3.265-.544-.891-2.078-.742-3.166-1.039-.445-.148-.94-.247-1.435-.4-.594-.2-.792,0-.792.594.05,1.336,0,2.622,0,3.958,0,2.226,0,2.226,2.127,2.77,1.088.3,2.523,1.039,3.117.643C499.364,232.541,498.671,231.007,498.77,229.87Zm-5.392-72.576h-.05c0,.89.05,1.83,0,2.721-.05.544.2.792.693.94,1.336.346,2.721.693,4.057,1.088.594.148.792.049.792-.594-.049-1.336,0-2.622,0-3.958,0-2.226,0-2.226-2.127-2.77-1.088-.3-2.424-1.138-3.216-.594C492.982,154.473,493.378,156.155,493.378,157.293Zm5.392-8.757c0-1.088.4-2.474-.1-3.265-.544-.841-2.078-.742-3.166-1.088-.445-.148-.989-.2-1.435-.4-.643-.247-.792,0-.742.594.05,1.336,0,2.622,0,3.958,0,2.177,0,2.177,2.127,2.77,1.039.3,2.573,1.088,3.117.693C499.364,151.208,498.721,149.674,498.77,148.536Z" transform="translate(-224.069 -33.507)"/><path class="d" d="M410.963,287.3H398.347V269.044c-3.661,1.187-7.272,2.375-10.835,3.513-.693.247-.544.742-.544,1.187V287.3H379.3c0-.544.049-1.088.049-1.583V126.711a1.5,1.5,0,0,1,1.187-1.732c8.114-2.968,16.227-6.036,24.39-9.054,1.979-.742,3.958-1.484,6.036-2.226V285.766C410.913,286.211,410.963,286.755,410.963,287.3ZM395.23,185.287h-.1V188.5c0,.594.148.742.693.544,3.067-1.039,6.135-2.028,9.251-3.018a.8.8,0,0,0,.693-.94c-.049-2.028-.049-4.007,0-6.036,0-.742-.148-.94-.891-.643-2.028.742-4.106,1.336-6.184,2.028-1.138.4-2.77.495-3.364,1.286C394.735,182.467,395.23,184.05,395.23,185.287Zm10.538,6.778c0-.989-.049-1.979,0-2.968,0-.643-.1-.891-.841-.643-3.018,1.039-6.085,1.979-9.1,2.968-.594.2-.693.544-.693,1.088,0,1.979.049,3.958,0,5.937,0,.693.049.94.891.693,2.968-.989,5.937-1.929,8.905-2.869.643-.2.94-.445.891-1.187C405.718,194.044,405.768,193.054,405.768,192.065Zm0,30.475c0-.989-.049-1.979,0-2.968.049-.742-.148-.94-.891-.643-2.968,1.039-5.986,1.979-9,2.919-.544.2-.792.445-.742,1.039.049,2.028.049,4.007,0,6.036,0,.693.148.841.841.643,2.177-.742,4.354-1.435,6.58-2.127,1.039-.346,2.424-.4,3.067-1.138.693-.792.148-2.226.2-3.364A1.09,1.09,0,0,1,405.768,222.54Zm0-10.142c0-.989-.049-1.979,0-2.968.049-.742-.148-.94-.891-.643-2.968,1.039-5.986,1.979-9,2.919-.544.2-.792.445-.742,1.039.049,2.028.049,4.007,0,6.036,0,.693.148.841.841.643,2.177-.742,4.354-1.435,6.58-2.127,1.039-.346,2.424-.4,3.067-1.138.693-.792.148-2.226.2-3.364A1.09,1.09,0,0,1,405.768,212.4ZM392.41,186.524c0-1.187-.049-2.177,0-3.166.049-.742-.148-.891-.891-.693-2.919.989-5.838,1.929-8.806,2.869a.9.9,0,0,0-.742,1.039q.074,2.968,0,5.937c-.049.94.346.891,1.039.643,1.929-.643,3.809-1.237,5.739-1.88,1.187-.4,2.672-.495,3.414-1.286C392.9,189.146,392.262,187.563,392.41,186.524Zm0,6.036c-3.364,1.088-6.58,2.177-9.746,3.166a.807.807,0,0,0-.643.89c0,2.078.049,4.106,0,6.184,0,.643.2.792.792.594,2.968-.989,5.937-1.929,8.905-2.869.544-.148.693-.445.693-.989C392.361,197.259,392.41,194.984,392.41,192.559Zm0,30.426c-3.414,1.088-6.629,2.177-9.944,3.216-.594.2-.495.594-.495.989v5.937c0,.742.2.94.891.693,2.919-.989,5.838-1.929,8.757-2.869.4-.148.742-.247.742-.792C392.41,227.784,392.41,225.459,392.41,222.985Zm-.049-6.234h.049c0-.989-.049-1.979,0-2.968.049-.693-.1-.94-.841-.693-2.968.989-5.887,1.979-8.856,2.919a.826.826,0,0,0-.693.94c0,2.028.05,4.007,0,6.036,0,.841.3.891.94.643,1.979-.643,3.958-1.286,5.937-1.979,1.138-.4,2.77-.4,3.315-1.336C392.757,219.473,392.361,217.988,392.361,216.752Zm13.7-87.27-10.686,3.463c-.495.148-.594.445-.594.891v6.926c0,.693.3.693.841.544,3.265-1.088,6.53-2.127,9.8-3.166a.819.819,0,0,0,.643-.891Zm-.049-5.937h.049c0-1.088-.049-2.127,0-3.216.049-.94-.247-.989-1.039-.742-3.166,1.039-6.283,2.127-9.449,3.117-.594.2-.792.4-.792.989.049,2.276.049,4.5,0,6.778,0,.742.247.841.891.594,2.127-.742,4.3-1.385,6.431-2.127,1.286-.445,3.117-.445,3.76-1.484C406.51,126.563,406.015,124.93,406.015,123.545Zm-11.23,127c3.71-1.187,7.322-2.375,10.884-3.513a.49.49,0,0,0,.4-.544V238.52l-10.686,3.463a.711.711,0,0,0-.594.792C394.834,245.3,394.785,247.82,394.785,250.541Zm11.28-1.93c-3.661,1.187-7.174,2.375-10.686,3.463-.643.2-.594.594-.594,1.039,0,2.177.049,4.354,0,6.53,0,.792.1.989.94.742,3.166-1.088,6.382-2.078,9.6-3.117.445-.148.742-.3.742-.891Zm-11.28-91.079c3.661-1.187,7.124-2.325,10.587-3.463.495-.148.643-.346.643-.841V146.2c0-.445-.1-.693-.643-.495-3.364,1.088-6.679,2.226-10.043,3.265a.711.711,0,0,0-.594.792C394.834,152.239,394.785,154.812,394.785,157.533Zm0,5.541c0,1.336.049,2.474,0,3.562-.049.742.049,1.039.891.742,3.166-1.088,6.382-2.127,9.6-3.117a.991.991,0,0,0,.792-1.138q-.074-3.265,0-6.53c0-.891-.247-.891-.989-.643-2.127.742-4.3,1.385-6.431,2.078-1.237.4-2.919.495-3.611,1.336C394.29,160.254,394.884,161.936,394.785,163.074Zm-2.078,94.394c0-1.385-.049-2.474,0-3.612.049-.693-.148-.89-.841-.643-3.117,1.039-6.234,2.078-9.35,3.067-.693.2-.841.594-.841,1.237.049,2.127.049,4.3,0,6.431,0,.792.1,1.039.94.742,2.028-.693,4.057-1.336,6.085-1.979,1.286-.445,2.968-.544,3.71-1.385C393.3,260.288,392.608,258.556,392.707,257.468Zm-10.983-7.174c0,1.385.049,2.474,0,3.611-.049.693.148.841.841.643,3.166-1.039,6.283-2.078,9.5-3.067a.9.9,0,0,0,.693-1.088c0-2.177-.049-4.354,0-6.53,0-.792-.148-.989-.94-.693-2.028.693-4.057,1.336-6.085,1.979-1.286.445-2.968.544-3.71,1.435C381.13,247.474,381.823,249.206,381.724,250.294Zm10.983-112.2c0-1.088-.049-2.226,0-3.315,0-.693-.1-.94-.891-.693-3.067,1.039-6.135,2.028-9.251,3.018-.693.2-.94.495-.891,1.187.049,2.127.049,4.3,0,6.431,0,.841.148,1.039,1.039.742,3.018-1.039,6.085-2.028,9.152-2.968a1.1,1.1,0,0,0,.891-1.336C392.658,140.168,392.707,139.129,392.707,138.09Zm-10.983-6.728c0,1.088.049,2.226,0,3.315-.049.742.148.94.891.693,3.117-1.039,6.234-2.078,9.35-3.067.594-.2.792-.4.792-1.039-.049-2.276-.049-4.551,0-6.778,0-.792-.247-.742-.891-.544-3.067,1.039-6.135,2.028-9.251,2.968a1.1,1.1,0,0,0-.891,1.336Zm10.983,18.4c-3.562,1.187-6.976,2.325-10.439,3.414-.544.148-.594.445-.594.891V161c0,.495,0,.792.693.594,3.216-1.088,6.481-2.078,9.7-3.117a.789.789,0,0,0,.643-.891Zm-10.983,17.81c0,1.138.049,2.325,0,3.463,0,.693.148.841.841.594,3.117-1.039,6.234-2.028,9.35-3.018.594-.2.841-.445.841-1.088q-.074-3.339,0-6.679c0-.841-.3-.841-.94-.643-2.82.94-5.59,1.929-8.41,2.721-1.385.4-1.929,1.088-1.732,2.474A15.822,15.822,0,0,1,381.724,167.576Z" transform="translate(-191.175 -50.716)"/><path class="c" d="M321.832,286.457V112.808c-2.078.792-4.057,1.534-6.036,2.226-8.114,3.018-16.227,6.085-24.39,9.053a1.531,1.531,0,0,0-1.187,1.732q.074,79.478,0,159.005c0,.544-.049,1.088-.049,1.583h-9.895c-.049-9.895-.1-19.839-.148-29.733a3.244,3.244,0,0,0-.445-1.633c-2.523-4.156-5.046-8.311-7.52-12.467-1.237-2.028-2.424-4.057-3.71-6.184a15.294,15.294,0,0,0-.792,1.336c-3.364,5.689-6.679,11.428-10.043,17.118a4.686,4.686,0,0,0-.643,2.424c.049,6.481.1,13.011.1,19.492v9.647h-.495c0-4.5-.049-9-.1-13.457,0-.4.247-.989-.247-1.088-1.435-.4-2.721-1.286-4.453-.841a8.883,8.883,0,0,0-6.332,4.551,8.4,8.4,0,0,1-.495.693.811.811,0,0,1-.594.346c-1.484.4-2.968.891-4.5,1.336a2.745,2.745,0,0,0-1.138.841c-2.028,2.177-3.166,4.65-2.672,7.668h-7.174c-.1-8.064-.2-16.128-.247-24.192-.049-6.481-.1-12.912-.049-19.393,0-1.088-.247-1.385-1.336-1.385-6.976.1-13.9.148-20.877.2-.89,0-2.028-.4-2.622.148s-.1,1.732-.1,2.622q.074,21,.247,42h-.742c.049-2.325.1-4.7.1-7.025q-.074-13.061-.148-26.122a1.686,1.686,0,0,0-.148-1.088,81.3,81.3,0,0,0-.049-8.509c.049-2.672.049-2.672,2.672-2.672,17.464-.049,34.928-.049,52.441-.1,1.138,0,1.336.346,1.286,1.336-.1,2.671-.049,5.294-.049,8.361,2.622-4.5,5-8.707,7.47-12.863.3-.495.594-.94.841-1.435a2.053,2.053,0,0,1,2.177-1.237c6.184.1,12.368,0,18.552.049,1.187,0,1.385-.346,1.385-1.435-.049-35.967,0-71.983-.049-107.949a1.962,1.962,0,0,1,1.484-2.276c8.905-3.216,17.761-6.58,26.616-9.845,1.187-.445,2.375-.94,3.562-1.385.346-.148.693-.346,1.039-.148,0,.544-.049,1.088-.049,1.583V286.457Z" transform="translate(-102.045 -49.873)"/><path class="e" d="M204.35,418.671c-.1-14-.148-28-.247-42,0-.891-.495-2.028.1-2.622.594-.544,1.732-.148,2.622-.148,6.976-.049,13.9-.1,20.877-.2,1.138,0,1.336.3,1.336,1.385-.049,6.481,0,12.912.049,19.393.049,8.064.148,16.128.247,24.192h-8.41c-.049-4.4-.049-8.806-.1-13.209a5.485,5.485,0,0,0-5.64-5.343c-3.166-.049-5.887,2.177-5.887,5.1.049,4.5-.1,8.955.2,13.457Z" transform="translate(-102.555 -182.087)"/><path class="e" d="M312.2,413.517c0-3.216.049-6.431,0-9.647,0-6.481-.049-13.011-.1-19.492a4.564,4.564,0,0,1,.643-2.424c3.364-5.689,6.679-11.428,10.043-17.118.247-.4.445-.742.792-1.336,1.286,2.127,2.523,4.156,3.71,6.184,2.523,4.156,5,8.311,7.52,12.467a3.113,3.113,0,0,1,.445,1.633c.049,9.895.1,19.839.148,29.733h-6.926V400.8a11.356,11.356,0,0,0-.1-1.83,4.681,4.681,0,0,0-4.947-3.76,4.594,4.594,0,0,0-4.255,4.848c0,4.5.1,8.955.148,13.457Zm11.577-32.9a2.707,2.707,0,0,0-2.672,2.573,2.6,2.6,0,0,0,2.573,2.622,2.556,2.556,0,0,0,2.622-2.523A2.666,2.666,0,0,0,323.776,380.617Z" transform="translate(-157.221 -176.933)"/><path class="e" d="M269.682,448.734c-.495-3.067.643-5.491,2.672-7.668a2.743,2.743,0,0,1,1.138-.841c1.484-.445,2.968-.891,4.5-1.336a1.187,1.187,0,0,0,.594-.346,5.985,5.985,0,0,0,.495-.693,8.883,8.883,0,0,1,6.333-4.552c1.732-.4,3.018.495,4.453.841.495.148.247.742.247,1.088.049,4.5.049,9,.1,13.457C283.386,448.734,276.51,448.734,269.682,448.734Z" transform="translate(-135.73 -212.15)"/><path class="c" d="M215.066,445.651c-.346-4.453-.2-8.954-.2-13.457,0-2.919,2.721-5.145,5.887-5.1a5.485,5.485,0,0,1,5.64,5.343c.049,4.4.049,8.806.1,13.209Z" transform="translate(-108.076 -209.067)"/><path class="c" d="M394.776,445.955V432.4c0-.445-.2-.94.544-1.187,3.611-1.138,7.174-2.325,10.835-3.513v18.255Z" transform="translate(-198.983 -209.371)"/><path class="c" d="M326.648,445.888c-.049-4.5-.148-8.955-.148-13.457a4.645,4.645,0,0,1,9.2-1.088,11.35,11.35,0,0,1,.1,1.831v12.714Z" transform="translate(-164.497 -209.304)"/><path class="f" d="M444.3,286.491V113.733c0-.544.049-1.088.049-1.583l.1-.049.049.1c0,.346.049.643.049.989V286.541A.538.538,0,0,0,444.3,286.491Z" transform="translate(-224.018 -49.907)"/><path class="d" d="M202.8,378.1c.2,2.82.1,5.689.049,8.509C202.8,383.789,202.8,380.969,202.8,378.1Z" transform="translate(-101.995 -184.31)"/><path class="d" d="M471.9,118.6c-.049.247-.148.148-.2.049C471.749,118.649,471.8,118.6,471.9,118.6Z" transform="translate(-237.863 -53.191)"/><path class="g" d="M147.5,448.349h0l.049-.05Z" transform="translate(-74.053 -219.78)"/><path class="f" d="M411.336,251.222c0-1.237-.445-2.771.148-3.612.594-.792,2.177-.891,3.364-1.286,2.078-.693,4.156-1.286,6.184-2.028.792-.247.891-.049.891.643-.049,2.028-.049,4.007,0,6.036a.836.836,0,0,1-.693.94c-3.067.989-6.184,1.979-9.251,3.018-.544.2-.742.049-.693-.544.049-1.088,0-2.127,0-3.216C411.237,251.222,411.287,251.222,411.336,251.222Z" transform="translate(-207.282 -116.651)"/><path class="f" d="M421.886,268.265c0,.989-.049,1.979,0,2.968.049.742-.247.989-.891,1.187-2.968.94-5.937,1.88-8.905,2.869-.841.3-.891,0-.891-.693.049-1.979,0-3.958,0-5.937,0-.544.1-.89.693-1.088,3.067-.94,6.085-1.929,9.1-2.968.742-.247.841,0,.841.643C421.837,266.286,421.886,267.275,421.886,268.265Z" transform="translate(-207.294 -126.915)"/><path class="f" d="M421.886,329.848v.346c-.049,1.138.445,2.573-.2,3.364-.594.742-1.979.792-3.067,1.138-2.177.693-4.4,1.385-6.58,2.127-.693.247-.841.049-.841-.643.049-2.028.049-4.007,0-6.036a.934.934,0,0,1,.742-1.039c3.018-.94,6.036-1.88,9-2.919.792-.247.94-.1.89.643C421.886,327.869,421.886,328.859,421.886,329.848Z" transform="translate(-207.294 -158.024)"/><path class="f" d="M421.886,309.348v.346c-.049,1.138.445,2.573-.2,3.364-.594.742-1.979.792-3.067,1.138-2.177.693-4.4,1.385-6.58,2.127-.693.247-.841.049-.841-.643.049-2.028.049-4.007,0-6.036a.934.934,0,0,1,.742-1.039c3.018-.94,6.036-1.88,9-2.919.792-.247.94-.1.89.643C421.886,307.369,421.886,308.359,421.886,309.348Z" transform="translate(-207.294 -147.666)"/><path class="f" d="M395.139,256.847c-.148,1.039.544,2.622-.247,3.463-.693.792-2.226.891-3.414,1.286-1.929.643-3.859,1.237-5.739,1.88-.693.247-1.039.3-1.039-.643q.074-2.968,0-5.937a.9.9,0,0,1,.742-1.039c2.919-.94,5.887-1.88,8.806-2.869.693-.247.94-.1.891.693C395.089,254.67,395.139,255.66,395.139,256.847Z" transform="translate(-193.904 -121.039)"/><path class="f" d="M395.189,273.1v6.976a.919.919,0,0,1-.693.989c-2.968.94-5.937,1.929-8.905,2.869-.594.2-.792.049-.792-.594.049-2.078,0-4.106,0-6.184,0-.495.1-.742.643-.891C388.609,275.227,391.825,274.188,395.189,273.1Z" transform="translate(-193.954 -131.256)"/><path class="f" d="M395.182,334.6v7.124c0,.544-.346.643-.742.792-2.919.94-5.838,1.88-8.757,2.869-.742.247-.94.049-.891-.693.049-1.979,0-3.958,0-5.937,0-.4-.1-.792.495-.989C388.553,336.777,391.818,335.688,395.182,334.6Z" transform="translate(-193.947 -162.33)"/><path class="f" d="M395.19,318.216c0,1.237.445,2.721-.1,3.612-.544.94-2.177.89-3.315,1.336-1.979.693-3.958,1.286-5.937,1.979-.643.2-.94.148-.94-.643.049-2.028.049-4.007,0-6.036a.8.8,0,0,1,.693-.94c2.968-.94,5.937-1.929,8.856-2.919.742-.247.891,0,.841.693-.049.989,0,1.979,0,2.968A.153.153,0,0,0,395.19,318.216Z" transform="translate(-194.005 -152.18)"/><path class="c" d="M421.88,145.6v7.718a.819.819,0,0,1-.643.891c-3.265,1.039-6.53,2.127-9.8,3.166-.544.2-.841.2-.841-.544.049-2.325,0-4.6,0-6.926,0-.445.1-.742.594-.891C414.706,147.925,418.219,146.787,421.88,145.6Zm-.693,4.453h.1c0-.841-.049-1.732,0-2.573.049-.693-.1-.94-.89-.693-2.771.94-5.541,1.831-8.311,2.721a.975.975,0,0,0-.841,1.138q.074,2.523,0,5.046c-.049.989.346.94,1.088.693,1.88-.643,3.809-1.237,5.739-1.88,1.039-.346,2.474-.445,3.018-1.187C421.583,152.576,421.187,151.19,421.187,150.053Z" transform="translate(-206.991 -66.834)"/><path class="c" d="M421.83,129.479c0,1.336.495,3.018-.148,3.958-.643,1.039-2.474,1.039-3.76,1.484-2.127.742-4.3,1.385-6.431,2.127-.643.2-.891.148-.891-.594.049-2.276.049-4.5,0-6.778a.893.893,0,0,1,.792-.989c3.166-.989,6.333-2.028,9.449-3.117.742-.247,1.088-.2,1.039.742-.1,1.088,0,2.127,0,3.216A.048.048,0,0,0,421.83,129.479Zm-.594.2c0-.841-.049-1.633,0-2.474.049-.742-.049-1.039-.94-.742-2.771.94-5.541,1.831-8.311,2.721-.544.2-.792.4-.792,1.039q.074,2.6,0,5.195c-.049.891.3.94,1.039.693,2.276-.742,4.552-1.484,6.778-2.226,2.226-.693,2.226-.693,2.226-3.067Z" transform="translate(-206.991 -56.649)"/><path class="c" d="M410.6,377.971v-7.817a.711.711,0,0,1,.594-.792L421.88,365.9v7.965a.521.521,0,0,1-.4.544C417.922,375.6,414.36,376.734,410.6,377.971Zm10.587-7.569h.1c0-.841-.049-1.732,0-2.573.049-.742-.2-.891-.89-.643-2.771.94-5.541,1.831-8.311,2.721a.933.933,0,0,0-.792,1.138q.074,2.523,0,5.046c0,.841.2.99.99.742,1.929-.693,3.908-1.237,5.838-1.929,1.039-.346,2.523-.346,3.018-1.187C421.534,372.826,421.187,371.49,421.187,370.4Z" transform="translate(-206.991 -178.145)"/><path class="c" d="M421.879,386.4v7.718c0,.594-.3.742-.742.89-3.216,1.039-6.431,2.028-9.6,3.117-.841.3-.94.049-.94-.742.049-2.177,0-4.354,0-6.53,0-.445-.049-.841.594-1.039C414.705,388.775,418.218,387.637,421.879,386.4Zm-10.637,7.371c0,1.039.049,1.929,0,2.77-.049.742.2.94.94.693,2.771-.94,5.541-1.831,8.311-2.721a.965.965,0,0,0,.792-1.138q-.074-2.523,0-5.046c0-.792-.148-1.039-.989-.742-1.929.693-3.908,1.237-5.838,1.929-1.039.346-2.424.346-3.018,1.187S411.341,392.881,411.242,393.771Z" transform="translate(-206.99 -188.503)"/><path class="c" d="M410.6,190.1v-7.817a.711.711,0,0,1,.594-.792c3.364-1.088,6.728-2.177,10.043-3.265.544-.2.643.049.643.495v7.025a.768.768,0,0,1-.643.841C417.774,187.728,414.31,188.866,410.6,190.1Zm10.637-7.322c0-1.039-.049-1.929,0-2.77.049-.792-.148-1.039-.94-.742-2.771.94-5.541,1.83-8.311,2.721-.544.2-.792.445-.742,1.039q.074,2.523,0,5.046c0,.792.049,1.138.989.792,1.93-.693,3.908-1.286,5.838-1.88.989-.346,2.325-.445,2.919-1.138C421.731,185.057,421.138,183.672,421.237,182.781Z" transform="translate(-206.991 -83.286)"/><path class="c" d="M410.443,206.08c.1-1.088-.544-2.77.247-3.71.693-.841,2.375-.94,3.612-1.336,2.127-.693,4.3-1.336,6.431-2.078.742-.247,1.039-.247.99.643q-.074,3.265,0,6.53c0,.594-.1.94-.792,1.138-3.216.989-6.431,2.028-9.6,3.117-.891.3-.94,0-.891-.742C410.493,208.5,410.443,207.416,410.443,206.08Zm10.637-2.869c0-1.039-.049-1.929,0-2.77.049-.693-.2-.841-.841-.643-2.82.94-5.59,1.83-8.41,2.721a.9.9,0,0,0-.742,1.039q.074,2.6,0,5.195c0,.742.1.94.891.693,1.929-.693,3.908-1.237,5.838-1.88,1.039-.346,2.424-.445,3.018-1.187C421.575,205.585,420.981,204.15,421.08,203.21Z" transform="translate(-206.834 -93.722)"/><path class="c" d="M395.174,399.8c-.148,1.088.594,2.82-.247,3.809-.792.891-2.424.989-3.71,1.385-2.028.643-4.057,1.286-6.085,1.979-.841.3-.989.049-.94-.742.049-2.127.049-4.3,0-6.431,0-.643.148-1.039.841-1.237,3.117-.99,6.234-1.979,9.35-3.067.693-.247.841-.049.841.643C395.174,397.277,395.174,398.415,395.174,399.8Zm-10.389,2.968c0,.841.049,1.633,0,2.474s.2,1.088,1.039.792c2.622-.891,5.294-1.732,7.965-2.573.544-.148.841-.4.792-.99-.049-1.781-.049-3.562,0-5.294.049-.891-.346-.792-.94-.594-1.88.643-3.71,1.237-5.59,1.831C384.785,399.4,384.785,399.355,384.785,402.768Z" transform="translate(-193.643 -193.048)"/><path class="c" d="M384.035,382.289c.148-1.088-.594-2.82.247-3.809.792-.891,2.424-.989,3.71-1.435,2.028-.643,4.057-1.286,6.085-1.979.841-.3.989-.1.94.693q-.074,3.265,0,6.53c0,.544-.1.891-.693,1.088-3.166.989-6.332,2.028-9.5,3.067-.693.247-.891.049-.841-.643C384.035,384.812,384.035,383.674,384.035,382.289Zm10.34-2.77c0-.989-.05-1.781,0-2.523.1-.94-.1-1.237-1.138-.89-2.573.94-5.195,1.781-7.817,2.573-.643.2-.841.445-.841,1.088q.074,2.523,0,5.046c-.05.989.346.94,1.088.693,1.831-.643,3.661-1.187,5.491-1.83,1.039-.346,2.424-.346,3.018-1.138C394.82,381.745,394.325,380.409,394.375,379.519Z" transform="translate(-193.486 -182.711)"/><path class="c" d="M395.082,158.782c0,1.039-.049,2.078,0,3.067a1.118,1.118,0,0,1-.891,1.336c-3.067.94-6.085,1.929-9.152,2.968-.891.3-1.039.1-1.039-.742.049-2.127.049-4.3,0-6.431a1.057,1.057,0,0,1,.89-1.187c3.117-.94,6.184-1.929,9.251-3.018.792-.3.94-.049.891.693C395.082,156.556,395.082,157.694,395.082,158.782Zm-.643.445c0-1.088-.049-2.028,0-2.919.049-.742-.3-.792-.891-.594-2.721.891-5.442,1.781-8.212,2.672a.873.873,0,0,0-.742.94c.049,1.781.049,3.562,0,5.294,0,.792.247.89.94.643,1.88-.643,3.809-1.237,5.739-1.88.989-.346,2.325-.445,2.919-1.138C394.933,161.454,394.389,160.118,394.439,159.227Z" transform="translate(-193.55 -71.408)"/><path class="c" d="M384.193,141.745c0-1.039.049-2.078,0-3.067a1.118,1.118,0,0,1,.89-1.336c3.117-.94,6.184-1.979,9.251-2.968.594-.2.89-.247.89.544-.049,2.276-.049,4.551,0,6.778,0,.594-.2.841-.792,1.039-3.117.989-6.234,2.028-9.35,3.067-.742.247-.94.049-.89-.693Zm.594-.4c0,1.039.049,1.83,0,2.672-.049.89.2,1.039,1.039.792,2.622-.891,5.294-1.781,7.965-2.573a.933.933,0,0,0,.792-1.138q-.074-2.523,0-5.046c.049-.841-.2-.989-.989-.742-1.831.643-3.661,1.237-5.492,1.83-1.039.346-2.375.445-3.067,1.138C384.292,139.024,384.935,140.409,384.786,141.349Z" transform="translate(-193.644 -61.099)"/><path class="c" d="M395.132,186.6v7.718a.819.819,0,0,1-.643.891c-3.216,1.039-6.481,2.078-9.7,3.117-.643.2-.693-.1-.693-.594v-6.926c0-.445.049-.742.594-.891C388.157,188.925,391.57,187.787,395.132,186.6Zm-.643.94c-3.166,1.039-6.085,2.028-9.053,2.919-.495.148-.742.4-.693.94.049,1.83.049,3.612,0,5.442,0,.693.3.742.841.544,2.771-.891,5.541-1.83,8.311-2.721.445-.148.693-.3.693-.841C394.489,191.844,394.489,189.766,394.489,187.54Z" transform="translate(-193.601 -87.55)"/><path class="c" d="M384.157,214.91a16.712,16.712,0,0,0,0-2.226c-.2-1.435.3-2.078,1.732-2.474,2.82-.792,5.64-1.781,8.41-2.721.643-.2.94-.2.94.643q-.074,3.339,0,6.679a.961.961,0,0,1-.841,1.088c-3.117.989-6.234,1.979-9.35,3.018-.693.247-.891.148-.841-.594C384.157,217.236,384.157,216.1,384.157,214.91Zm10.34-6.728c-3.166,1.039-6.135,2.028-9.054,2.968a.8.8,0,0,0-.693.94c.049,1.781.049,3.513,0,5.294,0,.643.148.891.841.693,2.77-.94,5.541-1.83,8.311-2.721.445-.148.693-.346.643-.841C394.5,212.437,394.5,210.408,394.5,208.182Z" transform="translate(-193.609 -98.05)"/><path class="f" d="M332.972,398.1a2.631,2.631,0,0,1,2.523,2.672,2.525,2.525,0,0,1-2.622,2.523,2.663,2.663,0,0,1-2.573-2.622A2.707,2.707,0,0,1,332.972,398.1Z" transform="translate(-166.417 -194.414)"/><path class="d" d="M421.84,151.14c0,1.088.4,2.523-.1,3.265s-1.979.841-3.018,1.187c-1.929.643-3.809,1.237-5.739,1.88-.742.247-1.138.3-1.088-.693q.074-2.523,0-5.046a1,1,0,0,1,.841-1.138c2.77-.841,5.541-1.732,8.311-2.721.792-.3.891-.049.891.693-.049.841,0,1.732,0,2.573Z" transform="translate(-207.643 -67.921)"/><path class="d" d="M421.843,130.549v1.088c0,2.375,0,2.375-2.226,3.067-2.276.742-4.551,1.435-6.778,2.226-.693.247-1.039.247-1.039-.693q.074-2.6,0-5.195a.971.971,0,0,1,.792-1.039c2.77-.891,5.541-1.732,8.311-2.721.891-.3.99,0,.94.742Z" transform="translate(-207.597 -57.522)"/><path class="d" d="M421.838,371.552c0,1.088.4,2.424-.1,3.265s-1.979.841-3.018,1.187c-1.929.693-3.908,1.237-5.838,1.929-.792.247-1.039.1-.989-.742q.074-2.523,0-5.046a1,1,0,0,1,.792-1.138c2.77-.841,5.541-1.781,8.311-2.721.742-.247.94-.1.891.643-.049.841,0,1.732,0,2.573A.048.048,0,0,1,421.838,371.552Z" transform="translate(-207.641 -179.296)"/><path class="d" d="M411.776,394.86c.1-.891-.445-2.226.2-3.067.594-.841,1.979-.792,3.018-1.187,1.929-.643,3.908-1.237,5.838-1.929.841-.3.989-.049.989.742q-.074,2.523,0,5.046a1,1,0,0,1-.792,1.138c-2.771.891-5.541,1.781-8.311,2.721-.742.247-.94.049-.94-.693C411.825,396.789,411.776,395.948,411.776,394.86Z" transform="translate(-207.523 -189.592)"/><path class="d" d="M421.883,183.738c-.1.891.445,2.276-.247,3.018-.594.693-1.929.792-2.919,1.138-1.929.643-3.908,1.187-5.838,1.88-.94.346-1.039.049-.989-.792q.074-2.523,0-5.046a.934.934,0,0,1,.742-1.039c2.77-.89,5.541-1.781,8.311-2.721.841-.3.989-.049.94.742Z" transform="translate(-207.637 -84.243)"/><path class="d" d="M421.893,204.131c-.1.94.445,2.375-.247,3.166-.643.742-1.979.841-3.018,1.187-1.929.643-3.908,1.237-5.838,1.88-.792.3-.891.049-.891-.693q.074-2.6,0-5.195a.906.906,0,0,1,.742-1.039c2.82-.891,5.64-1.83,8.41-2.721.643-.2.891-.049.841.643C421.893,202.2,421.893,203.092,421.893,204.131Z" transform="translate(-207.647 -94.642)"/><path class="d" d="M385.343,403.8c0-3.414,0-3.414,3.216-4.4,1.88-.594,3.76-1.237,5.59-1.831.594-.2.99-.3.94.594-.049,1.781-.049,3.562,0,5.294,0,.643-.247.841-.792.99-2.672.841-5.294,1.682-7.965,2.573-.841.3-1.088.1-1.039-.792A19.41,19.41,0,0,0,385.343,403.8Z" transform="translate(-194.201 -194.076)"/><path class="d" d="M395.091,380.621c-.1.891.445,2.226-.2,3.067-.594.841-1.979.792-3.018,1.138-1.83.643-3.661,1.187-5.491,1.83-.742.247-1.138.247-1.088-.693q.074-2.523,0-5.046c0-.643.2-.891.841-1.088,2.622-.792,5.244-1.633,7.817-2.573,1.039-.346,1.187-.049,1.138.89C395.042,378.84,395.091,379.632,395.091,380.621Z" transform="translate(-194.203 -183.813)"/><path class="d" d="M395.1,160.211c-.1.891.445,2.276-.2,3.018-.594.693-1.929.792-2.919,1.138-1.929.643-3.809,1.237-5.739,1.88-.643.2-.94.148-.94-.643.05-1.781.05-3.562,0-5.294a.837.837,0,0,1,.742-.94c2.721-.841,5.442-1.781,8.212-2.672.594-.2.891-.148.891.594C395.1,158.183,395.1,159.073,395.1,160.211Z" transform="translate(-194.207 -72.391)"/><path class="d" d="M385.279,142.275c.148-.94-.495-2.325.247-3.117.643-.693,2.028-.792,3.067-1.138,1.831-.594,3.661-1.187,5.492-1.83.792-.247.989-.1.989.742q-.074,2.523,0,5.046c0,.643-.148.94-.792,1.138-2.672.841-5.294,1.682-7.965,2.573-.792.3-1.088.1-1.039-.792C385.329,144.105,385.279,143.314,385.279,142.275Z" transform="translate(-194.137 -62.024)"/><path class="d" d="M395.045,188.5v6.333c0,.544-.247.693-.693.841-2.77.891-5.541,1.781-8.311,2.721-.544.2-.841.148-.841-.544.049-1.83.049-3.612,0-5.442a.836.836,0,0,1,.693-.94C388.96,190.528,391.928,189.539,395.045,188.5Z" transform="translate(-194.157 -88.51)"/><path class="d" d="M395.1,209v6.333c0,.544-.247.693-.643.841-2.77.891-5.541,1.781-8.311,2.721-.693.247-.841,0-.841-.693.05-1.781.05-3.513,0-5.294a.8.8,0,0,1,.693-.94C389.01,211.028,391.979,210.039,395.1,209Z" transform="translate(-194.207 -98.868)"/><g transform="translate(73.643 172.585)"><path class="c" d="M109.769,399.236c.4-8.559.693-17.118,1.187-25.676.1-1.534,0-2.672-1.781-2.869-6.877-.742-10.29-5.689-13.654-10.884-.792-1.237-.495-2.523-.643-3.809a17.856,17.856,0,0,1,10.191-19.1c6.333-3.216,12.071-1.187,17.959,1.187a3.96,3.96,0,0,1,1.534,1.286c.643.742,1.039,1.633,1.732,2.325,5.1,4.749,4.354,10.884,4.057,16.92-.049,1.039-.989,1.633-1.435,2.474a17.9,17.9,0,0,1-13.951,9.944c-2.325.346-3.067,1.385-2.919,3.809.495,8.114.693,16.227.989,24.341C111.9,399.236,110.808,399.236,109.769,399.236ZM112,359.361c.742.792.148,1.88.594,2.721v6.877c1.088-1.583,1.732-2.573,2.424-3.562a5.451,5.451,0,0,1,.1.891c-.4,1.385-1.682,2.424-1.781,4.156,5.343-1.336,10.637-2.325,13.308-7.916.693-1.484,2.622-2.523,2.622-4.156.049-5.244,1.435-10.835-3.216-15.139-1.336-1.237-1.732-3.562-3.513-4.205-5.195-1.929-10.191-4.205-16.128-1.484-5.59,2.523-10.538,8.311-10.488,14.4,0,2.375-.792,5,.346,7.025,2.919,5.343,6.481,10.043,13.209,10.983,1.286.2,1.682.1,1.781-1.286C111.451,365.5,111.748,362.429,112,359.361Z" transform="translate(-94.66 -335.237)"/><path class="f" d="M116.089,366.333c-.693.989-1.336,1.979-2.424,3.562v-6.877c.594-3.958.2-7.965.1-11.972-.2,3.067-.445,6.184-.643,9.251-.247,3.067-.594,6.135-.742,9.251-.049,1.336-.445,1.435-1.781,1.286-6.679-.94-10.29-5.64-13.209-10.983-1.138-2.028-.3-4.7-.346-7.025-.049-6.135,4.9-11.873,10.488-14.4,5.986-2.721,10.933-.4,16.128,1.484,1.781.643,2.177,2.968,3.513,4.205,4.65,4.3,3.265,9.895,3.216,15.139,0,1.633-1.929,2.672-2.622,4.156-2.672,5.59-7.965,6.58-13.308,7.916.1-1.732,1.435-2.721,1.781-4.156a12.082,12.082,0,0,0,2.375-4.7A11.582,11.582,0,0,0,116.089,366.333Zm3.117-4.7a.713.713,0,0,0-.148-.1l-.2.2c.1.049.247.049.346.1Z" transform="translate(-95.735 -336.223)"/><path class="f" d="M129.7,374.551c.2-3.067.445-6.184.643-9.251.1,4.007.544,7.965-.1,11.972C129.848,376.382,130.442,375.343,129.7,374.551Z" transform="translate(-112.365 -350.427)"/><path class="f" d="M135.8,392.159a11.582,11.582,0,0,1,2.523-3.859,12.423,12.423,0,0,1-2.375,4.7C135.9,392.753,135.849,392.456,135.8,392.159Z" transform="translate(-115.447 -362.048)"/><path class="f" d="M141.746,386.485v.2c-.1-.049-.247-.049-.346-.1.049-.049.1-.148.2-.2C141.6,386.337,141.7,386.436,141.746,386.485Z" transform="translate(-118.276 -361.074)"/></g><g transform="translate(234.747 46.906)"><path class="f" d="M538.3,271.889V83.2h.2V271.839A.3.3,0,0,1,538.3,271.889Z" transform="translate(-506.26 -82.211)"/><path class="d" d="M564.334,242.181c-1.534-.4-3.068-.891-4.6-1.237-.643-.148-.792-.445-.742-.989.049-1.781.049-3.513,0-5.294,0-.693.2-.841.841-.643,1.138.346,2.276.643,3.414.94.346.1.742.445,1.089.049Z" transform="translate(-516.711 -158.374)"/><path class="d" d="M564.334,221.681c-1.534-.4-3.068-.891-4.6-1.237-.643-.148-.792-.445-.742-.989.049-1.781.049-3.513,0-5.294,0-.693.2-.841.841-.643,1.138.346,2.276.643,3.414.94.346.1.742.445,1.089.049Z" transform="translate(-516.711 -148.016)"/><path class="d" d="M564.293,406.654c-1.534-.4-3.067-.841-4.6-1.237-.495-.148-.792-.3-.792-.891.049-1.831.049-3.71,0-5.541,0-.693.2-.643.792-.544,1.534.3,2.968,1.088,4.6,1.039Z" transform="translate(-516.669 -241.465)"/><path class="d" d="M564.293,275.654c-1.534-.4-3.067-.841-4.6-1.237-.495-.148-.792-.3-.792-.891.049-1.831.049-3.71,0-5.541,0-.693.2-.643.792-.544,1.534.3,2.968,1.088,4.6,1.039Z" transform="translate(-516.669 -175.274)"/><path class="d" d="M564.293,386.154c-1.534-.4-3.067-.841-4.6-1.237-.495-.148-.792-.3-.792-.891.049-1.83.049-3.71,0-5.541,0-.693.2-.643.792-.544,1.534.3,2.968,1.088,4.6,1.039Z" transform="translate(-516.669 -231.107)"/><path class="d" d="M564.293,296.154c-1.534-.4-3.067-.841-4.6-1.237-.495-.148-.792-.3-.792-.89.049-1.831.049-3.71,0-5.541,0-.693.2-.643.792-.544,1.534.3,2.968,1.088,4.6,1.039Z" transform="translate(-516.669 -185.632)"/><path class="d" d="M564.293,185.654c-1.534-.4-3.067-.841-4.6-1.237-.495-.148-.792-.3-.792-.891.049-1.83.049-3.71,0-5.541,0-.693.2-.643.792-.544,1.534.3,2.968,1.088,4.6,1.039Z" transform="translate(-516.669 -129.799)"/><path class="d" d="M564.293,165.154c-1.534-.4-3.067-.841-4.6-1.237-.495-.148-.792-.3-.792-.891.049-1.831.049-3.71,0-5.541,0-.693.2-.643.792-.544,1.534.3,2.968,1.088,4.6,1.039Z" transform="translate(-516.669 -119.441)"/><path class="d" d="M564.343,327.316c-1.682-.2-3.216-.841-4.848-1.187-.4-.1-.495-.3-.495-.693V319.8c0-.792.4-.594.89-.495a46.065,46.065,0,0,0,4.5,1.138C564.343,322.715,564.343,324.991,564.343,327.316Z" transform="translate(-516.72 -201.457)"/><path class="d" d="M564.343,111.316c-1.682-.2-3.216-.841-4.848-1.187-.4-.1-.495-.3-.495-.693V103.8c0-.792.4-.594.89-.495a46.1,46.1,0,0,0,4.5,1.138C564.343,106.715,564.343,109.04,564.343,111.316Z" transform="translate(-516.72 -92.318)"/><path class="d" d="M564.343,347.816c-1.682-.2-3.216-.841-4.848-1.187-.4-.1-.495-.3-.495-.693V340.3c0-.792.4-.594.89-.495a46.074,46.074,0,0,0,4.5,1.138C564.343,343.215,564.343,345.491,564.343,347.816Z" transform="translate(-516.72 -211.815)"/><path class="d" d="M564.343,131.816c-1.682-.2-3.216-.841-4.848-1.187-.4-.1-.495-.3-.495-.693V124.3c0-.792.4-.594.89-.495a46.1,46.1,0,0,0,4.5,1.138C564.343,127.215,564.343,129.54,564.343,131.816Z" transform="translate(-516.72 -102.676)"/><path class="f" d="M544.5,81.5a.375.375,0,0,0-.2-.1C544.349,81.4,544.4,81.449,544.5,81.5Z" transform="translate(-509.292 -81.301)"/><path class="d" d="M505.033,175.94q0,46.6.049,93.207c0,1.237-.346,1.484-1.484,1.435-2.721-.1-5.442-.049-8.163,0-.841,0-1.039-.247-.989-1.039.049-4.65,0-9.3.049-13.951,0-.891-.2-1.187-1.138-1.138-3.067.049-6.184.049-9.251,0-.841,0-.99.247-.99,1.039.049,4.65,0,9.3.049,13.951,0,.89-.2,1.187-1.138,1.138-2.474-.1-4.947-.049-7.421,0-.792,0-1.187-.148-1.039-.989a2.385,2.385,0,0,0,0-.594V82.783c0-1.781-.2-1.534,1.583-1.534,9.5,0,18.948,0,28.447-.049,1.187,0,1.583.2,1.583,1.534Q504.959,129.337,505.033,175.94Zm-10.587-52.392c1.534,0,3.067-.049,4.552,0,.693,0,.89-.247.89-.89q-.074-2.968,0-5.937c0-.643-.148-.891-.841-.841-3.018.049-5.986.049-9,0-.643,0-.841.247-.841.841q.074,2.968,0,5.937c0,.693.148.94.89.94C491.527,123.5,493.011,123.549,494.446,123.549Zm.2,2.474c-1.534,0-3.067.049-4.552,0-.643,0-.841.2-.841.841.049,2.028.049,4.007,0,6.036,0,.544.1.792.742.792,3.018-.049,6.085,0,9.152,0,.594,0,.792-.148.792-.792-.049-2.028-.049-4.007,0-6.036,0-.742-.247-.89-.94-.89C497.513,126.022,496.079,126.022,494.644,126.022Zm-13.308-2.474h4.3c.594,0,.89-.1.89-.792-.049-2.028-.049-4.007,0-6.036,0-.643-.2-.841-.841-.841-2.919.049-5.838,0-8.757,0-.544,0-.792.148-.792.742.049,2.078.049,4.106,0,6.184,0,.594.2.792.792.792C478.367,123.5,479.852,123.549,481.336,123.549Zm-.148,10.142c1.484,0,2.968-.049,4.453,0,.693,0,.89-.247.89-.891q-.074-2.968,0-5.937c0-.643-.148-.89-.841-.841q-4.378.074-8.757,0c-.643,0-.841.247-.841.841q.074,2.968,0,5.937c0,.693.148.94.891.94C478.417,133.641,479.8,133.691,481.187,133.691Zm13.407,46.653h-4.8c-.594,0-.891.1-.841.792.049,2.276.049,4.5,0,6.778,0,.594.2.792.792.792,3.265,0,6.481-.049,9.746,0,.643,0,.742-.3.742-.841,0-2.276-.049-4.5,0-6.778,0-.594-.2-.742-.792-.742Zm.1,62.979c1.534,0,3.067-.049,4.552,0,.792.049.989-.247.94-.989q-.074-3.265,0-6.53c0-.594-.148-.841-.792-.841-3.216.049-6.432.049-9.6,0-.643,0-.841.2-.841.841q.074,3.339,0,6.679c0,.742.3.891.94.891C491.478,243.273,493.11,243.322,494.693,243.322Zm-.148-91.426h4.8c.594,0,.891-.049.891-.792-.049-2.276-.049-4.5,0-6.778,0-.693-.3-.792-.891-.792h-9.5c-.594,0-.89.1-.89.792.049,2.276.049,4.5,0,6.778,0,.594.148.792.742.742C491.329,151.9,492.912,151.9,494.545,151.9Zm.049,72.972h-4.947c-.495,0-.742.1-.742.693.049,2.325.049,4.6,0,6.926,0,.594.2.792.792.792,3.216,0,6.431-.049,9.6,0,.643,0,.841-.148.841-.841-.049-2.276-.049-4.5,0-6.778,0-.594-.2-.742-.792-.742C497.81,224.869,496.227,224.869,494.594,224.869Zm.1-54.667c-1.583,0-3.117.049-4.7,0-.742,0-1.088.1-1.039.989.049,2.127.049,4.255,0,6.431,0,.742.2.989.94.989q4.675-.074,9.351,0c.693,0,.94-.148.94-.891q-.074-3.339,0-6.679c0-.643-.2-.841-.841-.792C497.81,170.251,496.227,170.2,494.693,170.2Zm-.148-8.163h4.8c.594,0,.891-.1.841-.792-.049-2.276-.049-4.5,0-6.778,0-.594-.2-.792-.792-.792-3.216,0-6.432.049-9.6,0-.643,0-.841.148-.841.841.049,2.276.049,4.5,0,6.778,0,.594.2.742.792.742Zm-13.259,81.284h4.7c.594,0,.891-.1.891-.792-.05-2.276-.05-4.5,0-6.778,0-.594-.148-.792-.742-.742q-4.749.074-9.5,0c-.594,0-.742.2-.742.792.049,2.276.049,4.5,0,6.778,0,.693.3.792.891.792C478.268,243.322,479.753,243.322,481.286,243.322Zm.049-91.426c1.583,0,3.117-.049,4.7,0,.643,0,.841-.148.841-.792q-.074-3.339,0-6.679c0-.594-.1-.89-.792-.89q-4.675.074-9.35,0c-.643,0-.841.2-.841.841q.074,3.339,0,6.679c0,.742.3.891.94.841C478.268,151.847,479.8,151.9,481.336,151.9Zm0,72.972h-4.7c-.544,0-.792.1-.792.742.049,2.276.049,4.5,0,6.778,0,.643.2.841.841.841,3.067-.049,6.184-.049,9.251,0,.693,0,.94-.148.94-.89q-.074-3.339,0-6.679c0-.693-.2-.841-.841-.792Zm.049-44.525c-1.583,0-3.117.049-4.7,0-.742-.049-.891.247-.891.89q.074,3.265,0,6.53c0,.693.148.94.891.94,3.067-.049,6.184-.049,9.251,0,.594,0,.89-.1.89-.792-.049-2.276-.049-4.5,0-6.778,0-.594-.148-.792-.742-.742C484.5,180.393,482.968,180.343,481.385,180.343Zm.049-1.831c1.534,0,3.018-.049,4.552,0,.643,0,.841-.2.841-.841q-.074-3.339,0-6.679c0-.594-.1-.841-.792-.841q-4.675.074-9.35,0c-.643,0-.841.148-.841.792q.074,3.339,0,6.679c0,.742.247.891.94.891Zm-.049-24.786h-4.7c-.594,0-.891.1-.891.792.049,2.276.049,4.5,0,6.778,0,.594.148.792.742.742q4.749-.074,9.5,0c.594,0,.742-.2.742-.792-.049-2.276-.049-4.5,0-6.778,0-.693-.3-.792-.89-.792C484.453,153.727,482.919,153.727,481.385,153.727Zm13.16-46.257c1.583,0,3.117-.049,4.7,0,.792.049.94-.247.94-.989-.049-2.078-.049-4.205,0-6.283,0-.693-.1-1.039-.891-.989q-4.749.074-9.5,0c-.544,0-.841.049-.792.693.049,2.276.049,4.552,0,6.778,0,.594.2.742.792.742C491.329,107.421,492.962,107.47,494.545,107.47Zm0,98.9c1.583,0,3.117-.049,4.7,0,.792.049.94-.247.94-.989-.049-2.127-.049-4.3,0-6.431,0-.742-.247-.89-.94-.89-3.166.049-6.333,0-9.5,0-.544,0-.841.049-.792.693.049,2.276.049,4.551,0,6.778,0,.594.2.742.792.742C491.329,206.366,492.962,206.366,494.545,206.366ZM494.5,97.328c1.583,0,3.117-.049,4.7,0,.693,0,1.039-.1.989-.94-.049-2.127-.049-4.3,0-6.431,0-.643-.1-.94-.841-.94q-4.749.074-9.5,0c-.742,0-.89.247-.841.94.049,2.127.049,4.3,0,6.431,0,.792.247.94.99.94C491.478,97.279,492.962,97.328,494.5,97.328Zm.148,110.918H489.7c-.495,0-.742.049-.742.643.049,2.325.049,4.6,0,6.926,0,.544.2.693.693.693h9.746c.594,0,.742-.2.742-.792q-.074-3.339,0-6.679c0-.693-.247-.841-.841-.792C497.761,208.3,496.227,208.246,494.644,208.246ZM481.286,107.47c1.583,0,3.117-.049,4.7,0,.643,0,.841-.2.841-.841q-.074-3.339,0-6.679c0-.594-.2-.792-.792-.742h-9.5c-.544,0-.693.148-.693.693.049,2.276.049,4.552,0,6.778,0,.594.148.792.742.792C478.169,107.421,479.753,107.47,481.286,107.47Zm.148,98.9c1.484,0,2.968-.049,4.453,0,.792.049.989-.247.94-.989-.049-2.127-.049-4.3,0-6.431,0-.742-.247-.89-.89-.89-3.067.049-6.184,0-9.251,0-.544,0-.841.049-.792.693.049,2.276.049,4.551,0,6.778,0,.594.2.792.792.742C478.219,206.366,479.852,206.366,481.435,206.366Zm-.148,10.142c1.534,0,3.067-.049,4.552,0,.693,0,1.039-.1.989-.94-.049-2.127-.049-4.3,0-6.431,0-.643-.1-.94-.841-.94-3.067.049-6.184.049-9.251,0-.742,0-.891.247-.841.94.049,2.127.049,4.3,0,6.431,0,.792.247.94.99.94C478.318,216.458,479.8,216.508,481.286,216.508Zm.049-119.18c1.534,0,3.067-.049,4.552,0,.792.049.989-.247.94-.989-.049-2.127-.049-4.3,0-6.431,0-.742-.247-.891-.89-.891-3.067.049-6.184,0-9.251,0-.544,0-.841.049-.792.693.049,2.276.049,4.551,0,6.778,0,.594.2.792.792.742C478.169,97.279,479.753,97.328,481.336,97.328Z" transform="translate(-473.538 -81.2)"/><path class="d" d="M543.294,266.4c0-.891.049-1.831,0-2.721-.05-.594.2-.693.742-.544,1.385.4,2.771.792,4.156,1.138.495.1.643.346.643.841v5.541c0,.594-.247.693-.742.544-1.385-.4-2.77-.742-4.156-1.138-.495-.1-.643-.346-.643-.841C543.343,268.332,543.294,267.392,543.294,266.4Z" transform="translate(-508.781 -173.097)"/><path class="d" d="M543.249,335.2c1.732.445,3.315.891,4.947,1.286a.623.623,0,0,1,.544.792c0,1.831-.049,3.71,0,5.541,0,.693-.247.742-.792.544-1.336-.4-2.672-.742-4.057-1.088a.72.72,0,0,1-.693-.841C543.249,339.455,543.249,337.377,543.249,335.2Z" transform="translate(-508.736 -209.539)"/><path class="d" d="M543.3,98.8c1.731.445,3.315.891,4.947,1.286a.684.684,0,0,1,.594.792c0,1.83-.049,3.71,0,5.541,0,.693-.2.742-.792.544-1.336-.4-2.672-.742-4.057-1.088a.72.72,0,0,1-.693-.841Z" transform="translate(-508.787 -90.093)"/><path class="d" d="M548.741,288.6c-.148.94.544,2.474-.3,3.067-.693.495-2.028-.4-3.117-.643-2.127-.544-2.127-.544-2.127-2.771v-3.958c0-.594.148-.792.742-.643,1.336.4,2.672.792,4.007,1.088.643.148.742.495.742,1.039C548.741,286.67,548.741,287.56,548.741,288.6Z" transform="translate(-508.736 -183.47)"/><path class="d" d="M543.294,397.513c0-.891.049-1.83,0-2.721-.05-.742.2-.792.841-.594,1.237.4,2.523.742,3.809,1.039.693.148.89.495.89,1.187q-.074,2.523,0,5.046c0,.693-.148.989-.89.742-1.286-.4-2.622-.742-3.908-1.039-.594-.148-.742-.445-.742-1.039C543.343,399.245,543.294,398.4,543.294,397.513Z" transform="translate(-508.781 -239.299)"/><path class="d" d="M543.3,314.7c1.731.445,3.315.89,4.947,1.336.445.1.544.346.544.792v5.541c0,.544-.1.742-.693.594-1.385-.4-2.77-.792-4.156-1.138-.495-.1-.643-.346-.643-.841C543.3,318.955,543.3,316.877,543.3,314.7Z" transform="translate(-508.787 -199.181)"/><path class="d" d="M543.3,176.6c.05-1.138-.594-2.672.2-3.216.594-.4,2.078.346,3.117.643,2.127.544,2.127.544,2.127,2.82,0,1.237-.05,2.474,0,3.71.049.94-.346,1.039-1.089.792l-1.039-.3c-1.088-.3-2.622-.3-3.166-1.039C542.851,179.222,543.3,177.738,543.3,176.6Z" transform="translate(-508.684 -127.721)"/><path class="d" d="M543.284,156.08c.049-1.138-.594-2.672.148-3.216.594-.445,2.028.346,3.117.643,2.127.544,2.127.544,2.127,2.77,0,1.286-.049,2.573,0,3.809.049.792-.3.891-.94.693-.445-.148-.841-.247-1.286-.4-1.088-.3-2.573-.3-3.067-.989C542.888,158.653,543.284,157.218,543.284,156.08Z" transform="translate(-508.672 -117.343)"/><path class="d" d="M548.791,124.442c-.1.94.495,2.474-.247,3.067-.544.445-2.028-.346-3.117-.643-2.127-.544-2.127-.544-2.127-2.771v-4.057c0-.495.1-.643.643-.495,1.435.4,2.87.792,4.3,1.138.495.1.643.4.594.891C548.791,122.463,548.791,123.353,548.791,124.442Z" transform="translate(-508.787 -100.546)"/><path class="d" d="M548.742,378.417c-.1,1.138.594,2.672-.2,3.265-.594.4-2.028-.346-3.117-.643-2.127-.544-2.127-.544-2.127-2.77,0-1.336.049-2.622,0-3.958,0-.643.2-.792.792-.594.445.148.94.247,1.435.4,1.088.346,2.622.2,3.166,1.039C549.138,375.992,548.742,377.328,548.742,378.417Z" transform="translate(-508.787 -228.96)"/><path class="d" d="M543.225,233.183c0-1.088-.445-2.82.1-3.166.792-.544,2.127.3,3.216.594,2.127.544,2.127.594,2.127,2.77v3.958c0,.643-.2.742-.792.594-1.336-.4-2.672-.742-4.057-1.088-.495-.148-.742-.4-.693-.94.05-.891,0-1.831,0-2.721Z" transform="translate(-508.662 -156.303)"/><path class="d" d="M548.742,213.952c-.05,1.138.594,2.672-.2,3.265-.544.4-2.028-.4-3.117-.693-2.127-.544-2.127-.594-2.127-2.771V209.8c0-.594.148-.841.742-.594a12.143,12.143,0,0,0,1.435.4c1.089.346,2.622.2,3.166,1.088C549.138,211.478,548.742,212.864,548.742,213.952Z" transform="translate(-508.787 -145.828)"/><path class="f" d="M510.495,158.918c-1.435,0-2.869-.05-4.3,0-.693.049-.891-.247-.891-.94q.074-2.968,0-5.937c0-.643.148-.841.841-.841,3.018.049,5.986.049,9,0,.643,0,.841.247.841.841q-.074,2.968,0,5.937c0,.693-.2.94-.89.891C513.512,158.868,511.979,158.918,510.495,158.918Z" transform="translate(-489.586 -116.569)"/><path class="f" d="M510.642,171.8c1.435,0,2.869.049,4.3,0,.643,0,.94.148.94.891-.049,2.028-.049,4.007,0,6.036,0,.594-.2.792-.792.792h-9.153c-.643,0-.742-.247-.742-.792,0-2.028.05-4.007,0-6.036,0-.643.2-.841.841-.841C507.575,171.8,509.108,171.8,510.642,171.8Z" transform="translate(-489.536 -126.978)"/><path class="f" d="M483.944,158.918h-4.453c-.594,0-.792-.148-.792-.792.049-2.078.049-4.106,0-6.184,0-.643.247-.742.792-.742h8.757c.643,0,.841.2.841.841-.049,2.028-.049,4.007,0,6.036,0,.693-.247.841-.89.792C486.813,158.868,485.379,158.918,483.944,158.918Z" transform="translate(-476.146 -116.569)"/><path class="f" d="M483.8,179.418c-1.385,0-2.82-.049-4.205,0-.742.049-.891-.247-.891-.94q.074-2.968,0-5.937c0-.643.148-.841.841-.841q4.378.074,8.757,0c.693,0,.841.247.841.841q-.074,2.968,0,5.937c0,.693-.2.94-.891.891C486.764,179.368,485.28,179.418,483.8,179.418Z" transform="translate(-476.146 -126.927)"/><path class="c" d="M510.289,281.6h4.8c.594,0,.792.148.792.742-.049,2.276,0,4.5,0,6.778,0,.544-.1.841-.742.841-3.265-.05-6.481-.05-9.746,0-.594,0-.792-.2-.792-.792.049-2.276.049-4.5,0-6.778,0-.693.247-.792.841-.792Zm-.049,7.668h4.205c.594,0,.891-.1.891-.792-.049-1.831-.049-3.611,0-5.442,0-.693-.3-.792-.891-.792-2.77,0-5.541.049-8.262,0-.643,0-.94.148-.94.891.049,1.781.049,3.562,0,5.294,0,.643.148.89.792.841C507.469,289.219,508.855,289.268,510.24,289.268Z" transform="translate(-489.233 -182.457)"/><path class="c" d="M510.439,400.31c-1.583,0-3.216-.049-4.8,0-.643,0-.94-.1-.94-.891q.074-3.339,0-6.679c0-.643.2-.841.841-.841,3.216.049,6.432.049,9.6,0,.693,0,.841.247.792.841q-.074,3.265,0,6.53c0,.742-.148.989-.94.989C513.506,400.261,511.973,400.31,510.439,400.31Zm-.2-.643h4.3c.594,0,.792-.148.792-.742-.05-1.831-.05-3.612,0-5.442,0-.643-.148-.841-.841-.841-2.82.05-5.59.05-8.41,0-.643,0-.841.2-.841.841.049,1.831.049,3.612,0,5.442,0,.594.2.792.792.742C507.47,399.618,508.856,399.667,510.241,399.667Z" transform="translate(-489.283 -238.188)"/><path class="c" d="M510.333,215.611h-4.8c-.594,0-.792-.148-.742-.742.049-2.276.049-4.5,0-6.778,0-.693.247-.792.89-.792h9.5c.594,0,.891.1.891.792-.049,2.276-.049,4.5,0,6.778,0,.742-.3.792-.891.792C513.5,215.611,511.917,215.611,510.333,215.611Zm.148-.643h4.057c.594,0,.891-.148.841-.841-.049-1.83-.049-3.612,0-5.442,0-.594-.148-.792-.742-.792-2.82.049-5.689.049-8.509,0-.693,0-.792.247-.792.841.049,1.781.049,3.562,0,5.294,0,.742.3.891.94.891C507.662,214.919,509.047,214.968,510.482,214.968Z" transform="translate(-489.326 -144.915)"/><path class="c" d="M510.34,371.549h4.8c.544,0,.792.1.792.742-.049,2.276-.049,4.5,0,6.778,0,.643-.2.841-.841.841-3.216-.049-6.431,0-9.6,0-.594,0-.792-.148-.792-.792.049-2.325.049-4.6,0-6.926,0-.594.2-.693.742-.693C507.075,371.549,508.707,371.549,510.34,371.549Zm-.1,7.668h4.3c.594,0,.792-.148.792-.742-.05-1.83-.05-3.611,0-5.442,0-.643-.148-.841-.841-.841-2.82.049-5.59.049-8.41,0-.643,0-.841.2-.841.841.049,1.831.049,3.612,0,5.442,0,.594.2.792.792.742C507.47,379.168,508.856,379.218,510.241,379.218Z" transform="translate(-489.283 -227.881)"/><path class="c" d="M510.483,261.049c1.583,0,3.117.049,4.7,0,.643,0,.841.148.841.792q-.074,3.339,0,6.679c0,.742-.248.891-.94.891q-4.675-.074-9.35,0c-.742,0-.989-.2-.94-.989.049-2.127.049-4.255,0-6.431-.049-.891.3-.989,1.039-.989C507.366,261.1,508.9,261.049,510.483,261.049Zm-.148,7.668h4.205c.594,0,.891-.1.841-.792-.05-1.831-.05-3.612,0-5.442,0-.693-.3-.792-.891-.792-2.771,0-5.541.049-8.262,0-.693,0-.94.148-.94.89.049,1.781.049,3.562,0,5.294,0,.643.148.89.792.841C507.564,268.668,508.949,268.718,510.335,268.718Z" transform="translate(-489.327 -172.048)"/><path class="c" d="M510.29,236.061h-4.8c-.594,0-.792-.148-.792-.742.049-2.276.049-4.5,0-6.778,0-.643.247-.841.841-.841,3.216.049,6.432.049,9.6,0,.594,0,.792.2.792.792-.049,2.276-.049,4.5,0,6.778,0,.693-.247.792-.841.792Zm.049-.643c1.385,0,2.82-.049,4.205,0,.643,0,.841-.2.841-.841-.049-1.83-.049-3.611,0-5.442,0-.594-.2-.792-.742-.792-2.82.049-5.689,0-8.509,0-.544,0-.792.1-.792.742.049,1.83.049,3.612,0,5.442,0,.742.346.891.94.841C507.619,235.368,508.955,235.418,510.34,235.418Z" transform="translate(-489.283 -155.223)"/><path class="c" d="M483.642,400.361H479.09c-.594,0-.891-.1-.891-.792.049-2.276.049-4.5,0-6.778,0-.594.148-.792.742-.792q4.749.074,9.5,0c.594,0,.742.2.742.742-.049,2.276-.049,4.5,0,6.778,0,.693-.3.792-.891.792C486.759,400.361,485.225,400.361,483.642,400.361Zm0-.643c1.336,0,2.721-.049,4.057,0,.742.049.891-.2.891-.89q-.074-2.6,0-5.195c.049-.792-.247-.94-.99-.94-2.622.049-5.294.049-7.916,0-.792,0-.989.3-.94.989q.074,2.523,0,5.046c-.049.891.3.989,1.039.989C481.119,399.668,482.405,399.718,483.642,399.718Z" transform="translate(-475.893 -238.239)"/><path class="c" d="M483.691,215.561c-1.534,0-3.018-.049-4.552,0-.643,0-.94-.1-.94-.841q.074-3.339,0-6.679c0-.643.2-.841.841-.841q4.675.074,9.35,0c.693,0,.792.3.792.891,0,2.226-.049,4.453,0,6.679,0,.643-.2.841-.841.792C486.808,215.511,485.225,215.561,483.691,215.561Zm-.049-7.668c-1.286,0-2.573.049-3.809,0-.742-.049-1.088.1-1.039.989.1,1.682.049,3.364,0,5.046,0,.742.148,1.039.94.989q4.007-.074,8.015,0c.594,0,.891-.148.841-.841-.049-1.831-.049-3.612,0-5.442,0-.742-.3-.792-.891-.792C486.363,207.893,485.027,207.893,483.642,207.893Z" transform="translate(-475.893 -144.864)"/><path class="c" d="M483.691,371.6c1.583,0,3.117.049,4.7,0,.643,0,.841.148.841.792q-.074,3.339,0,6.679c0,.742-.247.89-.94.89-3.067-.049-6.184-.049-9.251,0-.643,0-.841-.2-.841-.841.049-2.276.049-4.5,0-6.778,0-.643.247-.742.792-.742Zm-.049,7.668c1.336,0,2.721-.049,4.057,0,.693,0,.94-.148.94-.891-.049-1.781-.049-3.562,0-5.294,0-.643-.148-.891-.841-.841q-4.081.074-8.163,0c-.643,0-.891.2-.841.841.049,1.83.049,3.611,0,5.442,0,.594.148.792.742.742C480.921,379.219,482.257,379.268,483.642,379.268Z" transform="translate(-475.893 -227.931)"/><path class="c" d="M483.69,281.543c1.583,0,3.117.049,4.7,0,.594,0,.792.148.742.742-.049,2.276-.049,4.5,0,6.778,0,.693-.247.792-.89.792-3.067-.049-6.184-.049-9.251,0-.742,0-.891-.247-.891-.94q.074-3.265,0-6.53c0-.693.148-.94.891-.89C480.574,281.593,482.157,281.543,483.69,281.543Zm-.1,7.668H487.8c.594,0,.792-.148.792-.742-.049-1.831-.049-3.612,0-5.442,0-.643-.148-.841-.841-.841q-4.082.074-8.163,0c-.643,0-.841.2-.841.841.049,1.831.049,3.612,0,5.442,0,.594.2.792.792.742C480.87,289.162,482.206,289.212,483.591,289.212Z" transform="translate(-475.843 -182.4)"/><path class="c" d="M483.74,269.361c-1.583,0-3.117-.049-4.7,0-.693,0-.94-.148-.94-.891q.074-3.339,0-6.679c0-.643.2-.792.841-.792q4.675.074,9.35,0c.693,0,.792.247.792.841q-.074,3.339,0,6.679c0,.643-.2.841-.841.841Zm-.247-.643H487.7c.594,0,.89-.1.89-.792-.049-1.831-.049-3.612,0-5.442,0-.693-.3-.792-.89-.792-2.672,0-5.343.049-8.015,0-.643,0-.94.148-.94.89.049,1.781.049,3.562,0,5.294,0,.643.148.89.792.841C480.87,268.668,482.206,268.718,483.492,268.718Z" transform="translate(-475.843 -172.048)"/><path class="c" d="M483.741,227.8h4.552c.594,0,.891.1.891.792-.049,2.276-.049,4.5,0,6.778,0,.594-.148.792-.742.792q-4.749-.074-9.5,0c-.594,0-.742-.148-.742-.742.049-2.276.049-4.5,0-6.778,0-.693.247-.792.891-.792C480.624,227.8,482.207,227.8,483.741,227.8Zm-.049,7.668c1.336,0,2.721-.049,4.057,0,.643,0,.841-.2.841-.841-.049-1.83-.049-3.612,0-5.442,0-.594-.2-.792-.742-.792-2.77.049-5.541.049-8.262,0-.544,0-.792.1-.792.742.049,1.83.049,3.611,0,5.442,0,.742.346.891.94.841C481.069,235.419,482.356,235.468,483.691,235.468Z" transform="translate(-475.893 -155.273)"/><path class="c" d="M510.29,125.9h-4.8c-.594,0-.792-.148-.792-.742.049-2.276.049-4.551,0-6.778,0-.643.3-.742.792-.693,3.166,0,6.333.049,9.5,0,.841,0,.94.3.89.989-.049,2.078-.049,4.205,0,6.283,0,.742-.148,1.039-.94.989C513.457,125.852,511.874,125.9,510.29,125.9Zm0-7.668c-1.286,0-2.572.049-3.809,0-.891-.049-1.237.148-1.187,1.138.1,1.633.049,3.265,0,4.947,0,.792.148,1.088.989,1.039q4.082-.074,8.163,0c.792,0,.94-.3.94-.989q-.074-2.6,0-5.195c.049-.792-.3-.989-.989-.94Z" transform="translate(-489.283 -99.631)"/><path class="c" d="M510.29,325.8h-4.8c-.594,0-.792-.148-.792-.742.049-2.276.049-4.551,0-6.778,0-.643.3-.742.792-.693,3.166,0,6.333.049,9.5,0,.693,0,.94.148.94.891-.049,2.127-.049,4.3,0,6.431,0,.742-.148.989-.94.989C513.457,325.752,511.874,325.8,510.29,325.8Zm0-.594H514.5c.594,0,.89-.148.841-.792-.05-1.831-.05-3.611,0-5.442,0-.594-.148-.891-.792-.891-2.82.049-5.591.049-8.41,0-.594,0-.89.148-.89.841.049,1.83.049,3.611,0,5.442,0,.742.3.891.94.841Z" transform="translate(-489.283 -200.635)"/><path class="c" d="M510.241,105.311c-1.534,0-3.067-.049-4.551,0-.742,0-.99-.1-.99-.94.049-2.127.049-4.3,0-6.431,0-.643.1-.94.841-.94q4.749.074,9.5,0c.742,0,.89.247.841.94-.049,2.127-.049,4.3,0,6.431,0,.841-.3.94-.99.94C513.407,105.262,511.824,105.311,510.241,105.311Zm.1-.594c1.336,0,2.721-.049,4.057,0,.643,0,.989-.1.94-.841-.049-1.83-.049-3.612,0-5.442,0-.643-.247-.841-.841-.841-2.82.049-5.59.049-8.41,0-.643,0-.841.247-.841.841.049,1.781.049,3.562,0,5.294-.05.792.3.989.989.94C507.619,104.668,509,104.718,510.34,104.718Z" transform="translate(-489.283 -89.183)"/><path class="c" d="M510.432,338h4.7c.643,0,.841.148.841.792q-.074,3.339,0,6.679c0,.594-.148.792-.742.792-3.265-.049-6.53,0-9.746,0-.544,0-.742-.148-.693-.693.049-2.325.049-4.6,0-6.926,0-.594.3-.643.742-.643C507.118,338.049,508.8,338,510.432,338Zm.049,7.668h4.057c.594,0,.891-.1.891-.792-.049-1.83-.049-3.611,0-5.442,0-.742-.3-.891-.94-.891q-4.082.074-8.163,0c-.841,0-1.039.3-.989,1.088.049,1.633.049,3.315,0,4.947-.05.841.148,1.187,1.088,1.138C507.761,345.619,509.1,345.668,510.482,345.668Z" transform="translate(-489.326 -210.954)"/><path class="c" d="M483.635,125.862h-4.7c-.594,0-.792-.2-.742-.792.049-2.276.049-4.551,0-6.778,0-.544.148-.693.693-.693h9.5c.594,0,.792.148.792.742q-.074,3.339,0,6.679c0,.643-.2.841-.841.841C486.8,125.812,485.218,125.862,483.635,125.862Zm.1-7.668h-4.057c-.594,0-.94.1-.891.792.05,1.83.05,3.71,0,5.541,0,.594.247.742.792.742,2.77,0,5.491-.049,8.262,0,.594,0,.792-.2.742-.792-.049-1.83-.049-3.71,0-5.541,0-.594-.2-.792-.792-.792C486.454,118.194,485.119,118.194,483.733,118.194Z" transform="translate(-475.886 -99.592)"/><path class="c" d="M483.79,325.812h-4.8c-.594,0-.792-.148-.792-.742.049-2.276.049-4.551,0-6.778,0-.643.3-.693.792-.693,3.067,0,6.184.049,9.252,0,.693,0,.94.148.891.891-.049,2.127-.049,4.3,0,6.431,0,.742-.148.989-.94.989A43.271,43.271,0,0,0,483.79,325.812Zm-.1-7.668c-1.237,0-2.474.049-3.71,0-.891-.049-1.237.148-1.187,1.138.1,1.633.049,3.265,0,4.947,0,.792.148,1.088.99,1.039,2.622-.049,5.244-.049,7.916,0,.792,0,.94-.3.94-.99q-.074-2.6,0-5.195c.049-.792-.3-.989-.99-.94C486.313,318.194,484.978,318.144,483.691,318.144Z" transform="translate(-475.893 -200.646)"/><path class="c" d="M483.642,346.211c-1.484,0-2.968-.049-4.453,0-.742.05-.99-.148-.99-.94.049-2.127.049-4.3,0-6.431,0-.643.148-.94.841-.94,3.067.049,6.184.049,9.251,0,.742,0,.891.247.841.94-.049,2.127-.049,4.3,0,6.431,0,.841-.3.94-.989.94Zm.049-7.668c-1.237,0-2.474.049-3.711,0-.891-.049-1.237.148-1.187,1.138.1,1.633.049,3.265,0,4.947,0,.742.148,1.088.989,1.039,2.622-.049,5.244-.049,7.916,0,.792,0,.94-.3.94-.989q-.074-2.6,0-5.195c.049-.792-.3-.989-.989-.94C486.313,338.593,484.978,338.543,483.691,338.543Z" transform="translate(-475.893 -210.904)"/><path class="c" d="M483.691,105.412h-4.7c-.594,0-.792-.148-.792-.742.049-2.276.049-4.551,0-6.778,0-.643.3-.693.792-.693,3.067,0,6.184.049,9.252,0,.693,0,.94.148.891.891-.049,2.127-.049,4.3,0,6.431,0,.742-.148.989-.94.989C486.709,105.363,485.225,105.412,483.691,105.412Zm.049-7.668h-4.057c-.594,0-.891.148-.891.841.049,1.83.049,3.612,0,5.442,0,.643.148.841.841.841q4.081-.074,8.163,0c.594,0,.891-.148.841-.792-.049-1.83-.049-3.612,0-5.442,0-.742-.3-.891-.94-.891Z" transform="translate(-475.893 -89.284)"/><path class="d" d="M510.888,289.925c-1.385,0-2.82-.049-4.205,0-.693.049-.841-.247-.792-.841.049-1.781.049-3.562,0-5.294,0-.742.247-.891.94-.891,2.771.049,5.541,0,8.262,0,.594,0,.891.1.891.792-.049,1.831-.049,3.611,0,5.442,0,.693-.247.792-.891.792Z" transform="translate(-489.881 -183.114)"/><path class="d" d="M510.8,400.425c-1.385,0-2.82-.049-4.205,0-.594,0-.792-.148-.792-.742.05-1.831.05-3.612,0-5.442,0-.643.2-.841.841-.841,2.82.049,5.59.049,8.41,0,.643,0,.841.2.841.841-.049,1.83-.049,3.611,0,5.442,0,.594-.2.742-.792.742C513.716,400.376,512.231,400.425,510.8,400.425Z" transform="translate(-489.839 -238.946)"/><path class="d" d="M511.045,215.625c-1.385,0-2.82-.049-4.205,0-.643,0-.94-.148-.94-.891.05-1.781.05-3.562,0-5.294,0-.594.1-.841.792-.841,2.82.049,5.689.049,8.509,0,.594,0,.742.2.742.792-.049,1.83-.049,3.612,0,5.442,0,.693-.247.841-.841.841C513.766,215.576,512.381,215.625,511.045,215.625Z" transform="translate(-489.889 -145.572)"/><path class="d" d="M510.8,379.925c-1.385,0-2.82-.05-4.205,0-.594,0-.792-.148-.792-.742.05-1.831.05-3.612,0-5.442,0-.643.2-.841.841-.841,2.82.049,5.59.049,8.41,0,.643,0,.841.2.841.841-.049,1.831-.049,3.612,0,5.442,0,.594-.2.742-.792.742C513.716,379.876,512.231,379.925,510.8,379.925Z" transform="translate(-489.839 -228.588)"/><path class="d" d="M510.888,269.425c-1.385,0-2.82-.049-4.205,0-.693.049-.841-.2-.792-.841.049-1.781.049-3.562,0-5.294,0-.742.247-.891.94-.891,2.771.049,5.541,0,8.262,0,.594,0,.891.1.891.792-.049,1.83-.049,3.612,0,5.442,0,.693-.247.792-.841.792Z" transform="translate(-489.881 -172.755)"/><path class="d" d="M510.992,236.125h-4.057c-.643,0-.99-.1-.94-.841.049-1.831.049-3.611,0-5.442,0-.643.247-.742.791-.742,2.82,0,5.689.049,8.509,0,.594,0,.792.2.742.792-.049,1.83-.049,3.611,0,5.442,0,.643-.2.841-.841.841C513.762,236.076,512.377,236.125,510.992,236.125Z" transform="translate(-489.935 -155.93)"/><path class="d" d="M484.244,400.425c-1.286,0-2.573-.049-3.809,0-.742.05-1.088-.1-1.039-.989.1-1.682.049-3.364,0-5.046,0-.742.148-.989.94-.989,2.622.049,5.294.049,7.916,0,.742,0,.989.148.989.94q-.074,2.6,0,5.195c0,.693-.148.94-.89.89C486.965,400.376,485.629,400.425,484.244,400.425Z" transform="translate(-476.495 -238.946)"/><path class="d" d="M484.244,208.6H488.3c.594,0,.891.049.891.792-.049,1.83-.049,3.612,0,5.442,0,.693-.247.841-.841.841q-4.007-.074-8.015,0c-.792,0-.94-.3-.94-.989q.074-2.523,0-5.046c-.049-.891.3-.989,1.039-.989C481.72,208.649,483.007,208.6,484.244,208.6Z" transform="translate(-476.495 -145.572)"/><path class="d" d="M484.291,379.925c-1.336,0-2.721-.05-4.057,0-.594,0-.792-.2-.742-.742.049-1.831.049-3.612,0-5.442,0-.643.247-.841.841-.841,2.721,0,5.442.049,8.163,0,.643,0,.841.247.841.841-.049,1.781-.049,3.562,0,5.294,0,.742-.247.891-.94.891C487.012,379.876,485.627,379.925,484.291,379.925Z" transform="translate(-476.543 -228.588)"/><path class="d" d="M484.248,289.925c-1.336,0-2.721-.049-4.057,0-.594,0-.792-.148-.792-.742.049-1.831.049-3.612,0-5.442,0-.643.2-.841.841-.841q4.082.074,8.163,0c.643,0,.841.2.841.841-.049,1.83-.049,3.611,0,5.442,0,.594-.2.742-.792.742Z" transform="translate(-476.5 -183.114)"/><path class="d" d="M484.141,269.425c-1.336,0-2.622-.049-3.958,0-.693.049-.841-.247-.792-.841.049-1.781.049-3.562,0-5.294,0-.742.247-.891.94-.891,2.672.049,5.343,0,8.015,0,.594,0,.891.1.891.792-.049,1.83-.049,3.612,0,5.442,0,.693-.247.792-.891.792Z" transform="translate(-476.491 -172.755)"/><path class="d" d="M484.293,236.125h-3.958c-.643,0-.989-.1-.94-.841.049-1.831.049-3.611,0-5.442,0-.643.2-.742.792-.742,2.77,0,5.541.049,8.262,0,.594,0,.792.2.742.792-.049,1.83-.049,3.611,0,5.442,0,.643-.2.841-.841.841C487.014,236.076,485.678,236.125,484.293,236.125Z" transform="translate(-476.495 -155.93)"/><path class="d" d="M510.839,118.793c1.336,0,2.721.049,4.057,0,.742-.049,1.039.148.989.94q-.074,2.6,0,5.195c0,.742-.148.989-.94.989q-4.082-.074-8.163,0c-.841,0-1.039-.3-.989-1.039.049-1.633.1-3.315,0-4.947-.049-.989.346-1.187,1.187-1.138C508.316,118.842,509.553,118.793,510.839,118.793Z" transform="translate(-489.832 -100.191)"/><path class="d" d="M510.892,325.724c-1.336,0-2.721-.049-4.057,0-.643,0-.99-.1-.94-.841.049-1.831.049-3.612,0-5.442,0-.693.247-.841.891-.841,2.82,0,5.59.05,8.41,0,.693,0,.841.247.792.891-.049,1.831-.049,3.611,0,5.442,0,.693-.247.841-.841.792Z" transform="translate(-489.885 -201.152)"/><path class="d" d="M510.941,105.368c-1.336,0-2.721-.049-4.057,0-.742.049-1.039-.148-.99-.94.049-1.781.049-3.513,0-5.294,0-.643.148-.891.841-.841,2.82.049,5.59.049,8.41,0,.643,0,.89.148.841.841-.049,1.83-.049,3.612,0,5.442,0,.742-.3.891-.94.841C513.662,105.319,512.326,105.368,510.941,105.368Z" transform="translate(-489.884 -89.834)"/><path class="d" d="M511.038,346.174c-1.336,0-2.721-.049-4.057,0-.891.049-1.088-.3-1.088-1.138.049-1.633.049-3.315,0-4.947-.049-.792.148-1.088.989-1.088q4.082.074,8.163,0c.643,0,.94.148.94.89-.049,1.83-.049,3.612,0,5.442,0,.693-.247.841-.891.792C513.759,346.174,512.374,346.174,511.038,346.174Z" transform="translate(-489.882 -211.459)"/><path class="d" d="M484.347,118.8H488.4c.594,0,.792.148.792.792-.049,1.83-.049,3.71,0,5.541,0,.594-.148.792-.742.792-2.77-.049-5.491,0-8.262,0-.594,0-.792-.148-.792-.742.049-1.831.049-3.71,0-5.541,0-.693.3-.792.891-.792C481.626,118.8,483.011,118.8,484.347,118.8Z" transform="translate(-476.5 -100.198)"/><path class="d" d="M484.291,318.693c1.336,0,2.622.049,3.958,0,.742-.049,1.039.148.99.94q-.074,2.6,0,5.195c0,.742-.148.989-.94.989-2.622-.049-5.244-.049-7.916,0-.841,0-1.039-.3-.989-1.039.049-1.633.1-3.315,0-4.947-.049-.99.346-1.187,1.187-1.138C481.817,318.742,483.054,318.693,484.291,318.693Z" transform="translate(-476.493 -201.195)"/><path class="d" d="M484.291,339.193c1.336,0,2.622.049,3.958,0,.742-.049,1.039.148.99.94q-.074,2.6,0,5.195c0,.742-.148.989-.94.989-2.622-.049-5.244-.049-7.916,0-.841,0-1.039-.3-.989-1.039.049-1.633.1-3.315,0-4.947-.049-.99.346-1.187,1.187-1.138C481.817,339.242,483.054,339.193,484.291,339.193Z" transform="translate(-476.493 -211.553)"/><path class="d" d="M484.347,98.3c1.336,0,2.622.049,3.958,0,.643,0,.989.1.94.891-.049,1.83-.049,3.612,0,5.442,0,.693-.247.841-.841.792q-4.082-.074-8.163,0c-.643,0-.841-.247-.841-.841.049-1.83.049-3.612,0-5.442,0-.693.247-.841.891-.841Z" transform="translate(-476.5 -89.84)"/></g><path class="d" d="M608.9,118.6c-.049.247-.148.148-.2.049C608.749,118.649,608.8,118.6,608.9,118.6Z" transform="translate(-307.085 -53.191)"/><line class="h" y2="186.512" transform="translate(282.37 50.072)"/></g></svg>
