<?xml version="1.0" encoding="UTF-8"?>
<svg xmlns="http://www.w3.org/2000/svg" width="544.675" height="369.444" viewBox="0 0 544.675 369.444"><defs><style>.a{fill:#1d1d1b;}.b{fill:#266eff;}.c{fill:#1f0a4f;}.d{fill:#fafafb;}.e{fill:#fefefe;}.f{fill:#fa8462;}.g{fill:none;stroke:#200b4f;stroke-miterlimit:10;stroke-width:3px;}</style></defs><g transform="translate(0 -1.959)"><path class="a" d="M34.337,147.261c-1.338,2.854-2.854,5.8-4.1,8.206l-.089.089c-.357.714-.714,1.338-1.784,1.338h-.268l-.8-.089c-5.976-.624-12.22-1.249-18.285-1.606-.892-.089-1.427-.268-1.695-.624a2.244,2.244,0,0,1-.268-1.695c.178-1.338.268-2.765.446-4.1.357-2.943.624-6.065,1.07-9.1L8.827,137a25.642,25.642,0,0,1,1.16-6.244c3.568-9.365,6.6-17.215,9.455-25.153.624-1.695,1.338-2.141,3.122-1.695,2.765.624,5.619,1.16,8.3,1.784,3.122.624,6.244,1.338,9.365,1.962,1.427.357,1.784,0,2.141-1.338.624-2.051,1.338-4.014,2.051-5.976.535-1.427,1.07-2.943,1.516-4.371a3.473,3.473,0,0,1,2.587-2.587c2.854-.892,5.619-1.695,8.474-2.5,7.849-2.319,15.877-4.727,23.726-7.314,1.873-.624,3.746-1.16,5.619-1.695A63.668,63.668,0,0,0,98.289,77.6h1.962a1.6,1.6,0,0,1,.446.624,6.609,6.609,0,0,0,1.07,1.16c2.408,2.23,4.727,4.46,7.136,6.69,4.371,4.1,8.919,8.384,13.379,12.666,1.07.981,2.051.8,3.211.535,3.122-.714,6.333-1.427,9.365-2.141,7.046-1.606,14.36-3.211,21.407-5.084,2.5-.714,3.389.446,4.192,1.695a1.566,1.566,0,0,0,.357.446c1.873,2.5,3.746,5.084,5.619,7.492,3.122,4.281,6.422,8.652,9.722,12.933,1.516,1.962,1.427,2.854.357,4.906-.981,1.962-1.873,4.1-2.765,6.154l-.446,1.07c-1.16,2.676-2.408,5.441-3.568,8.028-.714,1.605-1.516,3.3-2.23,4.995-.446.981-.892,1.249-2.141.981-9.1-1.695-17.482-3.211-25.688-4.549-2.319-.357-4.281-.268-6.244,1.606-3.389,3.211-6.868,6.333-10.347,9.365-2.408,2.141-4.906,4.371-7.314,6.511a6.417,6.417,0,0,1-5.887,1.784c-2.765-.624-5.53-1.249-8.206-1.873-4.817-1.07-9.811-2.23-14.717-3.211a25.025,25.025,0,0,1-2.765-.714c-2.23-.624-4.638-1.338-7.046-.624-2.141.714-4.371,1.427-6.422,2.141-3.746,1.249-7.671,2.5-11.506,3.657a9.063,9.063,0,0,1-6.868-.357c-2.141-.981-4.192-2.141-6.244-3.211a80.938,80.938,0,0,0-10.079-4.906C34.961,146.013,34.783,146.191,34.337,147.261ZM21.671,154.4c1.427.089,2.765.178,4.192.357h0c1.606.446,2.5,0,3.211-1.605.624-1.427,1.338-2.943,1.962-4.281.624-1.16,1.16-2.408,1.695-3.657a2.452,2.452,0,0,1,1.16-1.427.8.8,0,0,1,.446-.089,3.667,3.667,0,0,1,1.427.446c2.854,1.516,5.8,3.033,8.652,4.46s5.8,2.943,8.652,4.46a5.831,5.831,0,0,0,4.995.446c3.568-1.249,7.225-2.408,10.793-3.568,2.408-.8,4.906-1.605,7.4-2.408a6.273,6.273,0,0,1,3.568-.268c4.1.892,8.206,1.784,12.22,2.676,5.708,1.249,11.685,2.5,17.482,3.835a4.59,4.59,0,0,0,4.727-1.338c2.943-2.765,5.976-5.441,8.92-8.028,3.122-2.765,6.244-5.619,9.365-8.384a5.718,5.718,0,0,1,5.262-1.516c3.835.714,7.849,1.338,11.6,1.962,4.727.8,9.633,1.606,14.45,2.5a1.928,1.928,0,0,0,2.587-1.427c3.122-7.314,5.708-13.2,8.206-18.642a2.848,2.848,0,0,0-.357-3.211c-6.244-8.206-10.971-14.45-15.342-20.426-1.07-1.427-1.962-1.427-3.479-1.07-4.817,1.16-9.633,2.319-14.36,3.389-5.352,1.249-10.971,2.5-16.412,3.835a3.83,3.83,0,0,1-4.1-1.16c-2.943-2.854-5.976-5.708-8.919-8.474-3.568-3.389-7.314-6.868-10.971-10.347a3.767,3.767,0,0,0-4.192-.892C81.788,85.182,66,90.087,50.124,94.993A4.134,4.134,0,0,0,47,98.115c-.535,1.695-1.07,3.389-1.606,4.995-.535,1.695-1.16,3.389-1.695,5.084-.535,1.784-1.249,2.141-3.122,1.695-3.211-.714-6.422-1.427-9.544-2.051-2.5-.535-5.084-.981-7.671-1.605-1.695-.357-2.408,0-3.033,1.605-1.16,3.033-2.319,6.154-3.479,9.187-1.873,4.817-3.746,9.722-5.441,14.717A46.2,46.2,0,0,0,9.63,142.8c-.178,2.051-.357,4.281-.714,6.333a3.659,3.659,0,0,0-.089.981,7.807,7.807,0,0,1-.178,1.427,2.412,2.412,0,0,0,0,1.605c.268.357.8.535,1.784.624C14.446,153.772,18.1,154.129,21.671,154.4Z" transform="translate(367.367 -52.6)"/><path class="b" d="M161.96,203.809a3.077,3.077,0,0,1,2-.841c4.733-.316,9.465-.736,14.093-1.262l.631-.105a2.536,2.536,0,0,1,2.524,1.683c.947,1.788,2.1,4.1,3.155,6.31,0,.105,0,.105.105.105s.105,0,.21-.105a74.188,74.188,0,0,0,7.677-3.786c1.578-.841,3.155-1.788,4.838-2.524a7.364,7.364,0,0,1,5.995-.315c3.05.841,5.995,1.893,8.94,2.84,1.683.526,3.365,1.052,4.943,1.578s3.155,0,4.838-.421a16.812,16.812,0,0,1,2.209-.526c3.786-.736,7.677-1.578,11.358-2.419,2.1-.526,4.207-.947,6.31-1.472a5.747,5.747,0,0,1,5.364,1.578c1.893,1.683,3.786,3.365,5.574,5.048,2.629,2.314,5.364,4.733,7.993,7.257a4.017,4.017,0,0,0,4,.947c6.31-1.052,12.726-2.209,19.772-3.471a2.1,2.1,0,0,1,2.734,1.367c.526,1.262,1.157,2.524,1.788,3.891.947,2,1.893,4.1,2.734,6.205l.316.841c.631,1.578,1.367,3.26,2.1,4.733.947,1.788,1.052,2.945-.421,4.838-2.524,3.26-5.048,6.626-7.467,9.991-1.472,1.893-2.84,3.891-4.312,5.784l-.21.316c-.736,1.052-1.683,2.419-4.312,1.683-5.469-1.472-11.043-2.734-16.512-3.891-2.419-.526-4.838-1.052-7.257-1.683-.947-.21-1.157-.21-1.578.21-3.471,3.26-6.836,6.521-10.307,9.781-1.788,1.683-3.576,3.365-5.469,5.153-.21.21-.421.526-.736.841a1.846,1.846,0,0,1-.421.526l-.315.421h-2.209l-.21-.105a46.461,46.461,0,0,0-9.045-3.26l-4.417-1.262c-6.1-2-12.3-3.891-18.3-5.679-2.209-.631-4.312-1.262-6.521-2a3.694,3.694,0,0,1-2.629-2.629c-.315-1.157-.736-2.209-1.157-3.365-.526-1.472-1.052-3.05-1.578-4.628a.8.8,0,0,1-.105-.421.8.8,0,0,0-.421.105L181,243.248c-2.1.421-4.312.841-6.415,1.367-1.893.421-2.945-.21-3.576-1.893-2.419-6.836-5.048-13.567-7.257-19.351a17.107,17.107,0,0,1-.947-5.048c-.105-.631-.105-1.367-.21-2-.315-2.314-.631-4.733-.841-7.046l-.316-3.155C161.539,205.176,161.434,204.335,161.96,203.809Zm72.252,56.477c2.84-2.734,5.679-5.364,8.519-7.993,2.314-2.209,4.628-4.312,6.836-6.521a4.105,4.105,0,0,1,2.84-1.262,5.279,5.279,0,0,1,1.262.21c4.207,1.052,8.519,2,12.621,2.945,3.681.841,7.362,1.683,11.148,2.629.947.21,1.157.105,1.683-.526,3.365-4.628,7.046-9.465,11.779-15.776a1.131,1.131,0,0,0,.21-1.472c-1.893-4.207-3.891-8.729-6.31-14.408-.21-.631-.316-.631-.947-.526-3.681.631-7.467,1.262-11.148,1.893-2.945.526-5.995,1.052-8.94,1.578a5.59,5.59,0,0,1-4.943-1.367c-2.314-2.209-4.838-4.417-7.152-6.521-2.314-2-4.628-4.1-6.941-6.205a2.936,2.936,0,0,0-2.84-.841c-4.522.947-8.94,2-13.462,2.945-3.155.631-6.31,1.367-9.465,2a6.959,6.959,0,0,1-3.26-.21l-5.679-1.893c-2.734-.841-5.574-1.788-8.309-2.734a3.163,3.163,0,0,0-3.05.316l-6.626,3.471c-2.209,1.157-4.417,2.209-6.626,3.471a2.654,2.654,0,0,1-2.209.315,2.561,2.561,0,0,1-1.472-1.683,22.1,22.1,0,0,0-1.367-2.734c-.526-1.052-1.052-2.209-1.578-3.365-.316-.841-.526-.947-1.262-.631l-3.471.316c-2.734.21-5.574.421-8.414.631a3.719,3.719,0,0,0-.631.105.8.8,0,0,0,.105.421,6.156,6.156,0,0,1,.21,1.367,1.334,1.334,0,0,0,.105.631,41.617,41.617,0,0,1,.526,4.943,35.186,35.186,0,0,0,1.367,8.309c1.262,3.786,2.734,7.572,4.1,11.253.947,2.314,1.788,4.733,2.734,7.152.315.841.315.841,1.157.631,2-.421,4-.841,5.89-1.262,2.419-.526,4.943-.947,7.362-1.578,2-.421,3.05.105,3.576,2,.421,1.262.841,2.629,1.262,3.891s.841,2.524,1.262,3.891a2.263,2.263,0,0,0,1.683,1.788c12.2,3.786,24.4,7.572,35.758,11.148A2.077,2.077,0,0,0,234.212,260.286Z" transform="translate(50.928 -77.341)"/><path class="c" d="M468.482,81.521c-7.292,1.823-14.488,3.646-21.779,5.469a3.77,3.77,0,0,1-2.3.288v17.27a68.407,68.407,0,0,0,8.731-2.207c.864-.192,1.727-.576,1.727.959-.1,3.646,0,7.292,0,10.938,0,.768-.192,1.151-.959,1.343-3.166.768-6.236,1.919-9.4,2.3v6.236a68.413,68.413,0,0,0,8.731-2.207c.864-.192,1.727-.576,1.727.959-.1,3.646,0,7.292,0,10.938,0,.768-.192,1.151-.959,1.343-3.166.768-6.236,1.919-9.4,2.3v18.23c3.166.1,5.949-1.439,8.923-2.015,1.151-.192,1.535-.288,1.535,1.055-.1,3.55-.1,7.2,0,10.746,0,1.151-.576,1.439-1.535,1.727-2.974.768-5.949,1.631-8.923,2.4v5.757c3.166.1,5.949-1.439,8.923-2.015,1.151-.192,1.535-.288,1.535,1.055-.1,3.55-.1,7.2,0,10.746,0,1.151-.576,1.439-1.535,1.727-2.974.768-5.949,1.631-8.923,2.4v20.628c.768.768,1.439,0,2.111-.1,2.207-.48,4.413-1.151,6.62-1.823,1.247-.384,1.727-.1,1.631,1.247-.1,3.454-.1,6.812,0,10.266,0,1.151-.288,1.631-1.439,1.919-2.974.672-5.949,1.535-8.923,2.4v5.757c.768.768,1.439,0,2.111-.1,2.207-.48,4.413-1.151,6.62-1.823,1.247-.384,1.727-.1,1.631,1.247-.1,3.454-.1,6.812,0,10.266,0,1.151-.288,1.631-1.439,1.919-2.974.672-5.949,1.535-8.923,2.4v18.23c3.166.1,5.949-1.439,8.923-2.015,1.151-.192,1.535-.288,1.535,1.055-.1,3.55-.1,7.2,0,10.746,0,1.151-.576,1.439-1.535,1.727-2.974.768-5.949,1.631-8.923,2.4v5.757c3.166.1,5.949-1.439,8.923-2.015,1.151-.192,1.535-.288,1.535,1.055-.1,3.55-.1,7.2,0,10.746,0,1.151-.576,1.439-1.535,1.727-2.974.768-5.949,1.631-8.923,2.4V311.6a68.406,68.406,0,0,0,8.731-2.207c.864-.192,1.727-.576,1.727.959-.1,3.646,0,7.292,0,10.938,0,.768-.192,1.151-.959,1.343-3.166.768-6.236,1.919-9.4,2.3v6.236a68.411,68.411,0,0,0,8.731-2.207c.864-.192,1.727-.576,1.727.959-.1,3.646,0,7.292,0,10.938,0,.768-.192,1.151-.959,1.343-3.166.768-6.236,1.919-9.4,2.3v23.027c3.166.1,5.949-1.439,8.923-2.015,1.151-.192,1.535-.288,1.535,1.055-.1,3.55-.1,7.2,0,10.746,0,1.151-.576,1.439-1.535,1.727-2.974.768-5.949,1.631-8.923,2.4V387.2c3.166.1,5.949-1.439,8.923-2.015,1.151-.192,1.535-.288,1.535,1.055-.1,3.55-.1,7.2,0,10.746,0,1.151-.576,1.439-1.535,1.727-2.974.768-5.949,1.631-8.923,2.4v45.766c0,1.439.288,1.727,1.727,1.727,9.307-.1,18.709,0,28.016,0V82.768h.384V448.7h89.708V112.511a12.858,12.858,0,0,1,.1-1.919c-6.14,1.055-11.993,3.07-18.038,4.413-2.59.576-5.085,1.535-7.676,1.823-.192.192-.384.384-.384-.1-.1-6.812-.1-13.528-.192-20.34,0-4.893-.1-9.69,0-14.584,0-1.727-.48-2.111-2.111-2.111-13.048.1-26.193,0-39.241,0-9.211.48-18.517-.959-27.632,1.055l-.1.192C468.77,81.329,468.674,81.425,468.482,81.521Zm7.2,183.351q0-90.38-.1-180.76c0-2.495.672-2.974,3.07-2.974,18.421.1,36.747,0,55.168.1,3.454,0,3.07-.48,3.07,2.974V445.344a4.623,4.623,0,0,0,0,1.151c.288,1.631-.576,2.015-2.015,1.919q-7.2-.144-14.392,0c-1.823.1-2.207-.48-2.207-2.207.1-9.019,0-18.038.1-27.056,0-1.535-.384-2.015-1.919-2.015-5.949.1-11.993.1-17.942,0-1.823,0-2.207.48-2.207,2.207.1,9.019,0,18.038.1,27.056,0,1.535-.384,2.015-1.919,2.015-5.277-.1-10.554-.192-15.831,0-2.3.1-2.878-.48-2.878-2.782Q475.63,355.251,475.678,264.871Zm-5.853-2.782c0,1.823-.1,3.646,0,5.469,0,.959-.288,1.439-1.247,1.631-2.686.672-5.373,1.439-8.059,2.207-.959.288-1.439.1-1.439-1.055.1-3.55,0-7.2,0-10.746,0-.959.288-1.439,1.247-1.631,2.686-.672,5.373-1.439,8.059-2.207.959-.288,1.439-.1,1.439,1.055C469.729,258.635,469.825,260.362,469.825,262.089Zm0,62.748v12.185c0,.959-.384,1.343-1.343,1.631-2.591.576-5.277,1.343-7.867,2.111-1.151.288-1.631.288-1.535-1.055.1-3.55,0-7.2,0-10.746,0-.863.288-1.343,1.055-1.535C463.4,326.564,466.467,325.7,469.825,324.837Zm0-226.814v12.185c0,.959-.384,1.343-1.343,1.631-2.591.672-5.277,1.343-7.867,2.111-1.151.384-1.631.192-1.535-1.055.1-3.55,0-7.2,0-10.746a1.327,1.327,0,0,1,1.151-1.535C463.4,99.75,466.467,98.887,469.825,98.023Zm-10.65,187v-5.373c0-1.055.192-1.727,1.439-2.015,2.591-.576,5.181-1.343,7.771-2.111,1.247-.384,1.535,0,1.439,1.247-.1,2.591,0,5.085,0,7.676,0,4.318,0,4.318-4.126,5.373-2.015.48-4.7,2.207-6.044,1.247C458.12,289.817,459.367,286.843,459.176,285.02Zm10.65,102.949c0,1.631-.1,3.358,0,4.989a1.632,1.632,0,0,1-1.439,2.015c-2.591.576-5.085,1.343-7.58,2.015-1.439.384-1.727-.1-1.727-1.439q.144-4.893,0-9.786c0-1.343.288-2.015,1.727-2.3,2.495-.576,4.893-1.247,7.388-2.015,1.247-.384,1.727-.192,1.631,1.151C469.729,384.515,469.825,386.242,469.825,387.969Zm0-82.8v12.185c0,.959-.288,1.343-1.247,1.631-2.686.672-5.373,1.439-8.059,2.207-1.151.288-1.343-.1-1.343-1.151V309.294c0-.863.192-1.343,1.055-1.535C463.3,306.9,466.467,306.128,469.825,305.168Zm-.192-129.238c0,2.207.864,5.085-.192,6.524s-4.03,1.343-6.14,2.015l-2.015.576c-1.439.48-2.207.384-2.111-1.535.192-2.4,0-4.8,0-7.2,0-4.318,0-4.318,4.126-5.469,2.111-.576,4.893-2.015,6.044-1.247C470.785,170.749,469.538,173.724,469.633,175.93Zm0-19.669c0,2.207.768,4.989-.192,6.524-.959,1.343-3.934,1.343-5.949,1.919a18.949,18.949,0,0,0-2.495.768c-1.247.384-1.919.192-1.823-1.343.1-2.495,0-4.893,0-7.388,0-4.318,0-4.318,4.126-5.373,2.111-.576,4.893-2.015,6.044-1.247C470.785,151.081,469.538,154.055,469.633,156.262Zm-10.458-28.783v-5.661c0-.959.192-1.439,1.151-1.727,2.782-.672,5.565-1.439,8.347-2.207,1.055-.288,1.247,0,1.247.959v7.867c0,4.318,0,4.318-4.126,5.373-2.111.576-4.989,2.015-6.044,1.247C458.12,132.275,459.367,129.3,459.176,127.478Zm.1,243.508c0-2.111-.768-4.8.192-6.332,1.055-1.727,4.03-1.439,6.14-2.015.864-.288,1.823-.48,2.782-.768,1.151-.384,1.535,0,1.535,1.151-.1,2.591,0,5.085,0,7.676,0,4.318,0,4.318-4.126,5.373-2.111.576-4.893,2.015-6.044,1.247C458.12,376.167,459.463,373.193,459.271,370.986Zm10.458-140.751h.1c0,1.727-.1,3.55,0,5.277.1,1.055-.384,1.535-1.343,1.823-2.591.672-5.277,1.343-7.867,2.111-1.151.288-1.535.1-1.535-1.151.1-2.591,0-5.085,0-7.676,0-4.318,0-4.318,4.126-5.373,2.111-.576,4.7-2.207,6.236-1.151C470.5,224.766,469.729,228.028,469.729,230.235Zm-10.458-16.982c0-2.111-.768-4.8.192-6.332,1.055-1.631,4.03-1.439,6.14-2.111.864-.288,1.919-.384,2.782-.768,1.247-.48,1.535,0,1.439,1.151-.1,2.591,0,5.085,0,7.676,0,4.222,0,4.222-4.126,5.373-2.015.576-4.989,2.111-6.044,1.343C458.12,218.434,459.367,215.46,459.271,213.253Z" transform="translate(-406.694 -77.683)"/><path class="d" d="M379.3,450.371h24.466v-35.4c7.1,2.3,14.1,4.605,21.012,6.812,1.343.48,1.055,1.439,1.055,2.3v26.289H440.7c0-1.055-.1-2.111-.1-3.07V138.934c0-1.919-.48-2.686-2.3-3.358-15.735-5.757-31.47-11.705-47.3-17.558-3.838-1.439-7.676-2.878-11.705-4.318V447.4C379.4,448.26,379.3,449.315,379.3,450.371Zm30.51-197.838H410v6.236c0,1.151-.288,1.439-1.343,1.055-5.949-2.015-11.9-3.934-17.942-5.853a1.554,1.554,0,0,1-1.343-1.823c.1-3.934.1-7.772,0-11.705,0-1.439.288-1.823,1.727-1.247,3.934,1.439,7.963,2.59,11.993,3.934,2.207.768,5.373.959,6.524,2.495C410.77,247.063,409.81,250.134,409.81,252.532Zm-20.436,13.144c0-1.919.1-3.838,0-5.757,0-1.247.192-1.727,1.631-1.247,5.853,2.015,11.8,3.838,17.654,5.757,1.151.384,1.343,1.055,1.343,2.111,0,3.838-.1,7.676,0,11.513,0,1.343-.1,1.823-1.727,1.343-5.757-1.919-11.513-3.742-17.27-5.565-1.247-.384-1.823-.863-1.727-2.3C389.47,269.515,389.374,267.6,389.374,265.677Zm0,59.1c0-1.919.1-3.838,0-5.757-.1-1.439.288-1.823,1.727-1.247,5.757,2.015,11.609,3.838,17.462,5.661,1.055.384,1.535.864,1.439,2.015-.1,3.934-.1,7.772,0,11.705,0,1.343-.288,1.631-1.631,1.247-4.222-1.439-8.443-2.782-12.761-4.126-2.015-.672-4.7-.768-5.949-2.207-1.343-1.535-.288-4.318-.384-6.524A2.113,2.113,0,0,0,389.374,324.779Zm0-19.669c0-1.919.1-3.838,0-5.757-.1-1.439.288-1.823,1.727-1.247,5.757,2.015,11.609,3.838,17.462,5.661,1.055.384,1.535.863,1.439,2.015-.1,3.934-.1,7.772,0,11.705,0,1.343-.288,1.631-1.631,1.247-4.222-1.439-8.443-2.782-12.761-4.126-2.015-.672-4.7-.768-5.949-2.207-1.343-1.535-.288-4.318-.384-6.524A2.113,2.113,0,0,0,389.374,305.11Zm25.905-50.179c0-2.3.1-4.222,0-6.14-.1-1.439.288-1.727,1.727-1.343,5.661,1.919,11.321,3.742,17.078,5.565a1.737,1.737,0,0,1,1.439,2.015q-.144,5.757,0,11.513c.1,1.823-.672,1.727-2.015,1.247-3.742-1.247-7.388-2.4-11.13-3.646-2.3-.768-5.181-.959-6.62-2.495C414.32,260.016,415.567,256.946,415.279,254.931Zm0,11.705c6.524,2.111,12.761,4.222,18.9,6.14a1.565,1.565,0,0,1,1.247,1.727c0,4.03-.1,7.963,0,11.993,0,1.247-.384,1.535-1.535,1.151-5.757-1.919-11.513-3.742-17.27-5.565-1.055-.288-1.343-.863-1.343-1.919C415.375,275.751,415.279,271.337,415.279,266.636Zm0,59.006c6.62,2.111,12.857,4.222,19.285,6.236,1.151.384.959,1.151.959,1.919v11.513c0,1.439-.384,1.823-1.727,1.343-5.661-1.919-11.321-3.742-16.982-5.565-.768-.288-1.439-.48-1.439-1.535C415.279,334.949,415.279,330.44,415.279,325.642Zm.1-12.089h-.1c0-1.919.1-3.838,0-5.757-.1-1.343.192-1.823,1.631-1.343,5.757,1.919,11.417,3.838,17.174,5.661a1.6,1.6,0,0,1,1.343,1.823c0,3.934-.1,7.772,0,11.705,0,1.631-.576,1.727-1.823,1.247-3.838-1.247-7.676-2.495-11.513-3.838-2.207-.768-5.373-.768-6.428-2.591C414.608,318.83,415.375,315.952,415.375,313.553ZM388.8,144.306c7.1,2.3,13.912,4.509,20.724,6.716.959.288,1.151.863,1.151,1.727v13.432c0,1.343-.576,1.343-1.631,1.055-6.332-2.111-12.665-4.126-19-6.14a1.589,1.589,0,0,1-1.247-1.727C388.8,154.381,388.8,149.583,388.8,144.306Zm.1-11.513h-.1c0-2.111.1-4.126,0-6.236-.1-1.823.48-1.919,2.015-1.439,6.14,2.015,12.185,4.126,18.326,6.045,1.151.384,1.535.768,1.535,1.919-.1,4.413-.1,8.731,0,13.144,0,1.439-.48,1.631-1.727,1.151-4.126-1.439-8.347-2.686-12.473-4.126-2.495-.863-6.045-.863-7.292-2.878C387.935,138.646,388.894,135.479,388.894,132.793Zm21.78,246.291c-7.2-2.3-14.2-4.605-21.108-6.812a.951.951,0,0,1-.768-1.055V355.769c7.1,2.3,13.912,4.509,20.724,6.716a1.378,1.378,0,0,1,1.151,1.535C410.578,368.914,410.674,373.807,410.674,379.084ZM388.8,375.342c7.1,2.3,13.912,4.605,20.724,6.716,1.247.384,1.151,1.151,1.151,2.015,0,4.222-.1,8.443,0,12.665,0,1.535-.192,1.919-1.823,1.439-6.14-2.111-12.377-4.03-18.613-6.045-.863-.288-1.439-.576-1.439-1.727C388.8,385.512,388.8,380.619,388.8,375.342Zm21.875-176.635c-7.1-2.3-13.816-4.509-20.532-6.716-.959-.288-1.247-.672-1.247-1.631V176.736c0-.863.192-1.343,1.247-.959,6.524,2.111,12.953,4.318,19.477,6.332a1.378,1.378,0,0,1,1.151,1.535C410.578,188.441,410.674,193.43,410.674,198.707Zm0,10.746c0,2.59-.1,4.8,0,6.908.1,1.439-.1,2.015-1.727,1.439-6.14-2.111-12.377-4.126-18.613-6.045a1.921,1.921,0,0,1-1.535-2.207q.144-6.332,0-12.665c0-1.727.48-1.727,1.919-1.247,4.126,1.439,8.347,2.686,12.473,4.03,2.4.768,5.661.959,7,2.59C411.633,203.984,410.482,207.246,410.674,209.453Zm4.03,183.063c0-2.686.1-4.8,0-7-.1-1.343.288-1.727,1.631-1.247,6.044,2.015,12.089,4.03,18.134,5.949,1.343.384,1.631,1.151,1.631,2.4-.1,4.126-.1,8.347,0,12.473,0,1.535-.192,2.015-1.823,1.439-3.934-1.343-7.867-2.591-11.8-3.838-2.495-.863-5.757-1.055-7.2-2.686C413.552,397.985,414.9,394.627,414.7,392.516ZM436,378.6c0,2.686-.1,4.8,0,7,.1,1.343-.288,1.631-1.631,1.247-6.14-2.015-12.185-4.03-18.421-5.949a1.741,1.741,0,0,1-1.343-2.111c0-4.222.1-8.443,0-12.665,0-1.535.288-1.919,1.823-1.343,3.934,1.343,7.867,2.591,11.8,3.838,2.495.863,5.757,1.055,7.2,2.782C437.155,373.135,435.812,376.493,436,378.6ZM414.7,161c0-2.111.1-4.318,0-6.428,0-1.343.192-1.823,1.727-1.343,5.949,2.015,11.9,3.934,17.942,5.853,1.343.384,1.823.959,1.727,2.3-.1,4.126-.1,8.347,0,12.473,0,1.631-.288,2.015-2.015,1.439-5.853-2.015-11.8-3.934-17.75-5.757a2.125,2.125,0,0,1-1.727-2.591C414.8,165.031,414.7,163.016,414.7,161ZM436,147.952c0,2.111-.1,4.318,0,6.428.1,1.439-.288,1.823-1.727,1.343-6.045-2.015-12.089-4.03-18.134-5.949-1.151-.384-1.535-.768-1.535-2.015.1-4.413.1-8.827,0-13.144,0-1.535.48-1.439,1.727-1.055,5.949,2.015,11.9,3.934,17.942,5.757a2.125,2.125,0,0,1,1.727,2.59Zm-21.3,35.692c6.908,2.3,13.528,4.509,20.244,6.62,1.055.288,1.151.863,1.151,1.727v13.432c0,.959,0,1.535-1.343,1.151-6.236-2.111-12.569-4.03-18.805-6.045A1.53,1.53,0,0,1,414.7,198.8C414.7,193.814,414.7,189.017,414.7,183.644Zm21.3,34.54c0,2.207-.1,4.509,0,6.716,0,1.343-.288,1.631-1.631,1.151-6.045-2.015-12.089-3.934-18.134-5.853-1.151-.384-1.631-.863-1.631-2.111q.144-6.476,0-12.953c0-1.631.576-1.631,1.823-1.247,5.469,1.823,10.842,3.742,16.311,5.277,2.686.768,3.742,2.111,3.358,4.8A30.672,30.672,0,0,0,436,218.184Z" transform="translate(-220.223 -79.064)"/><path class="c" d="M203.859,450.3V113.536c4.03,1.535,7.867,2.974,11.705,4.318,15.735,5.853,31.47,11.8,47.3,17.558,1.823.672,2.3,1.535,2.3,3.358q-.144,154.136,0,308.367c0,1.055.1,2.111.1,3.07h19.189c.1-19.189.192-38.474.288-57.663a6.291,6.291,0,0,1,.864-3.166c4.893-8.059,9.786-16.119,14.584-24.178,2.4-3.934,4.7-7.867,7.2-11.993a29.685,29.685,0,0,1,1.535,2.591c6.524,11.034,12.953,22.163,19.477,33.2a9.088,9.088,0,0,1,1.247,4.7c-.1,12.569-.192,25.234-.192,37.8v18.709h.959c0-8.731.1-17.462.192-26.1,0-.768-.48-1.919.48-2.111,2.782-.768,5.277-2.495,8.635-1.631,5.469,1.247,9.595,3.838,12.281,8.827a16.277,16.277,0,0,0,.959,1.343,1.574,1.574,0,0,0,1.151.672c2.878.768,5.757,1.727,8.731,2.591a5.322,5.322,0,0,1,2.207,1.631c3.934,4.222,6.14,9.019,5.181,14.871H384.14c.192-15.639.384-31.278.48-46.917.1-12.569.192-25.042.1-37.61,0-2.111.48-2.686,2.591-2.686,13.528.192,26.961.288,40.489.384,1.727,0,3.934-.768,5.085.288s.192,3.358.192,5.085q-.144,40.729-.48,81.457h1.439c-.1-4.509-.192-9.115-.192-13.624q.144-25.329.288-50.659a3.27,3.27,0,0,1,.288-2.111,157.657,157.657,0,0,1,.1-16.5c-.1-5.181-.1-5.181-5.181-5.181-33.869-.1-67.737-.1-101.7-.192-2.207,0-2.591.672-2.495,2.591.192,5.181.1,10.266.1,16.215-5.085-8.731-9.69-16.886-14.488-24.946-.576-.959-1.151-1.823-1.631-2.782a3.981,3.981,0,0,0-4.222-2.4c-11.993.192-23.986,0-35.979.1-2.3,0-2.686-.672-2.686-2.782.1-69.752,0-139.6.1-209.352,0-2.3-.384-3.454-2.878-4.413-17.27-6.236-34.444-12.761-51.618-19.093-2.3-.864-4.605-1.823-6.908-2.686-.672-.288-1.343-.672-2.015-.288,0,1.055.1,2.111.1,3.07V450.3Z" transform="translate(-44.783 -78.996)"/><path class="e" d="M252.362,460.914c.192-27.152.288-54.3.48-81.457,0-1.727.959-3.934-.192-5.085-1.151-1.055-3.358-.288-5.085-.288-13.528-.1-26.96-.192-40.489-.384-2.207,0-2.591.576-2.591,2.686.1,12.569,0,25.042-.1,37.61-.1,15.639-.288,31.278-.48,46.917H220.22c.1-8.539.1-17.078.192-25.617.1-5.853,4.8-10.266,10.938-10.362s11.417,4.222,11.417,9.882c-.1,8.731.192,17.366-.384,26.1Z" transform="translate(135.544 -89.607)"/><path class="e" d="M357.1,460.5c0-6.236-.1-12.473,0-18.709,0-12.569.1-25.233.192-37.8a8.851,8.851,0,0,0-1.247-4.7c-6.524-11.034-12.953-22.163-19.477-33.2-.48-.768-.863-1.439-1.535-2.591-2.495,4.126-4.893,8.059-7.2,11.993-4.893,8.059-9.69,16.119-14.584,24.178a6.039,6.039,0,0,0-.863,3.166c-.1,19.189-.192,38.474-.288,57.663h13.432V435.842a22.019,22.019,0,0,1,.192-3.55A9.077,9.077,0,0,1,335.319,425c4.8.384,8.251,4.126,8.251,9.4,0,8.731-.192,17.366-.288,26.1Zm-22.451-63.8a5.249,5.249,0,0,1,5.181,4.989,5.036,5.036,0,0,1-4.989,5.085,4.957,4.957,0,0,1-5.085-4.893A5.169,5.169,0,0,1,334.647,396.7Z" transform="translate(-72.334 -89.193)"/><path class="e" d="M309.384,463.327c.959-5.949-1.247-10.65-5.181-14.871A5.322,5.322,0,0,0,302,446.824c-2.878-.863-5.757-1.727-8.731-2.591a2.3,2.3,0,0,1-1.151-.672,11.641,11.641,0,0,1-.959-1.343c-2.686-4.989-6.812-7.58-12.281-8.827-3.358-.768-5.853.959-8.635,1.631-.959.288-.48,1.439-.48,2.111-.1,8.731-.1,17.462-.192,26.1C282.808,463.327,296.144,463.327,309.384,463.327Z" transform="translate(16.157 -92.02)"/><path class="c" d="M237,463.079c.672-8.635.384-17.366.384-26.1,0-5.661-5.277-9.978-11.417-9.882s-10.842,4.509-10.938,10.362c-.1,8.539-.1,17.078-.192,25.617Z" transform="translate(140.832 -91.772)"/><path class="c" d="M416.819,463.1V436.815c0-.863.384-1.823-1.055-2.3-7-2.207-13.912-4.509-21.012-6.812v35.4Z" transform="translate(-211.209 -91.797)"/><path class="c" d="M344.25,463.1c.1-8.731.288-17.366.288-26.1,0-5.277-3.454-9.019-8.251-9.4a8.993,8.993,0,0,0-9.594,7.292,22.02,22.02,0,0,0-.192,3.55V463.1Z" transform="translate(-73.397 -91.791)"/><path class="b" d="M444.78,450.306V115.266c0-1.055-.1-2.111-.1-3.07l-.192-.1-.1.192c0,.672-.1,1.247-.1,1.919V450.4A1.043,1.043,0,0,1,444.78,450.306Z" transform="translate(-286.663 -78.999)"/><path class="d" d="M203.03,378.1c-.384,5.469-.192,11.034-.1,16.5C203.03,389.134,203.03,383.665,203.03,378.1Z" transform="translate(186.794 -89.785)"/><path class="d" d="M471.7,118.6c.1.48.288.288.384.1C471.988,118.7,471.892,118.6,471.7,118.6Z" transform="translate(-340.256 -79.263)"/><path class="f" d="M147.6,448.4h0l-.1-.1Z" transform="translate(295.286 -92.632)"/><path class="b" d="M431.708,257.824c0-2.4.864-5.373-.288-7-1.151-1.535-4.222-1.727-6.524-2.495-4.03-1.343-8.059-2.495-11.993-3.934-1.535-.48-1.727-.1-1.727,1.247.1,3.934.1,7.772,0,11.705a1.622,1.622,0,0,0,1.343,1.823c5.949,1.919,11.993,3.838,17.942,5.853,1.055.384,1.439.1,1.343-1.055-.1-2.111,0-4.126,0-6.236C431.9,257.824,431.8,257.824,431.708,257.824Z" transform="translate(-242.121 -84.355)"/><path class="b" d="M411.21,271.792c0,1.919.1,3.838,0,5.757-.1,1.439.48,1.919,1.727,2.3,5.757,1.823,11.513,3.646,17.27,5.565,1.631.576,1.727,0,1.727-1.343-.1-3.838,0-7.676,0-11.513,0-1.055-.192-1.727-1.343-2.111-5.949-1.823-11.8-3.742-17.654-5.757-1.439-.48-1.631,0-1.631,1.247C411.306,267.954,411.21,269.873,411.21,271.792Z" transform="translate(-242.059 -85.179)"/><path class="b" d="M411.462,333.391v.672c.1,2.207-.863,4.989.384,6.524,1.151,1.439,3.838,1.535,5.949,2.207,4.222,1.343,8.539,2.686,12.761,4.126,1.343.48,1.631.1,1.631-1.247-.1-3.934-.1-7.772,0-11.705a1.811,1.811,0,0,0-1.439-2.015c-5.853-1.823-11.705-3.646-17.462-5.661-1.535-.48-1.823-.192-1.727,1.247C411.462,329.553,411.462,331.472,411.462,333.391Z" transform="translate(-242.312 -87.676)"/><path class="b" d="M411.462,312.891v.672c.1,2.207-.863,4.989.384,6.524,1.151,1.439,3.838,1.535,5.949,2.207,4.222,1.343,8.539,2.686,12.761,4.126,1.343.48,1.631.1,1.631-1.247-.1-3.934-.1-7.772,0-11.705a1.811,1.811,0,0,0-1.439-2.015c-5.853-1.823-11.705-3.646-17.462-5.661-1.535-.48-1.823-.192-1.727,1.247C411.462,309.053,411.462,310.972,411.462,312.891Z" transform="translate(-242.312 -86.845)"/><path class="b" d="M384.971,260.575c.288,2.015-1.055,5.085.48,6.716,1.343,1.535,4.318,1.727,6.62,2.495,3.742,1.247,7.484,2.4,11.13,3.646,1.343.48,2.015.576,2.015-1.247q-.144-5.757,0-11.513a1.737,1.737,0,0,0-1.439-2.015c-5.661-1.823-11.417-3.646-17.078-5.565-1.343-.48-1.823-.192-1.727,1.343C385.067,256.353,384.971,258.272,384.971,260.575Z" transform="translate(-189.915 -84.708)"/><path class="b" d="M384.8,273.1v13.528a1.781,1.781,0,0,0,1.343,1.919c5.757,1.823,11.513,3.742,17.27,5.565,1.151.384,1.535.1,1.535-1.151-.1-4.03,0-7.963,0-11.993,0-.959-.192-1.439-1.247-1.727C397.561,277.226,391.324,275.211,384.8,273.1Z" transform="translate(-189.744 -85.528)"/><path class="b" d="M384.786,334.6v13.816c0,1.055.672,1.247,1.439,1.535,5.661,1.823,11.321,3.646,16.982,5.565,1.439.48,1.823.1,1.727-1.343-.1-3.838,0-7.676,0-11.513,0-.768.192-1.535-.959-1.919C397.642,338.822,391.31,336.711,384.786,334.6Z" transform="translate(-189.73 -88.021)"/><path class="b" d="M385.233,321.7c0,2.4-.863,5.277.192,7,1.055,1.823,4.222,1.727,6.428,2.591,3.838,1.343,7.676,2.495,11.513,3.838,1.247.384,1.823.288,1.823-1.247-.1-3.934-.1-7.772,0-11.705a1.554,1.554,0,0,0-1.343-1.823c-5.757-1.823-11.513-3.742-17.174-5.661-1.439-.48-1.727,0-1.631,1.343.1,1.919,0,3.838,0,5.757A.3.3,0,0,1,385.233,321.7Z" transform="translate(-190.081 -87.207)"/><path class="c" d="M410.6,145.6v14.967a1.589,1.589,0,0,0,1.247,1.727c6.332,2.015,12.665,4.126,19,6.14,1.055.384,1.631.384,1.631-1.055-.1-4.509,0-8.923,0-13.432,0-.863-.192-1.439-1.151-1.727C424.512,150.109,417.7,147.9,410.6,145.6Zm1.343,8.635h-.192c0-1.631.1-3.358,0-4.989-.1-1.343.192-1.823,1.727-1.343,5.373,1.823,10.746,3.55,16.119,5.277a1.89,1.89,0,0,1,1.631,2.207q-.144,4.893,0,9.786c.1,1.919-.672,1.823-2.111,1.343-3.646-1.247-7.388-2.4-11.13-3.646-2.015-.672-4.8-.863-5.853-2.3C411.176,159.128,411.943,156.442,411.943,154.235Z" transform="translate(-242.025 -80.357)"/><path class="c" d="M410.952,133.269c0,2.591-.959,5.853.288,7.676,1.247,2.015,4.8,2.015,7.292,2.878,4.126,1.439,8.347,2.686,12.473,4.126,1.247.384,1.727.288,1.727-1.151-.1-4.413-.1-8.731,0-13.144a1.732,1.732,0,0,0-1.535-1.919c-6.14-1.919-12.281-3.934-18.326-6.045-1.439-.48-2.111-.384-2.015,1.439.192,2.111,0,4.126,0,6.236A.094.094,0,0,1,410.952,133.269Zm1.151.384c0-1.631.1-3.166,0-4.8-.1-1.439.1-2.015,1.823-1.439,5.373,1.823,10.746,3.55,16.119,5.277,1.055.384,1.535.768,1.535,2.015q-.144,5.037,0,10.074c.1,1.727-.576,1.823-2.015,1.343-4.413-1.439-8.827-2.878-13.144-4.318-4.318-1.343-4.318-1.343-4.318-5.949C412.1,135.092,412.1,134.421,412.1,133.653Z" transform="translate(-242.281 -79.54)"/><path class="c" d="M432.475,389.311V374.151a1.378,1.378,0,0,0-1.151-1.535c-6.812-2.207-13.624-4.413-20.724-6.716v15.447a1.011,1.011,0,0,0,.768,1.055C418.276,384.705,425.184,386.912,432.475,389.311Zm-20.532-14.68h-.192c0-1.631.1-3.358,0-4.989-.1-1.439.384-1.727,1.727-1.247,5.373,1.823,10.746,3.55,16.119,5.277a1.808,1.808,0,0,1,1.535,2.207q-.144,4.893,0,9.786c0,1.631-.384,1.919-1.919,1.439-3.742-1.343-7.58-2.4-11.321-3.742-2.015-.672-4.893-.672-5.853-2.3C411.272,379.332,411.943,376.742,411.943,374.631Z" transform="translate(-242.025 -89.291)"/><path class="c" d="M410.6,386.4v14.967c0,1.151.576,1.439,1.439,1.727,6.236,2.015,12.473,3.934,18.613,6.045,1.631.576,1.823.1,1.823-1.439-.1-4.222,0-8.443,0-12.665,0-.863.1-1.631-1.151-2.015C424.51,391.005,417.7,388.8,410.6,386.4Zm20.628,14.3c0,2.015-.1,3.742,0,5.373.1,1.439-.384,1.823-1.823,1.343-5.373-1.823-10.746-3.55-16.119-5.277a1.872,1.872,0,0,1-1.535-2.207q.144-4.893,0-9.786c0-1.535.288-2.015,1.919-1.439,3.742,1.343,7.58,2.4,11.322,3.742,2.015.672,4.7.672,5.853,2.3S431.034,398.969,431.226,400.7Z" transform="translate(-242.023 -90.122)"/><path class="c" d="M432.475,201.321V186.162a1.378,1.378,0,0,0-1.151-1.535c-6.524-2.111-13.049-4.222-19.477-6.332-1.055-.384-1.247.1-1.247.959v13.624a1.49,1.49,0,0,0,1.247,1.631C418.563,196.716,425.28,198.923,432.475,201.321Zm-20.628-14.2c0-2.015.1-3.742,0-5.373-.1-1.535.288-2.015,1.823-1.439,5.373,1.823,10.746,3.55,16.119,5.277,1.055.384,1.535.864,1.439,2.015q-.144,4.893,0,9.786c0,1.535-.1,2.207-1.919,1.535-3.742-1.343-7.58-2.495-11.322-3.646-1.919-.672-4.509-.863-5.661-2.207C410.888,191.535,412.039,188.848,411.847,187.121Z" transform="translate(-242.025 -81.678)"/><path class="c" d="M432.176,212.9c-.192-2.111,1.055-5.373-.48-7.2-1.343-1.631-4.605-1.823-7-2.591-4.126-1.343-8.347-2.59-12.473-4.03-1.439-.48-2.015-.48-1.919,1.247q.144,6.332,0,12.665c0,1.151.192,1.823,1.535,2.207,6.236,1.919,12.473,3.934,18.613,6.045,1.727.576,1.823,0,1.727-1.439C432.08,217.606,432.176,215.495,432.176,212.9Zm-20.628-5.565c0-2.015.1-3.742,0-5.373-.1-1.343.384-1.631,1.631-1.247,5.469,1.823,10.842,3.55,16.311,5.277a1.737,1.737,0,0,1,1.439,2.015q-.144,5.037,0,10.074c0,1.439-.192,1.823-1.727,1.343-3.742-1.343-7.58-2.4-11.322-3.646-2.015-.672-4.7-.863-5.853-2.3C410.588,211.945,411.74,209.163,411.548,207.34Z" transform="translate(-241.725 -82.515)"/><path class="c" d="M384.5,403.939c.288,2.111-1.151,5.469.48,7.388,1.535,1.727,4.7,1.919,7.2,2.686,3.934,1.247,7.867,2.495,11.8,3.838,1.631.576,1.919.1,1.823-1.439-.1-4.126-.1-8.347,0-12.473,0-1.247-.288-2.015-1.631-2.4-6.045-1.919-12.089-3.838-18.134-5.949-1.343-.48-1.631-.1-1.631,1.247C384.5,399.046,384.5,401.252,384.5,403.939Zm20.148,5.757c0,1.631-.1,3.166,0,4.8s-.384,2.111-2.015,1.535c-5.085-1.727-10.266-3.358-15.447-4.989-1.055-.288-1.631-.768-1.535-1.919.1-3.454.1-6.908,0-10.266-.1-1.727.672-1.535,1.823-1.151,3.646,1.247,7.2,2.4,10.842,3.55C404.644,403.171,404.644,403.075,404.644,409.7Z" transform="translate(-190.016 -90.487)"/><path class="c" d="M405.19,389.2c-.288-2.111,1.151-5.469-.48-7.388-1.535-1.727-4.7-1.919-7.2-2.782-3.934-1.247-7.867-2.495-11.8-3.838-1.631-.576-1.919-.192-1.823,1.343q.144,6.332,0,12.665c0,1.055.192,1.727,1.343,2.111,6.14,1.919,12.281,3.934,18.421,5.949,1.343.48,1.727.1,1.631-1.247C405.19,394.09,405.19,391.884,405.19,389.2Zm-20.052-5.373c0-1.919.1-3.454,0-4.893-.192-1.823.192-2.4,2.207-1.727,4.989,1.823,10.074,3.454,15.159,4.989,1.247.384,1.631.863,1.631,2.111q-.144,4.893,0,9.786c.1,1.919-.672,1.823-2.111,1.343-3.55-1.247-7.1-2.3-10.65-3.55-2.015-.672-4.7-.672-5.853-2.207C384.274,388.142,385.233,385.551,385.138,383.824Z" transform="translate(-189.41 -89.657)"/><path class="c" d="M384.014,162.661c0,2.015.1,4.03,0,5.949a2.168,2.168,0,0,0,1.727,2.591c5.949,1.823,11.8,3.742,17.75,5.757,1.727.576,2.015.192,2.015-1.439-.1-4.126-.1-8.347,0-12.473a2.05,2.05,0,0,0-1.727-2.3c-6.045-1.823-11.993-3.742-17.942-5.853-1.535-.576-1.823-.1-1.727,1.343C384.014,158.344,384.014,160.551,384.014,162.661Zm1.247.863c0-2.111.1-3.934,0-5.661-.1-1.439.576-1.535,1.727-1.151,5.277,1.727,10.554,3.454,15.927,5.181a1.694,1.694,0,0,1,1.439,1.823c-.1,3.454-.1,6.908,0,10.266,0,1.535-.48,1.727-1.823,1.247-3.646-1.247-7.388-2.4-11.13-3.646-1.919-.672-4.509-.864-5.661-2.207C384.3,167.843,385.357,165.252,385.261,163.525Z" transform="translate(-189.534 -80.725)"/><path class="c" d="M405.581,148.786c0-2.015-.1-4.03,0-5.949a2.168,2.168,0,0,0-1.727-2.591c-6.045-1.823-11.993-3.838-17.942-5.757-1.151-.384-1.727-.48-1.727,1.055.1,4.413.1,8.827,0,13.144,0,1.151.384,1.631,1.535,2.015,6.044,1.919,12.089,3.934,18.134,5.949,1.439.48,1.823.1,1.727-1.343Zm-1.151-.768c0,2.015-.1,3.55,0,5.181.1,1.727-.384,2.015-2.015,1.535-5.085-1.727-10.266-3.454-15.447-4.989a1.808,1.808,0,0,1-1.535-2.207q.144-4.893,0-9.786c-.1-1.631.384-1.919,1.919-1.439,3.55,1.247,7.1,2.4,10.65,3.55,2.015.672,4.605.863,5.949,2.207C405.389,143.509,404.142,146.2,404.43,148.018Z" transform="translate(-189.801 -79.897)"/><path class="c" d="M384.1,186.6v14.967a1.589,1.589,0,0,0,1.247,1.727c6.236,2.015,12.569,4.03,18.805,6.045,1.247.384,1.343-.192,1.343-1.151V194.755c0-.863-.1-1.439-1.151-1.727C397.628,191.109,391.008,188.9,384.1,186.6Zm1.247,1.823c6.14,2.015,11.8,3.934,17.558,5.661.959.288,1.439.768,1.343,1.823-.1,3.55-.1,7,0,10.554,0,1.343-.576,1.439-1.631,1.055-5.373-1.727-10.746-3.55-16.119-5.277-.863-.288-1.343-.576-1.343-1.631C385.347,196.77,385.347,192.74,385.347,188.423Z" transform="translate(-189.62 -82.02)"/><path class="c" d="M405.607,221.983a32.417,32.417,0,0,1,0-4.318c.384-2.782-.576-4.03-3.358-4.8-5.469-1.535-10.938-3.454-16.311-5.277-1.247-.384-1.823-.384-1.823,1.247q.144,6.476,0,12.953a1.864,1.864,0,0,0,1.631,2.111c6.044,1.919,12.089,3.838,18.134,5.853,1.343.48,1.727.288,1.631-1.151C405.607,226.492,405.607,224.286,405.607,221.983Zm-20.052-13.048c6.14,2.015,11.9,3.934,17.558,5.757a1.554,1.554,0,0,1,1.343,1.823c-.1,3.454-.1,6.812,0,10.266,0,1.247-.288,1.727-1.631,1.343-5.373-1.823-10.746-3.55-16.119-5.277-.863-.288-1.343-.672-1.247-1.631C385.555,217.186,385.555,213.252,385.555,208.934Z" transform="translate(-189.827 -82.863)"/><path class="b" d="M335.2,398.1a5.1,5.1,0,0,0-4.893,5.181,4.9,4.9,0,0,0,5.085,4.893,5.165,5.165,0,0,0,4.989-5.085A5.249,5.249,0,0,0,335.2,398.1Z" transform="translate(-72.883 -90.596)"/><path class="d" d="M412.182,154.322c0,2.111-.768,4.893.192,6.332s3.838,1.631,5.853,2.3c3.742,1.247,7.388,2.4,11.13,3.646,1.439.48,2.207.576,2.111-1.343q-.144-4.893,0-9.786a1.939,1.939,0,0,0-1.631-2.207c-5.373-1.631-10.746-3.358-16.119-5.277-1.535-.576-1.727-.1-1.727,1.343.1,1.631,0,3.358,0,4.989Z" transform="translate(-242.264 -80.445)"/><path class="d" d="M411.82,133.723v2.111c0,4.605,0,4.605,4.318,5.949,4.413,1.439,8.827,2.782,13.144,4.318,1.343.48,2.015.48,2.015-1.343q-.144-5.037,0-10.074a1.884,1.884,0,0,0-1.535-2.015c-5.373-1.727-10.746-3.358-16.119-5.277-1.727-.576-1.919,0-1.823,1.439C411.82,130.557,411.82,132.092,411.82,133.723Z" transform="translate(-241.998 -79.61)"/><path class="d" d="M412.178,374.723c0,2.111-.768,4.7.192,6.332s3.838,1.631,5.853,2.3c3.742,1.343,7.58,2.4,11.321,3.742,1.535.48,2.015.192,1.919-1.439q-.144-4.893,0-9.786a1.944,1.944,0,0,0-1.535-2.207c-5.373-1.631-10.746-3.454-16.119-5.277-1.439-.48-1.823-.192-1.727,1.247.1,1.631,0,3.358,0,4.989A.094.094,0,0,0,412.178,374.723Z" transform="translate(-242.26 -89.383)"/><path class="d" d="M431.131,400.783c-.192-1.727.863-4.318-.384-5.949-1.151-1.631-3.838-1.535-5.853-2.3-3.742-1.247-7.58-2.4-11.322-3.742-1.631-.576-1.919-.1-1.919,1.439q.144,4.893,0,9.786a1.944,1.944,0,0,0,1.535,2.207c5.373,1.727,10.746,3.454,16.119,5.277,1.439.48,1.823.1,1.823-1.343C431.035,404.525,431.131,402.894,431.131,400.783Z" transform="translate(-241.928 -90.209)"/><path class="d" d="M412.093,187.2c.192,1.727-.863,4.413.48,5.853,1.151,1.343,3.742,1.535,5.661,2.207,3.742,1.247,7.58,2.3,11.322,3.646,1.823.672,2.015.1,1.919-1.535q-.144-4.893,0-9.786a1.811,1.811,0,0,0-1.439-2.015c-5.373-1.727-10.746-3.454-16.119-5.277-1.631-.576-1.919-.1-1.823,1.439Z" transform="translate(-242.271 -81.755)"/><path class="d" d="M412.114,207.414c.192,1.823-.863,4.605.48,6.14,1.247,1.439,3.838,1.631,5.853,2.3,3.742,1.247,7.58,2.4,11.322,3.646,1.535.576,1.727.1,1.727-1.343q-.144-5.037,0-10.074a1.756,1.756,0,0,0-1.439-2.015c-5.469-1.727-10.938-3.55-16.311-5.277-1.247-.384-1.727-.1-1.631,1.247C412.114,203.672,412.114,205.4,412.114,207.414Z" transform="translate(-242.292 -82.589)"/><path class="d" d="M404.2,409.778c0-6.62,0-6.62-6.236-8.539-3.646-1.151-7.292-2.4-10.842-3.55-1.151-.384-1.919-.576-1.823,1.151.1,3.454.1,6.908,0,10.266,0,1.247.48,1.631,1.535,1.919,5.181,1.631,10.266,3.262,15.447,4.989,1.631.576,2.111.192,2.015-1.535A37.646,37.646,0,0,1,404.2,409.778Z" transform="translate(-189.568 -90.569)"/><path class="d" d="M385.527,383.913c.192,1.727-.863,4.318.384,5.949,1.151,1.631,3.838,1.535,5.853,2.207,3.55,1.247,7.1,2.3,10.65,3.55,1.439.48,2.207.48,2.111-1.343q-.144-4.893,0-9.786c0-1.247-.384-1.727-1.631-2.111-5.085-1.535-10.17-3.166-15.159-4.989-2.015-.672-2.3-.1-2.207,1.727C385.623,380.459,385.527,381.994,385.527,383.913Z" transform="translate(-189.8 -89.746)"/><path class="d" d="M385.535,163.6c.192,1.727-.863,4.413.384,5.853,1.151,1.343,3.742,1.535,5.661,2.207,3.742,1.247,7.388,2.4,11.13,3.646,1.247.384,1.823.288,1.823-1.247-.1-3.454-.1-6.908,0-10.266a1.623,1.623,0,0,0-1.439-1.823c-5.277-1.631-10.554-3.454-15.927-5.181-1.151-.384-1.727-.288-1.727,1.151C385.535,159.67,385.535,161.4,385.535,163.6Z" transform="translate(-189.808 -80.803)"/><path class="d" d="M404.159,148.092c-.288-1.823.959-4.509-.48-6.045-1.247-1.343-3.934-1.535-5.949-2.207-3.55-1.151-7.1-2.3-10.65-3.55-1.535-.48-1.919-.192-1.919,1.439q.144,4.893,0,9.786c0,1.247.288,1.823,1.535,2.207,5.181,1.631,10.266,3.262,15.447,4.989,1.535.576,2.111.192,2.015-1.535C404.063,151.642,404.159,150.107,404.159,148.092Z" transform="translate(-189.53 -79.971)"/><path class="d" d="M385.2,188.5v12.281c0,1.055.48,1.343,1.343,1.631,5.373,1.727,10.746,3.454,16.119,5.277,1.055.384,1.631.288,1.631-1.055-.1-3.55-.1-7,0-10.554a1.622,1.622,0,0,0-1.343-1.823C397,192.434,391.245,190.515,385.2,188.5Z" transform="translate(-189.472 -82.097)"/><path class="d" d="M385.3,209v12.281c0,1.055.48,1.343,1.247,1.631,5.373,1.727,10.746,3.454,16.119,5.277,1.343.48,1.631,0,1.631-1.343-.1-3.454-.1-6.812,0-10.266a1.554,1.554,0,0,0-1.343-1.823C397.1,212.934,391.345,211.015,385.3,209Z" transform="translate(-189.572 -82.928)"/><g transform="translate(423.942 247.19)"><path class="c" d="M135,459.354c-.768-16.6-1.343-33.2-2.3-49.8-.192-2.974,0-5.181,3.454-5.565,13.336-1.439,19.957-11.034,26.481-21.108,1.535-2.4.959-4.893,1.247-7.388,1.631-11.513-1.439-21.3-9.594-29.935-3.07-3.262-6.236-5.085-10.17-7.1-12.281-6.236-23.411-2.3-34.828,2.3a7.679,7.679,0,0,0-2.974,2.495c-1.247,1.439-2.015,3.166-3.358,4.509-9.882,9.211-8.443,21.108-7.867,32.813.1,2.015,1.919,3.166,2.782,4.8q8.635,16.55,27.056,19.285c4.509.672,5.949,2.686,5.661,7.388-.959,15.735-1.343,31.47-1.919,47.2C130.869,459.354,132.98,459.354,135,459.354Zm-4.318-77.332c-1.439,1.535-.288,3.646-1.151,5.277v13.336c-2.111-3.07-3.358-4.989-4.7-6.908a10.57,10.57,0,0,0-.192,1.727c.768,2.686,3.262,4.7,3.454,8.059-10.362-2.591-20.628-4.509-25.809-15.351-1.343-2.878-5.085-4.893-5.085-8.059-.1-10.17-2.782-21.012,6.236-29.359,2.591-2.4,3.358-6.908,6.812-8.155,10.074-3.742,19.765-8.155,31.278-2.878,10.842,4.893,20.436,16.119,20.34,27.92,0,4.605,1.535,9.69-.672,13.624-5.661,10.362-12.569,19.477-25.617,21.3-2.495.384-3.262.192-3.454-2.495C131.733,393.92,131.157,387.971,130.678,382.023Z" transform="translate(-94.66 -335.237)"/><path class="b" d="M124.964,393.711c1.343,1.919,2.59,3.838,4.7,6.908V387.283c-1.151-7.676-.384-15.447-.192-23.219.384,5.949.863,11.993,1.247,17.942.48,5.949,1.151,11.9,1.439,17.942.1,2.591.863,2.782,3.454,2.495,12.953-1.823,19.957-10.938,25.617-21.3,2.207-3.934.576-9.115.672-13.624.1-11.9-9.5-23.027-20.34-27.92-11.609-5.277-21.2-.768-31.278,2.878-3.454,1.247-4.222,5.757-6.812,8.155-9.019,8.347-6.332,19.189-6.236,29.359,0,3.166,3.742,5.181,5.085,8.059,5.181,10.842,15.447,12.761,25.809,15.351-.192-3.358-2.782-5.277-3.454-8.059a23.43,23.43,0,0,1-4.605-9.115C122.085,388.53,124,390.833,124.964,393.711Zm-6.045-9.115a1.381,1.381,0,0,1,.288-.192l.384.384c-.192.1-.48.1-.672.192Z" transform="translate(-94.798 -335.316)"/><path class="b" d="M131.417,383.242c-.384-5.949-.863-11.993-1.247-17.942-.192,7.772-1.055,15.447.192,23.219C131.129,386.792,129.978,384.777,131.417,383.242Z" transform="translate(-95.399 -336.456)"/><path class="b" d="M140.693,395.784c-.959-2.878-2.878-5.181-4.893-7.484a24.092,24.092,0,0,0,4.605,9.115C140.5,396.935,140.6,396.359,140.693,395.784Z" transform="translate(-110.528 -337.389)"/><path class="b" d="M141.4,386.591v.384c.192-.1.48-.1.672-.192-.1-.1-.192-.288-.384-.384C141.688,386.3,141.5,386.495,141.4,386.591Z" transform="translate(-117.279 -337.31)"/></g><g transform="translate(37.611 3.454)"><path class="b" d="M538.684,449.134V83.2H538.3V449.038A.577.577,0,0,0,538.684,449.134Z" transform="translate(-508.365 -81.281)"/><path class="d" d="M558.982,249.924c2.974-.768,5.949-1.727,8.923-2.4,1.247-.288,1.535-.863,1.439-1.919-.1-3.454-.1-6.812,0-10.266,0-1.343-.384-1.631-1.631-1.247-2.207.672-4.413,1.247-6.62,1.823-.672.192-1.439.864-2.111.1C558.982,240.618,558.982,245.319,558.982,249.924Z" transform="translate(-558.886 -87.394)"/><path class="d" d="M558.982,229.424c2.974-.768,5.949-1.727,8.923-2.4,1.247-.288,1.535-.864,1.439-1.919-.1-3.454-.1-6.812,0-10.266,0-1.343-.384-1.631-1.631-1.247-2.207.672-4.413,1.247-6.62,1.823-.672.192-1.439.863-2.111.1C558.982,220.118,558.982,224.819,558.982,229.424Z" transform="translate(-558.886 -86.562)"/><path class="d" d="M558.9,414.422c2.974-.768,5.949-1.631,8.923-2.4.959-.288,1.535-.576,1.535-1.727-.1-3.55-.1-7.2,0-10.746,0-1.343-.384-1.247-1.535-1.055-2.974.576-5.757,2.111-8.923,2.015Z" transform="translate(-558.804 -94.062)"/><path class="d" d="M558.9,283.422c2.974-.768,5.949-1.631,8.923-2.4.959-.288,1.535-.576,1.535-1.727-.1-3.55-.1-7.2,0-10.746,0-1.343-.384-1.247-1.535-1.055-2.974.576-5.757,2.111-8.923,2.015Z" transform="translate(-558.804 -88.75)"/><path class="d" d="M558.9,393.922c2.974-.768,5.949-1.631,8.923-2.4.959-.288,1.535-.576,1.535-1.727-.1-3.55-.1-7.2,0-10.746,0-1.343-.384-1.247-1.535-1.055-2.974.576-5.757,2.111-8.923,2.015Z" transform="translate(-558.804 -93.231)"/><path class="d" d="M558.9,303.922c2.974-.768,5.949-1.631,8.923-2.4.959-.288,1.535-.576,1.535-1.727-.1-3.55-.1-7.2,0-10.746,0-1.343-.384-1.247-1.535-1.055-2.974.576-5.757,2.111-8.923,2.015Z" transform="translate(-558.804 -89.581)"/><path class="d" d="M558.9,193.422c2.974-.768,5.949-1.631,8.923-2.4.959-.288,1.535-.576,1.535-1.727-.1-3.55-.1-7.2,0-10.746,0-1.343-.384-1.247-1.535-1.055-2.974.576-5.757,2.111-8.923,2.015Z" transform="translate(-558.804 -85.1)"/><path class="d" d="M558.9,172.922c2.974-.768,5.949-1.631,8.923-2.4.959-.288,1.535-.576,1.535-1.727-.1-3.55-.1-7.2,0-10.746,0-1.343-.384-1.247-1.535-1.055-2.974.576-5.757,2.111-8.923,2.015Z" transform="translate(-558.804 -84.269)"/><path class="d" d="M559.1,334.935c3.262-.384,6.236-1.631,9.4-2.3.768-.192.959-.576.959-1.343V320.352c0-1.535-.768-1.151-1.727-.959-2.878.672-5.757,1.823-8.731,2.207C559.1,326.012,559.1,330.426,559.1,334.935Z" transform="translate(-559 -90.851)"/><path class="d" d="M559.1,118.935c3.262-.384,6.236-1.631,9.4-2.3.768-.192.959-.576.959-1.343V104.352c0-1.535-.768-1.151-1.727-.959-2.878.672-5.757,1.823-8.731,2.207C559.1,110.012,559.1,114.522,559.1,118.935Z" transform="translate(-559 -82.092)"/><path class="d" d="M559.1,355.435c3.262-.384,6.236-1.631,9.4-2.3.768-.192.959-.576.959-1.343V340.852c0-1.535-.768-1.151-1.727-.959-2.878.672-5.757,1.823-8.731,2.207C559.1,346.512,559.1,350.926,559.1,355.435Z" transform="translate(-559 -91.683)"/><path class="d" d="M559.1,139.435c3.262-.384,6.236-1.631,9.4-2.3.768-.192.959-.576.959-1.343V124.852c0-1.535-.768-1.151-1.727-.959-2.878.672-5.757,1.823-8.731,2.207C559.1,130.512,559.1,135.022,559.1,139.435Z" transform="translate(-559 -82.924)"/><path class="b" d="M544.3,81.592a.727.727,0,0,1,.384-.192C544.588,81.4,544.492,81.5,544.3,81.592Z" transform="translate(-520.122 -81.208)"/><path class="d" d="M473.826,264.935q0,90.38-.1,180.76c0,2.4.672,2.878,2.878,2.782,5.277-.192,10.554-.1,15.831,0,1.631,0,2.015-.48,1.919-2.015-.1-9.019,0-18.038-.1-27.056,0-1.727.384-2.3,2.207-2.207,5.949.1,11.993.1,17.942,0,1.631,0,1.919.48,1.919,2.015-.1,9.019,0,18.038-.1,27.056,0,1.727.384,2.3,2.207,2.207,4.8-.192,9.594-.1,14.392,0,1.535,0,2.3-.288,2.015-1.919a4.623,4.623,0,0,1,0-1.151V84.27c0-3.454.384-2.974-3.07-2.974-18.421,0-36.747,0-55.168-.1-2.3,0-3.07.384-3.07,2.974Q473.969,174.554,473.826,264.935Zm20.532-101.606c-2.974,0-5.949-.1-8.827,0-1.343,0-1.727-.48-1.727-1.727q.144-5.757,0-11.513c0-1.247.288-1.727,1.631-1.631,5.853.1,11.609.1,17.462,0,1.247,0,1.631.48,1.631,1.631q-.144,5.757,0,11.513c0,1.343-.288,1.823-1.727,1.823C500.019,163.233,497.14,163.329,494.358,163.329Zm-.384,4.8c2.974,0,5.949.1,8.827,0,1.247,0,1.631.384,1.631,1.631-.1,3.934-.1,7.772,0,11.705,0,1.055-.192,1.535-1.439,1.535-5.853-.1-11.8,0-17.75,0-1.151,0-1.535-.288-1.535-1.535.1-3.934.1-7.772,0-11.705,0-1.439.48-1.727,1.823-1.727C488.409,168.126,491.192,168.126,493.974,168.126Zm25.809-4.8h-8.347c-1.151,0-1.727-.192-1.727-1.535.1-3.934.1-7.772,0-11.705,0-1.247.384-1.631,1.631-1.631,5.661.1,11.321,0,16.982,0,1.055,0,1.535.288,1.535,1.439-.1,4.03-.1,7.963,0,11.993,0,1.151-.384,1.535-1.535,1.535C525.54,163.233,522.661,163.329,519.783,163.329ZM520.071,183c-2.878,0-5.757-.1-8.635,0-1.343,0-1.727-.48-1.727-1.727q.144-5.757,0-11.513c0-1.247.288-1.727,1.631-1.631q8.491.144,16.982,0c1.247,0,1.631.48,1.631,1.631q-.144,5.757,0,11.513c0,1.343-.288,1.823-1.727,1.823C525.444,182.9,522.757,183,520.071,183Zm-26,90.476h9.307c1.151,0,1.727.192,1.631,1.535-.1,4.413-.1,8.731,0,13.144,0,1.151-.384,1.535-1.535,1.535-6.332,0-12.569-.1-18.9,0-1.247,0-1.439-.576-1.439-1.631,0-4.413.1-8.731,0-13.144,0-1.151.384-1.439,1.535-1.439Zm-.192,122.138c-2.974,0-5.949-.1-8.827,0-1.535.1-1.919-.48-1.823-1.919q.144-6.332,0-12.665c0-1.151.288-1.631,1.535-1.631,6.236.1,12.473.1,18.613,0,1.247,0,1.631.384,1.631,1.631q-.144,6.476,0,12.953c0,1.439-.576,1.727-1.823,1.727C500.115,395.516,496.948,395.611,493.878,395.611Zm.288-177.306h-9.307c-1.151,0-1.727-.1-1.727-1.535.1-4.413.1-8.731,0-13.144,0-1.343.576-1.535,1.727-1.535h18.421c1.151,0,1.727.192,1.727,1.535-.1,4.413-.1,8.731,0,13.144,0,1.151-.288,1.535-1.439,1.439C500.4,218.305,497.332,218.305,494.166,218.305Zm-.1,141.519h9.594c.959,0,1.439.192,1.439,1.343-.1,4.509-.1,8.923,0,13.432,0,1.151-.384,1.535-1.535,1.535-6.236,0-12.473-.1-18.613,0-1.247,0-1.631-.288-1.631-1.631.1-4.413.1-8.731,0-13.144,0-1.151.384-1.439,1.535-1.439C487.834,359.824,490.9,359.824,494.07,359.824ZM493.878,253.8c3.07,0,6.044.1,9.115,0,1.439,0,2.111.192,2.015,1.919-.1,4.126-.1,8.251,0,12.473,0,1.439-.384,1.919-1.823,1.919q-9.067-.144-18.134,0c-1.343,0-1.823-.288-1.823-1.727q.144-6.476,0-12.953c0-1.247.384-1.631,1.631-1.535C487.834,253.9,490.9,253.8,493.878,253.8Zm.288-15.831h-9.307c-1.151,0-1.727-.192-1.631-1.535.1-4.413.1-8.731,0-13.144,0-1.151.384-1.535,1.535-1.535,6.236,0,12.473.1,18.613,0,1.247,0,1.631.288,1.631,1.631-.1,4.413-.1,8.731,0,13.144,0,1.151-.384,1.439-1.535,1.439Zm25.713,157.637h-9.115c-1.151,0-1.727-.192-1.727-1.535.1-4.413.1-8.731,0-13.144,0-1.151.288-1.535,1.439-1.439q9.211.144,18.421,0c1.151,0,1.439.384,1.439,1.535-.1,4.413-.1,8.731,0,13.144,0,1.343-.576,1.535-1.727,1.535C525.732,395.611,522.853,395.611,519.879,395.611Zm-.1-177.306c-3.07,0-6.045-.1-9.115,0-1.247,0-1.631-.288-1.631-1.535q.144-6.476,0-12.953c0-1.151.192-1.727,1.535-1.727q9.067.144,18.134,0c1.247,0,1.631.384,1.631,1.631q-.144,6.476,0,12.953c0,1.439-.576,1.727-1.823,1.631C525.732,218.209,522.757,218.305,519.783,218.305Zm0,141.519H528.9c1.055,0,1.535.192,1.535,1.439-.1,4.413-.1,8.731,0,13.144,0,1.247-.384,1.631-1.631,1.631-5.949-.1-11.993-.1-17.942,0-1.343,0-1.823-.288-1.823-1.727q.144-6.476,0-12.953c0-1.343.384-1.631,1.631-1.535Zm-.1-86.35c3.07,0,6.044.1,9.115,0,1.439-.1,1.727.48,1.727,1.727q-.144,6.332,0,12.665c0,1.343-.288,1.823-1.727,1.823-5.949-.1-11.993-.1-17.942,0-1.151,0-1.727-.192-1.727-1.535.1-4.413.1-8.731,0-13.144,0-1.151.288-1.535,1.439-1.439C513.643,273.57,516.617,273.474,519.687,273.474Zm-.1-3.55c-2.974,0-5.853-.1-8.827,0-1.247,0-1.631-.384-1.631-1.631q.144-6.476,0-12.953c0-1.151.192-1.631,1.535-1.631q9.067.144,18.134,0c1.247,0,1.631.288,1.631,1.535q-.144,6.476,0,12.953c0,1.439-.48,1.727-1.823,1.727Zm.1-48.068H528.8c1.151,0,1.727.192,1.727,1.535-.1,4.413-.1,8.731,0,13.144,0,1.151-.288,1.535-1.439,1.439q-9.211-.144-18.421,0c-1.151,0-1.439-.384-1.439-1.535.1-4.413.1-8.731,0-13.144,0-1.343.576-1.535,1.727-1.535C513.739,221.855,516.713,221.855,519.687,221.855Zm-25.521-89.708c-3.07,0-6.044-.1-9.115,0-1.535.1-1.823-.48-1.823-1.919.1-4.03.1-8.155,0-12.185,0-1.343.192-2.015,1.727-1.919q9.211.144,18.421,0c1.055,0,1.631.1,1.535,1.343-.1,4.413-.1,8.827,0,13.144,0,1.151-.384,1.439-1.535,1.439C500.4,132.051,497.236,132.147,494.166,132.147Zm0,191.794c-3.07,0-6.044-.1-9.115,0-1.535.1-1.823-.48-1.823-1.919.1-4.126.1-8.347,0-12.473,0-1.439.48-1.727,1.823-1.727,6.141.1,12.281,0,18.421,0,1.055,0,1.631.1,1.535,1.343-.1,4.413-.1,8.827,0,13.144,0,1.151-.384,1.439-1.535,1.439C500.4,323.941,497.236,323.941,494.166,323.941Zm.1-211.463c-3.07,0-6.045-.1-9.115,0-1.343,0-2.015-.192-1.919-1.823.1-4.126.1-8.347,0-12.473,0-1.247.192-1.823,1.631-1.823q9.211.144,18.421,0c1.439,0,1.727.48,1.631,1.823-.1,4.126-.1,8.347,0,12.473,0,1.535-.48,1.823-1.919,1.823C500.115,112.382,497.236,112.478,494.262,112.478Zm-.288,215.108h9.594c.959,0,1.439.1,1.439,1.247-.1,4.509-.1,8.923,0,13.432,0,1.055-.384,1.343-1.343,1.343h-18.9c-1.151,0-1.439-.384-1.439-1.535q.144-6.476,0-12.953c0-1.343.48-1.631,1.631-1.535C487.93,327.682,490.9,327.587,493.974,327.587Zm25.905-195.44c-3.07,0-6.044-.1-9.115,0-1.247,0-1.631-.384-1.631-1.631q.144-6.476,0-12.953c0-1.151.384-1.535,1.535-1.439H529.09c1.055,0,1.343.288,1.343,1.343-.1,4.413-.1,8.827,0,13.144,0,1.151-.288,1.535-1.439,1.535C525.924,132.051,522.853,132.147,519.879,132.147Zm-.288,191.794c-2.878,0-5.757-.1-8.635,0-1.535.1-1.919-.48-1.823-1.919.1-4.126.1-8.347,0-12.473,0-1.439.48-1.727,1.727-1.727,5.949.1,11.993,0,17.942,0,1.055,0,1.631.1,1.535,1.343-.1,4.413-.1,8.827,0,13.144,0,1.151-.384,1.535-1.535,1.439C525.828,323.941,522.661,323.941,519.591,323.941Zm.288,19.669c-2.974,0-5.949-.1-8.827,0-1.343,0-2.015-.192-1.919-1.823.1-4.126.1-8.347,0-12.473,0-1.247.192-1.823,1.631-1.823,5.949.1,11.993.1,17.942,0,1.439,0,1.727.48,1.631,1.823-.1,4.126-.1,8.347,0,12.473,0,1.535-.48,1.823-1.919,1.823C525.636,343.513,522.757,343.609,519.879,343.609Zm-.1-231.131c-2.974,0-5.949-.1-8.827,0-1.535.1-1.919-.48-1.823-1.919.1-4.126.1-8.347,0-12.473,0-1.439.48-1.727,1.727-1.727,5.949.1,11.993,0,17.942,0,1.055,0,1.631.1,1.535,1.343-.1,4.413-.1,8.827,0,13.144,0,1.151-.384,1.535-1.535,1.439C525.924,112.382,522.853,112.478,519.783,112.478Z" transform="translate(-442.452 -81.2)"/><path class="d" d="M554.033,269.527c0-1.727-.1-3.55,0-5.277.1-1.151-.384-1.343-1.439-1.055-2.686.768-5.373,1.535-8.059,2.207-.959.192-1.247.672-1.247,1.631v10.746c0,1.151.48,1.343,1.439,1.055,2.686-.768,5.373-1.439,8.059-2.207.959-.192,1.247-.672,1.247-1.631C553.937,273.269,554.033,271.446,554.033,269.527Z" transform="translate(-528.512 -88.575)"/><path class="d" d="M553.867,335.2c-3.358.863-6.428,1.727-9.594,2.495a1.207,1.207,0,0,0-1.055,1.535c0,3.55.1,7.2,0,10.746,0,1.343.48,1.439,1.535,1.055,2.59-.768,5.181-1.439,7.867-2.111a1.4,1.4,0,0,0,1.343-1.631C553.867,343.451,553.867,339.422,553.867,335.2Z" transform="translate(-528.346 -91.5)"/><path class="d" d="M554.046,98.8c-3.358.864-6.428,1.727-9.594,2.495a1.327,1.327,0,0,0-1.151,1.535c0,3.55.1,7.2,0,10.746,0,1.343.384,1.439,1.535,1.055,2.591-.768,5.181-1.439,7.867-2.111a1.4,1.4,0,0,0,1.343-1.631Z" transform="translate(-528.525 -81.914)"/><path class="d" d="M543.449,293.291c.288,1.823-1.055,4.8.576,5.949,1.343.959,3.934-.768,6.045-1.247,4.126-1.055,4.126-1.055,4.126-5.373v-7.676c0-1.151-.288-1.535-1.439-1.247-2.591.768-5.181,1.535-7.771,2.111-1.247.288-1.439.959-1.439,2.015C543.449,289.549,543.449,291.276,543.449,293.291Z" transform="translate(-528.578 -89.408)"/><path class="d" d="M554.033,400.72c0-1.727-.1-3.55,0-5.277.1-1.439-.384-1.535-1.631-1.151-2.4.768-4.893,1.439-7.388,2.015-1.343.288-1.727.959-1.727,2.3q.144,4.893,0,9.786c0,1.343.288,1.919,1.727,1.439,2.495-.768,5.085-1.439,7.58-2.015,1.151-.288,1.439-.863,1.439-2.015C553.937,404.078,554.033,402.447,554.033,400.72Z" transform="translate(-528.512 -93.888)"/><path class="d" d="M553.95,314.7c-3.358.863-6.428,1.727-9.594,2.591-.864.192-1.055.672-1.055,1.535v10.746c0,1.055.192,1.439,1.343,1.151,2.686-.768,5.373-1.535,8.059-2.207.959-.192,1.247-.672,1.247-1.631C553.95,322.951,553.95,318.922,553.95,314.7Z" transform="translate(-528.429 -90.669)"/><path class="d" d="M553.658,179.727c-.1-2.207,1.151-5.181-.384-6.236-1.151-.768-4.03.672-6.044,1.247-4.126,1.055-4.126,1.055-4.126,5.469,0,2.4.1,4.8,0,7.2-.1,1.823.672,2.015,2.111,1.535l2.015-.576c2.111-.576,5.085-.576,6.14-2.015C554.522,184.812,553.658,181.934,553.658,179.727Z" transform="translate(-528.329 -84.934)"/><path class="d" d="M553.539,159.226c-.1-2.207,1.151-5.181-.288-6.236-1.151-.863-3.934.672-6.044,1.247-4.126,1.055-4.126,1.055-4.126,5.373,0,2.495.1,4.989,0,7.388-.1,1.535.576,1.727,1.823,1.343.864-.288,1.631-.48,2.495-.768,2.111-.576,4.989-.576,5.949-1.919C554.307,164.215,553.539,161.432,553.539,159.226Z" transform="translate(-528.21 -84.101)"/><path class="d" d="M543.556,129.094c.192,1.823-.959,4.8.48,5.949,1.055.863,3.934-.672,6.044-1.247,4.126-1.055,4.126-1.055,4.126-5.373v-7.867c0-.959-.192-1.247-1.247-.959-2.782.768-5.565,1.535-8.347,2.207-.959.192-1.247.768-1.151,1.727C543.556,125.256,543.556,126.983,543.556,129.094Z" transform="translate(-528.684 -82.753)"/><path class="d" d="M543.662,382.908c.192,2.207-1.151,5.181.384,6.332,1.151.768,3.934-.672,6.044-1.247,4.126-1.055,4.126-1.055,4.126-5.373,0-2.591-.1-5.085,0-7.676,0-1.247-.384-1.535-1.535-1.151-.864.288-1.823.48-2.782.768-2.111.672-5.085.384-6.141,2.015C542.894,378.207,543.662,380.8,543.662,382.908Z" transform="translate(-528.694 -93.058)"/><path class="d" d="M553.607,236.326c0-2.111.864-5.469-.192-6.14-1.535-1.055-4.126.576-6.236,1.151-4.126,1.055-4.126,1.151-4.126,5.373v7.676c0,1.247.384,1.439,1.535,1.151,2.591-.768,5.181-1.439,7.867-2.111.959-.288,1.439-.768,1.343-1.823-.1-1.727,0-3.55,0-5.277Z" transform="translate(-528.182 -87.227)"/><path class="d" d="M543.688,218.5c.1,2.207-1.151,5.181.384,6.332,1.055.768,3.934-.768,6.044-1.343,4.126-1.055,4.126-1.151,4.126-5.373v-7.676c0-1.151-.288-1.631-1.439-1.151a23.548,23.548,0,0,1-2.782.768c-2.111.672-5.085.384-6.141,2.111C542.92,213.706,543.688,216.392,543.688,218.5Z" transform="translate(-528.72 -86.387)"/><path class="b" d="M515.95,166.167c2.782,0,5.565-.1,8.347,0,1.343.1,1.727-.48,1.727-1.823q-.144-5.757,0-11.513c0-1.247-.288-1.631-1.631-1.631-5.853.1-11.609.1-17.462,0-1.247,0-1.631.48-1.631,1.631q.144,5.757,0,11.513c0,1.343.384,1.823,1.727,1.727C510.1,166.071,513.072,166.167,515.95,166.167Z" transform="translate(-464.044 -84.039)"/><path class="b" d="M515.37,171.8c-2.782,0-5.565.1-8.347,0-1.247,0-1.823.288-1.823,1.727.1,3.934.1,7.772,0,11.705,0,1.151.384,1.535,1.535,1.535h17.75c1.247,0,1.439-.48,1.439-1.535,0-3.934-.1-7.772,0-11.705,0-1.247-.384-1.631-1.631-1.631C521.319,171.8,518.345,171.8,515.37,171.8Z" transform="translate(-463.848 -84.874)"/><path class="b" d="M488.678,166.167h8.635c1.151,0,1.535-.288,1.535-1.535-.1-4.03-.1-7.963,0-11.993,0-1.247-.48-1.439-1.535-1.439H480.331c-1.247,0-1.631.384-1.631,1.631.1,3.934.1,7.772,0,11.705,0,1.343.48,1.631,1.727,1.535C483.113,166.071,485.9,166.167,488.678,166.167Z" transform="translate(-411.347 -84.039)"/><path class="b" d="M489.062,186.667c2.686,0,5.469-.1,8.155,0,1.439.1,1.727-.48,1.727-1.823q-.144-5.757,0-11.513c0-1.247-.288-1.631-1.631-1.631q-8.491.144-16.982,0c-1.343,0-1.631.48-1.631,1.631q.144,5.757,0,11.513c0,1.343.384,1.823,1.727,1.727C483.305,186.571,486.184,186.667,489.062,186.667Z" transform="translate(-411.443 -84.87)"/><path class="c" d="M515.442,281.6h-9.307c-1.151,0-1.535.288-1.535,1.439.1,4.413,0,8.731,0,13.144,0,1.055.192,1.631,1.439,1.631,6.332-.1,12.569-.1,18.9,0,1.151,0,1.535-.384,1.535-1.535-.1-4.413-.1-8.731,0-13.144,0-1.343-.48-1.535-1.631-1.535Zm.1,14.871h-8.155c-1.151,0-1.727-.192-1.727-1.535.1-3.55.1-7,0-10.554,0-1.343.576-1.535,1.727-1.535,5.373,0,10.746.1,16.023,0,1.247,0,1.823.288,1.823,1.727-.1,3.454-.1,6.908,0,10.266,0,1.247-.288,1.727-1.535,1.631C520.911,296.376,518.224,296.471,515.538,296.471Z" transform="translate(-463.823 -89.326)"/><path class="c" d="M515.367,408.211c3.07,0,6.236-.1,9.307,0,1.247,0,1.823-.192,1.823-1.727q-.144-6.476,0-12.953c0-1.247-.384-1.631-1.631-1.631-6.236.1-12.473.1-18.613,0-1.343,0-1.631.48-1.535,1.631q.144,6.332,0,12.665c0,1.439.288,1.919,1.823,1.919C509.418,408.115,512.392,408.211,515.367,408.211Zm.384-1.247H507.4c-1.151,0-1.535-.288-1.535-1.439.1-3.55.1-7,0-10.554,0-1.247.288-1.631,1.631-1.631,5.469.1,10.842.1,16.311,0,1.247,0,1.631.384,1.631,1.631-.1,3.55-.1,7,0,10.554,0,1.151-.384,1.535-1.535,1.439C521.123,406.867,518.437,406.963,515.75,406.963Z" transform="translate(-463.94 -93.799)"/><path class="c" d="M515.915,223.419h9.307c1.151,0,1.535-.288,1.439-1.439-.1-4.413-.1-8.731,0-13.144,0-1.343-.48-1.535-1.727-1.535H506.512c-1.151,0-1.727.192-1.727,1.535.1,4.413.1,8.731,0,13.144,0,1.439.576,1.535,1.727,1.535C509.774,223.419,512.845,223.419,515.915,223.419Zm-.288-1.247H507.76c-1.151,0-1.727-.288-1.631-1.631.1-3.55.1-7,0-10.554,0-1.151.288-1.535,1.439-1.535,5.469.1,11.034.1,16.5,0,1.343,0,1.535.48,1.535,1.631-.1,3.454-.1,6.908,0,10.266,0,1.439-.576,1.727-1.823,1.727C521.1,222.076,518.409,222.171,515.627,222.171Z" transform="translate(-464.201 -86.313)"/><path class="c" d="M515.542,371.6h-9.307c-1.055,0-1.535.192-1.535,1.439.1,4.413.1,8.731,0,13.144,0,1.247.384,1.631,1.631,1.631,6.236-.1,12.473,0,18.613,0,1.151,0,1.535-.288,1.535-1.535-.1-4.509-.1-8.923,0-13.432,0-1.151-.384-1.343-1.439-1.343C521.874,371.6,518.708,371.6,515.542,371.6Zm.192,14.871h-8.347c-1.151,0-1.535-.288-1.535-1.439.1-3.55.1-7,0-10.554,0-1.247.288-1.631,1.631-1.631,5.469.1,10.842.1,16.311,0,1.247,0,1.631.384,1.631,1.631-.1,3.55-.1,7,0,10.554,0,1.151-.384,1.535-1.535,1.439C521.106,386.371,518.42,386.467,515.733,386.467Z" transform="translate(-463.923 -92.972)"/><path class="c" d="M515.534,261.1c-3.07,0-6.045.1-9.115,0-1.247,0-1.631.288-1.631,1.535q.144,6.476,0,12.953c0,1.439.48,1.727,1.823,1.727q9.067-.144,18.134,0c1.439,0,1.919-.384,1.823-1.919-.1-4.126-.1-8.251,0-12.473.1-1.727-.576-1.919-2.015-1.919C521.578,261.192,518.6,261.1,515.534,261.1Zm.288,14.871h-8.155c-1.151,0-1.727-.192-1.631-1.535.1-3.55.1-7,0-10.554,0-1.343.576-1.535,1.727-1.535,5.373,0,10.746.1,16.023,0,1.343,0,1.823.288,1.823,1.727-.1,3.454-.1,6.908,0,10.266,0,1.247-.288,1.727-1.535,1.631C521.194,275.871,518.508,275.967,515.821,275.967Z" transform="translate(-464.107 -88.491)"/><path class="c" d="M515.638,243.915h9.307c1.151,0,1.535-.288,1.535-1.439-.1-4.413-.1-8.731,0-13.144,0-1.247-.48-1.631-1.631-1.631-6.236.1-12.473.1-18.613,0-1.151,0-1.535.384-1.535,1.535.1,4.413.1,8.731,0,13.144,0,1.343.48,1.535,1.631,1.535Zm-.1-1.247c-2.686,0-5.469-.1-8.155,0-1.247,0-1.631-.384-1.631-1.631.1-3.55.1-7,0-10.554,0-1.151.384-1.535,1.439-1.535,5.469.1,11.034,0,16.5,0,1.055,0,1.535.192,1.535,1.439-.1,3.55-.1,7,0,10.554,0,1.439-.672,1.727-1.823,1.631C520.819,242.571,518.228,242.667,515.542,242.667Z" transform="translate(-463.923 -87.141)"/><path class="c" d="M488.946,408.215h8.827c1.151,0,1.727-.192,1.727-1.535-.1-4.413-.1-8.731,0-13.144,0-1.151-.288-1.535-1.439-1.535q-9.211.144-18.421,0c-1.151,0-1.439.384-1.439,1.439.1,4.413.1,8.731,0,13.144,0,1.343.576,1.535,1.727,1.535C482.9,408.215,485.876,408.215,488.946,408.215Zm0-1.247c-2.591,0-5.277-.1-7.867,0-1.439.1-1.727-.384-1.727-1.727q.144-5.037,0-10.074c-.1-1.535.48-1.823,1.919-1.823,5.085.1,10.266.1,15.351,0,1.535,0,1.919.576,1.823,1.919q-.144,4.893,0,9.786c.1,1.727-.576,1.919-2.015,1.919C493.839,406.871,491.344,406.967,488.946,406.967Z" transform="translate(-411.518 -93.803)"/><path class="c" d="M488.85,223.415c2.974,0,5.853-.1,8.827,0,1.247,0,1.823-.192,1.823-1.631q-.144-6.476,0-12.953c0-1.247-.384-1.631-1.631-1.631q-9.067.144-18.134,0c-1.343,0-1.535.576-1.535,1.727,0,4.318.1,8.635,0,12.953,0,1.247.384,1.631,1.631,1.535C482.805,223.319,485.876,223.415,488.85,223.415Zm.1-14.871c2.495,0,4.989.1,7.388,0,1.439-.1,2.111.192,2.015,1.919-.192,3.262-.1,6.524,0,9.786,0,1.439-.288,2.015-1.823,1.919q-7.772-.144-15.543,0c-1.151,0-1.727-.288-1.631-1.631.1-3.55.1-7,0-10.554,0-1.439.576-1.535,1.727-1.535C483.669,208.543,486.259,208.543,488.946,208.543Z" transform="translate(-411.518 -86.309)"/><path class="c" d="M488.946,371.6c-3.07,0-6.045.1-9.115,0-1.247,0-1.631.288-1.631,1.535q.144,6.476,0,12.953c0,1.439.48,1.727,1.823,1.727,5.949-.1,11.993-.1,17.942,0,1.247,0,1.631-.384,1.631-1.631-.1-4.413-.1-8.731,0-13.144,0-1.247-.48-1.439-1.535-1.439Zm.1,14.871c-2.591,0-5.277-.1-7.867,0-1.343,0-1.823-.288-1.823-1.727.1-3.454.1-6.908,0-10.266,0-1.247.288-1.727,1.631-1.631q7.915.144,15.831,0c1.247,0,1.727.384,1.631,1.631-.1,3.55-.1,7,0,10.554,0,1.151-.288,1.535-1.439,1.439C494.319,386.376,491.728,386.471,489.042,386.471Z" transform="translate(-411.614 -92.976)"/><path class="c" d="M488.668,281.6c-3.07,0-6.045.1-9.115,0-1.151,0-1.535.288-1.439,1.439.1,4.413.1,8.731,0,13.144,0,1.343.48,1.535,1.727,1.535,5.949-.1,11.993-.1,17.942,0,1.439,0,1.727-.48,1.727-1.823q-.144-6.332,0-12.665c0-1.343-.288-1.823-1.727-1.727C494.713,281.691,491.642,281.6,488.668,281.6Zm.192,14.871H480.7c-1.151,0-1.535-.288-1.535-1.439.1-3.55.1-7,0-10.554,0-1.247.288-1.631,1.631-1.631q7.915.144,15.831,0c1.247,0,1.631.384,1.631,1.631-.1,3.55-.1,7,0,10.554,0,1.151-.384,1.535-1.535,1.439C494.137,296.371,491.546,296.467,488.86,296.467Z" transform="translate(-411.433 -89.322)"/><path class="c" d="M488.462,277.215c3.07,0,6.045-.1,9.115,0,1.343,0,1.823-.288,1.823-1.727q-.144-6.476,0-12.953c0-1.247-.384-1.535-1.631-1.535q-9.067.144-18.134,0c-1.343,0-1.535.48-1.535,1.631q.144,6.476,0,12.953c0,1.247.384,1.631,1.631,1.631Zm.48-1.247h-8.155c-1.151,0-1.727-.192-1.727-1.535.1-3.55.1-7,0-10.554,0-1.343.576-1.535,1.727-1.535,5.181,0,10.362.1,15.543,0,1.247,0,1.823.288,1.823,1.727-.1,3.454-.1,6.908,0,10.266,0,1.247-.288,1.727-1.535,1.631C494.027,275.871,491.436,275.967,488.942,275.967Z" transform="translate(-411.322 -88.491)"/><path class="c" d="M488.754,227.8h-8.827c-1.151,0-1.727.192-1.727,1.535.1,4.413.1,8.731,0,13.144,0,1.151.288,1.535,1.439,1.535q9.211-.144,18.421,0c1.151,0,1.439-.288,1.439-1.439-.1-4.413-.1-8.731,0-13.144,0-1.343-.48-1.535-1.727-1.535C494.8,227.8,491.728,227.8,488.754,227.8Zm.1,14.871c-2.591,0-5.277-.1-7.867,0-1.247,0-1.631-.384-1.631-1.631.1-3.55.1-7,0-10.554,0-1.151.384-1.535,1.439-1.535,5.373.1,10.746.1,16.023,0,1.055,0,1.535.192,1.535,1.439-.1,3.55-.1,7,0,10.554,0,1.439-.672,1.727-1.823,1.631C493.935,242.576,491.44,242.671,488.85,242.671Z" transform="translate(-411.518 -87.145)"/><path class="c" d="M515.562,133.626h9.307c1.151,0,1.535-.288,1.535-1.439-.1-4.413-.1-8.827,0-13.144,0-1.247-.576-1.439-1.535-1.343-6.141,0-12.281.1-18.421,0-1.631,0-1.823.576-1.727,1.919.1,4.03.1,8.155,0,12.185,0,1.439.288,2.015,1.823,1.919C509.422,133.53,512.492,133.626,515.562,133.626Zm0-14.871c2.495,0,4.989.1,7.388,0,1.727-.1,2.4.288,2.3,2.207-.192,3.166-.1,6.332,0,9.594,0,1.535-.288,2.111-1.919,2.015q-7.915-.144-15.831,0c-1.535,0-1.823-.576-1.823-1.919q.144-5.037,0-10.074c-.1-1.535.576-1.919,1.919-1.823Z" transform="translate(-463.848 -82.679)"/><path class="c" d="M515.638,333.526h9.307c1.151,0,1.535-.288,1.535-1.439-.1-4.413-.1-8.827,0-13.144,0-1.247-.576-1.439-1.535-1.343-6.141,0-12.281.1-18.421,0-1.343,0-1.823.288-1.823,1.727.1,4.126.1,8.347,0,12.473,0,1.439.288,1.919,1.823,1.919C509.5,333.43,512.567,333.526,515.638,333.526Zm0-1.151h-8.155c-1.151,0-1.727-.288-1.631-1.535.1-3.55.1-7,0-10.554,0-1.151.288-1.727,1.535-1.727,5.469.1,10.842.1,16.311,0,1.151,0,1.727.288,1.727,1.631-.1,3.55-.1,7,0,10.554,0,1.439-.576,1.727-1.823,1.631Z" transform="translate(-463.923 -90.785)"/><path class="c" d="M515.654,113.119c2.974,0,5.949-.1,8.827,0,1.439,0,1.919-.192,1.919-1.823-.1-4.126-.1-8.347,0-12.473,0-1.247-.192-1.823-1.631-1.823q-9.211.144-18.421,0c-1.439,0-1.727.48-1.631,1.823.1,4.126.1,8.347,0,12.473,0,1.631.576,1.823,1.919,1.823C509.514,113.023,512.584,113.119,515.654,113.119Zm-.192-1.151c-2.591,0-5.277-.1-7.867,0-1.247,0-1.919-.192-1.823-1.631.1-3.55.1-7,0-10.554,0-1.247.48-1.631,1.631-1.631,5.469.1,10.842.1,16.311,0,1.247,0,1.631.48,1.631,1.631-.1,3.454-.1,6.908,0,10.266.1,1.535-.576,1.919-1.919,1.823C520.74,111.871,518.053,111.967,515.463,111.967Z" transform="translate(-463.844 -81.841)"/><path class="c" d="M515.531,338h-9.115c-1.247,0-1.631.288-1.631,1.535q.144,6.476,0,12.953c0,1.151.288,1.535,1.439,1.535,6.332-.1,12.665,0,18.9,0,1.055,0,1.439-.288,1.343-1.343-.1-4.509-.1-8.923,0-13.432,0-1.151-.576-1.247-1.439-1.247C521.959,338.1,518.7,338,515.531,338Zm-.1,14.871h-7.868c-1.151,0-1.727-.192-1.727-1.535.1-3.55.1-7,0-10.554,0-1.439.576-1.727,1.823-1.727q7.915.144,15.831,0c1.631,0,2.015.576,1.919,2.111-.1,3.166-.1,6.428,0,9.594.1,1.631-.288,2.3-2.111,2.207C520.712,352.776,518.122,352.871,515.435,352.871Z" transform="translate(-464.009 -91.613)"/><path class="c" d="M488.931,133.623h9.115c1.151,0,1.535-.384,1.439-1.535-.1-4.413-.1-8.827,0-13.144,0-1.055-.288-1.343-1.343-1.343H479.72c-1.151,0-1.535.288-1.535,1.439q.144,6.476,0,12.953c0,1.247.384,1.631,1.631,1.631C482.791,133.527,485.861,133.623,488.931,133.623Zm-.192-14.871h7.867c1.151,0,1.823.192,1.727,1.535-.1,3.55-.1,7.2,0,10.746,0,1.151-.48,1.439-1.535,1.439-5.373,0-10.65-.1-16.023,0-1.151,0-1.535-.384-1.439-1.535.1-3.55.1-7.2,0-10.746,0-1.151.384-1.535,1.535-1.535C483.462,118.751,486.053,118.751,488.739,118.751Z" transform="translate(-411.504 -82.676)"/><path class="c" d="M488.574,333.527h9.307c1.151,0,1.535-.288,1.535-1.439-.1-4.413-.1-8.827,0-13.144,0-1.247-.576-1.343-1.535-1.343-5.949,0-11.993.1-17.942,0-1.343,0-1.823.288-1.727,1.727.1,4.126.1,8.347,0,12.473,0,1.439.288,1.919,1.823,1.919A83.933,83.933,0,0,1,488.574,333.527Zm.192-14.871c2.4,0,4.8.1,7.2,0,1.727-.1,2.4.288,2.3,2.207-.192,3.166-.1,6.332,0,9.595,0,1.535-.288,2.111-1.919,2.015-5.085-.1-10.17-.1-15.351,0-1.535,0-1.823-.576-1.823-1.919q.144-5.037,0-10.074c-.1-1.535.576-1.919,1.919-1.823C483.681,318.751,486.271,318.655,488.766,318.655Z" transform="translate(-411.434 -90.786)"/><path class="c" d="M488.867,354.019c2.878,0,5.757-.1,8.635,0,1.439.1,1.919-.288,1.919-1.823-.1-4.126-.1-8.347,0-12.473,0-1.247-.288-1.823-1.631-1.823-5.949.1-11.993.1-17.942,0-1.439,0-1.727.48-1.631,1.823.1,4.126.1,8.347,0,12.473,0,1.631.576,1.823,1.919,1.823Zm-.1-14.871c2.4,0,4.8.1,7.2,0,1.727-.1,2.4.288,2.3,2.207-.192,3.166-.1,6.332,0,9.594,0,1.439-.288,2.111-1.919,2.015-5.085-.1-10.17-.1-15.351,0-1.535,0-1.823-.576-1.823-1.919q.144-5.037,0-10.074c-.1-1.535.576-1.919,1.919-1.823C483.686,339.243,486.276,339.147,488.771,339.147Z" transform="translate(-411.439 -91.609)"/><path class="c" d="M488.766,113.127h9.115c1.151,0,1.535-.288,1.535-1.439-.1-4.413-.1-8.827,0-13.144,0-1.247-.576-1.343-1.535-1.343-5.949,0-11.993.1-17.942,0-1.343,0-1.823.288-1.727,1.727.1,4.126.1,8.347,0,12.473,0,1.439.288,1.919,1.823,1.919C482.913,113.031,485.791,113.127,488.766,113.127Zm-.1-14.871h7.867c1.151,0,1.727.288,1.727,1.631-.1,3.55-.1,7,0,10.554,0,1.247-.288,1.631-1.631,1.631q-7.915-.144-15.831,0c-1.151,0-1.727-.288-1.631-1.535.1-3.55.1-7,0-10.554,0-1.439.576-1.727,1.823-1.727Z" transform="translate(-411.434 -81.849)"/><path class="d" d="M515.765,296.524c2.686,0,5.469-.1,8.155,0,1.343.1,1.631-.48,1.535-1.631-.1-3.454-.1-6.908,0-10.266,0-1.439-.48-1.727-1.823-1.727-5.373.1-10.746,0-16.023,0-1.151,0-1.727.192-1.727,1.535.1,3.55.1,7,0,10.554,0,1.343.48,1.535,1.727,1.535Z" transform="translate(-464.051 -89.379)"/><path class="d" d="M515.682,407.024c2.686,0,5.469-.1,8.155,0,1.151,0,1.535-.288,1.535-1.439-.1-3.55-.1-7,0-10.554,0-1.247-.384-1.631-1.631-1.631-5.469.1-10.842.1-16.311,0-1.247,0-1.631.384-1.631,1.631.1,3.55.1,7,0,10.554,0,1.151.384,1.439,1.535,1.439C510.022,406.928,512.9,407.024,515.682,407.024Z" transform="translate(-463.872 -93.86)"/><path class="d" d="M515.4,222.224c2.686,0,5.469-.1,8.155,0,1.247,0,1.823-.288,1.823-1.727-.1-3.454-.1-6.908,0-10.266,0-1.151-.192-1.631-1.535-1.631-5.469.1-11.034.1-16.5,0-1.151,0-1.439.384-1.439,1.535.1,3.55.1,7,0,10.554,0,1.343.48,1.631,1.631,1.631C510.122,222.128,512.808,222.224,515.4,222.224Z" transform="translate(-463.972 -86.366)"/><path class="d" d="M515.682,386.524c2.686,0,5.469-.1,8.155,0,1.151,0,1.535-.288,1.535-1.439-.1-3.55-.1-7,0-10.554,0-1.247-.384-1.631-1.631-1.631-5.469.1-10.842.1-16.311,0-1.247,0-1.631.384-1.631,1.631.1,3.55.1,7,0,10.554,0,1.151.384,1.439,1.535,1.439C510.022,386.428,512.9,386.524,515.682,386.524Z" transform="translate(-463.872 -93.029)"/><path class="d" d="M515.765,276.024c2.686,0,5.469-.1,8.155,0,1.343.1,1.631-.384,1.535-1.631-.1-3.454-.1-6.908,0-10.266,0-1.439-.48-1.727-1.823-1.727-5.373.1-10.746,0-16.023,0-1.151,0-1.727.192-1.727,1.535.1,3.55.1,7,0,10.554,0,1.343.48,1.535,1.631,1.535Z" transform="translate(-464.051 -88.548)"/><path class="d" d="M515.791,242.724h7.867c1.247,0,1.919-.192,1.823-1.631-.1-3.55-.1-7,0-10.554,0-1.247-.48-1.439-1.535-1.439-5.469,0-11.034.1-16.5,0-1.151,0-1.535.384-1.439,1.535.1,3.55.1,7,0,10.554,0,1.247.384,1.631,1.631,1.631C510.418,242.628,513.1,242.724,515.791,242.724Z" transform="translate(-464.173 -87.197)"/><path class="d" d="M489.081,407.024c2.495,0,4.989-.1,7.388,0,1.439.1,2.111-.192,2.015-1.919-.192-3.262-.1-6.524,0-9.786,0-1.439-.288-1.919-1.823-1.919-5.085.1-10.266.1-15.351,0-1.439,0-1.919.288-1.919,1.823q.144,5.037,0,10.074c0,1.343.288,1.823,1.727,1.727C483.8,406.928,486.395,407.024,489.081,407.024Z" transform="translate(-411.654 -93.86)"/><path class="d" d="M488.985,208.6h-7.867c-1.151,0-1.727.1-1.727,1.535.1,3.55.1,7,0,10.554,0,1.343.48,1.631,1.631,1.631q7.771-.144,15.543,0c1.535,0,1.823-.576,1.823-1.919q-.144-4.893,0-9.786c.1-1.727-.576-1.919-2.015-1.919C493.878,208.7,491.384,208.6,488.985,208.6Z" transform="translate(-411.558 -86.366)"/><path class="d" d="M489.272,386.524c2.591,0,5.277-.1,7.867,0,1.151,0,1.535-.384,1.439-1.439-.1-3.55-.1-7,0-10.554,0-1.247-.48-1.631-1.631-1.631-5.277,0-10.554.1-15.831,0-1.247,0-1.631.48-1.631,1.631.1,3.454.1,6.908,0,10.266,0,1.439.48,1.727,1.823,1.727C483.995,386.428,486.681,386.524,489.272,386.524Z" transform="translate(-411.844 -93.029)"/><path class="d" d="M489.09,296.524c2.591,0,5.277-.1,7.867,0,1.151,0,1.535-.288,1.535-1.439-.1-3.55-.1-7,0-10.554,0-1.247-.384-1.631-1.631-1.631q-7.915.144-15.831,0c-1.247,0-1.631.384-1.631,1.631.1,3.55.1,7,0,10.554,0,1.151.384,1.439,1.535,1.439Z" transform="translate(-411.663 -89.379)"/><path class="d" d="M489.265,276.024c2.591,0,5.085-.1,7.676,0,1.343.1,1.631-.48,1.535-1.631-.1-3.454-.1-6.908,0-10.266,0-1.439-.48-1.727-1.823-1.727-5.181.1-10.362,0-15.543,0-1.151,0-1.727.192-1.727,1.535.1,3.55.1,7,0,10.554,0,1.343.48,1.535,1.727,1.535Z" transform="translate(-411.645 -88.548)"/><path class="d" d="M488.9,242.724h7.676c1.247,0,1.919-.192,1.823-1.631-.1-3.55-.1-7,0-10.554,0-1.247-.384-1.439-1.535-1.439-5.373,0-10.746.1-16.023,0-1.151,0-1.535.384-1.439,1.535.1,3.55.1,7,0,10.554,0,1.247.384,1.631,1.631,1.631C483.626,242.628,486.217,242.724,488.9,242.724Z" transform="translate(-411.572 -87.197)"/><path class="d" d="M515.582,118.8c-2.591,0-5.277.1-7.867,0-1.439-.1-2.015.288-1.919,1.823q.144,5.037,0,10.074c0,1.439.288,1.919,1.823,1.919q7.915-.144,15.831,0c1.631,0,2.015-.576,1.919-2.015-.1-3.166-.192-6.428,0-9.594.1-1.919-.672-2.3-2.3-2.207C520.475,118.9,518.077,118.8,515.582,118.8Z" transform="translate(-463.868 -82.724)"/><path class="d" d="M515.79,332.416c2.591,0,5.277-.1,7.867,0,1.247,0,1.919-.192,1.823-1.631-.1-3.55-.1-7,0-10.554,0-1.343-.48-1.631-1.727-1.631-5.469,0-10.842.1-16.311,0-1.343,0-1.631.48-1.535,1.727.1,3.55.1,7,0,10.554,0,1.343.48,1.631,1.631,1.535Z" transform="translate(-464.075 -90.827)"/><path class="d" d="M515.688,112.02c2.591,0,5.277-.1,7.867,0,1.439.1,2.015-.288,1.919-1.823-.1-3.454-.1-6.812,0-10.266,0-1.247-.288-1.727-1.631-1.631-5.469.1-10.842.1-16.311,0-1.247,0-1.727.288-1.631,1.631.1,3.55.1,7,0,10.554,0,1.439.576,1.727,1.823,1.631C510.411,111.924,513,112.02,515.688,112.02Z" transform="translate(-464.069 -81.893)"/><path class="d" d="M515.48,352.912c2.591,0,5.277-.1,7.868,0,1.727.1,2.111-.576,2.111-2.207-.1-3.166-.1-6.428,0-9.595.1-1.535-.288-2.111-1.919-2.111q-7.916.144-15.831,0c-1.247,0-1.823.288-1.823,1.727.1,3.55.1,7,0,10.554,0,1.343.48,1.631,1.727,1.535C510.2,352.912,512.89,352.912,515.48,352.912Z" transform="translate(-464.054 -91.654)"/><path class="d" d="M488.8,118.8h-7.867c-1.151,0-1.535.288-1.535,1.535.1,3.55.1,7.2,0,10.746,0,1.151.288,1.535,1.439,1.535,5.373-.1,10.65,0,16.023,0,1.151,0,1.535-.288,1.535-1.439-.1-3.55-.1-7.2,0-10.746,0-1.343-.576-1.535-1.727-1.535C494.08,118.8,491.393,118.8,488.8,118.8Z" transform="translate(-411.567 -82.725)"/><path class="d" d="M488.99,318.7c-2.591,0-5.085.1-7.676,0-1.439-.1-2.015.288-1.919,1.823q.144,5.037,0,10.074c0,1.439.288,1.919,1.823,1.919,5.085-.1,10.17-.1,15.351,0,1.631,0,2.015-.576,1.919-2.015-.1-3.166-.192-6.428,0-9.595.1-1.919-.672-2.3-2.3-2.207C493.788,318.8,491.389,318.7,488.99,318.7Z" transform="translate(-411.659 -90.83)"/><path class="d" d="M488.99,339.2c-2.591,0-5.085.1-7.676,0-1.439-.1-2.015.288-1.919,1.823q.144,5.037,0,10.074c0,1.439.288,1.919,1.823,1.919,5.085-.1,10.17-.1,15.351,0,1.631,0,2.015-.576,1.919-2.015-.1-3.166-.192-6.428,0-9.594.1-1.919-.672-2.3-2.3-2.207C493.788,339.3,491.389,339.2,488.99,339.2Z" transform="translate(-411.659 -91.661)"/><path class="d" d="M488.908,98.3c-2.591,0-5.085.1-7.676,0-1.247,0-1.919.192-1.823,1.727.1,3.55.1,7,0,10.554,0,1.343.48,1.631,1.631,1.535q7.915-.144,15.831,0c1.247,0,1.631-.48,1.631-1.631-.1-3.55-.1-7,0-10.554,0-1.343-.48-1.631-1.727-1.631Z" transform="translate(-411.672 -81.893)"/></g><path class="d" d="M608.7,118.6c.1.48.288.288.384.1C608.988,118.7,608.892,118.6,608.7,118.6Z" transform="translate(-608.7 -79.263)"/><line class="g" y2="361.712" transform="translate(37.706 9.595)"/></g></svg>
